{"glyphs":{"0":{"ha":688,"x_min":0,"x_max":0,"o":"m 721 764 b 712 809 720 780 717 795 b 689 854 707 825 699 841 b 667 874 683 862 675 868 b 611 886 651 885 631 889 b 587 879 603 885 595 882 b 566 868 580 876 573 872 b 549 854 560 864 555 859 b 521 824 539 845 529 835 b 481 757 505 803 491 781 b 563 837 498 781 528 816 b 655 832 598 856 643 846 b 565 419 666 818 722 767 b 244 39 407 70 244 39 l 244 39 b 223 34 237 37 230 36 b 154 37 200 30 176 31 b 146 40 151 38 149 39 b 140 43 144 41 142 42 b 128 52 135 46 131 49 b 111 79 121 60 115 69 b 103 112 107 90 105 101 b 102 148 102 124 101 136 b 103 172 102 156 102 164 b 103 172 103 172 103 172 b 165 450 105 199 132 371 b 399 798 198 528 261 674 b 610 894 484 874 562 892 b 575 900 599 897 587 899 b 555 901 569 901 562 901 b 535 900 548 901 542 901 b 455 882 508 897 481 891 b 314 797 403 863 356 833 b 256 740 294 780 274 761 b 204 678 237 720 220 700 b 181 645 196 667 189 656 b 159 611 174 634 166 622 b 139 576 152 600 145 588 b 129 559 136 571 133 565 b 120 540 126 553 123 547 b 68 387 97 491 79 440 b 50 226 57 334 51 280 b 51 186 50 213 51 199 b 55 145 52 172 53 159 b 63 104 57 131 60 118 b 78 64 67 91 71 77 b 104 28 84 50 93 38 b 123 14 110 22 116 18 b 134 9 127 12 130 10 b 145 6 137 8 141 6 b 228 0 172 -2 200 -4 b 308 21 255 3 282 11 b 380 60 333 32 357 45 b 504 168 426 91 467 127 b 598 299 540 208 571 252 b 634 371 611 322 623 346 b 664 444 645 395 655 419 b 710 598 683 494 699 546 b 722 679 716 625 720 652 b 724 721 723 693 724 707 b 721 764 724 736 723 750 z "},"1":{"ha":411,"x_min":0,"x_max":0,"o":"m 502 899 b 483 899 494 898 489 905 l 159 561 b 159 553 157 559 157 555 b 167 553 161 551 165 551 l 378 762 b 37 110 372 749 152 386 b -3 -20 0 23 -3 -20 b 47 6 -3 -20 10 0 b 119 78 105 15 74 -15 b 243 333 126 91 179 200 b 502 865 355 562 501 864 b 522 905 502 866 522 905 b 502 899 516 903 509 901 z "},"2":{"ha":643,"x_min":0,"x_max":0,"o":"m 596 836 b 567 866 588 847 578 857 b 497 900 546 882 522 894 b 487 902 493 901 490 901 b 478 903 484 902 481 903 l 474 904 b 469 904 472 904 470 904 b 460 905 466 904 463 905 b 451 905 457 905 454 905 l 442 905 b 423 903 435 904 429 904 b 354 875 398 899 375 889 b 300 823 333 861 315 843 b 279 790 292 812 285 801 b 263 754 273 778 268 766 b 254 714 259 741 256 728 b 252 673 252 701 251 687 b 258 633 252 660 255 646 b 274 595 262 620 267 607 b 323 537 286 573 303 553 l 323 537 l 323 537 b 340 537 328 533 335 533 b 347 551 344 540 347 545 b 340 565 347 556 344 561 b 298 613 323 578 309 594 b 281 675 288 632 282 653 b 284 708 281 686 282 697 b 292 741 286 719 289 730 b 325 798 300 761 311 781 b 347 821 332 806 339 814 b 372 840 355 828 363 834 b 427 859 389 850 408 857 b 442 859 432 859 437 860 l 449 859 b 456 858 452 859 454 858 b 464 856 459 857 461 857 b 471 855 466 856 469 855 b 478 852 473 854 476 853 b 485 850 480 852 482 851 b 531 817 503 843 518 832 b 558 766 543 802 552 785 b 564 738 561 757 563 748 b 565 724 565 733 565 729 b 565 710 565 720 565 715 b 553 652 564 690 560 671 b 526 597 546 633 537 615 b 445 503 505 562 476 531 b 397 462 430 489 413 475 b 345 424 380 449 362 436 l 331 415 l 316 406 b 287 385 307 399 297 392 b 259 363 278 378 268 371 b 231 341 249 356 240 349 b 125 243 194 310 159 277 b 100 218 117 235 108 226 l 87 205 b 75 191 83 200 79 196 b 26 136 58 174 42 155 b 2 106 18 127 10 116 b -67 0 -29 67 -67 0 b 53 34 -67 0 8 25 b 204 40 103 43 153 45 b 259 27 222 38 241 34 l 262 26 l 266 24 b 275 21 269 23 272 22 b 292 15 281 18 286 16 b 328 6 304 11 316 8 b 402 3 353 1 378 0 b 474 28 428 7 452 15 b 530 83 497 42 516 60 b 546 120 537 94 543 107 b 550 160 550 133 551 147 b 544 166 549 163 547 166 b 539 161 541 165 539 163 l 539 160 b 535 144 538 155 537 149 b 528 129 533 139 530 134 b 508 104 522 120 516 112 b 457 74 493 91 476 80 b 400 67 438 68 419 66 b 371 71 390 68 381 69 b 343 79 362 74 352 76 b 316 91 334 83 325 87 b 302 98 311 93 306 95 b 295 102 300 99 298 100 l 288 106 b 288 106 288 106 288 106 b 242 119 274 114 258 118 b 212 121 228 120 212 121 b -2 48 125 124 -2 48 b 381 363 -2 48 187 262 b 551 511 441 393 513 460 b 598 592 569 537 585 564 b 630 713 617 630 628 671 b 630 719 630 715 630 717 b 596 836 631 733 625 795 z "},"3":{"ha":621,"x_min":0,"x_max":0,"o":"m 670 853 b 666 863 669 857 668 860 b 621 853 652 858 637 854 b 446 894 574 850 522 882 b 351 888 412 897 377 897 b 258 861 312 875 290 860 b 242 861 253 861 248 861 b 224 866 236 862 230 864 b 205 874 217 868 211 871 l 205 874 b 198 873 203 876 200 875 b 197 866 196 871 196 868 b 212 848 202 860 206 854 b 230 832 217 842 223 837 b 278 812 243 822 261 816 b 304 807 287 810 296 808 b 328 806 312 806 320 806 b 370 809 343 807 357 808 b 390 812 377 810 383 811 b 409 815 396 813 402 814 b 409 815 410 815 409 815 b 409 815 409 815 409 815 b 409 815 409 815 409 815 b 411 816 410 816 410 816 b 418 817 413 816 415 816 b 436 818 423 817 429 818 b 515 812 462 819 489 817 b 531 807 520 810 525 809 b 548 803 536 806 542 804 l 471 722 b 373 620 439 688 406 653 b 323 570 357 603 340 586 b 310 558 319 566 315 562 l 290 536 b 231 514 290 536 252 548 b 234 458 210 480 229 460 b 278 460 240 455 255 446 b 319 488 300 475 319 488 l 318 487 b 360 472 333 483 347 479 b 386 456 369 467 378 462 b 404 436 393 450 399 443 b 410 427 406 433 408 430 b 411 422 410 425 411 424 b 413 417 412 421 412 419 b 421 391 416 409 419 400 b 420 336 424 373 424 354 b 406 280 417 317 412 298 b 395 252 402 271 399 261 b 382 225 391 243 387 234 b 350 173 373 207 362 189 b 309 126 337 156 324 140 b 259 88 294 111 277 99 b 204 64 242 77 223 69 b 189 62 199 63 194 62 b 181 60 187 61 184 61 b 173 59 178 60 176 60 b 141 58 163 58 152 58 b 84 69 121 58 101 61 b 43 108 66 78 52 91 b 26 170 33 126 28 147 b 29 238 25 192 26 215 b 44 306 32 261 37 283 l 44 306 b 43 310 44 307 44 309 b 40 313 43 312 41 313 b 33 310 37 314 34 312 b 20 276 28 299 24 288 b 9 242 16 265 12 254 b -4 169 2 218 -2 194 b 7 92 -5 144 -3 118 b 27 56 11 79 18 67 b 59 27 36 44 47 34 b 96 8 70 19 83 13 b 108 6 100 7 104 6 b 273 22 163 -6 221 0 b 365 81 304 35 338 53 b 479 259 417 131 458 202 b 472 446 501 316 507 376 b 354 523 437 516 354 523 b 414 579 354 523 401 565 b 513 682 448 613 481 647 l 562 733 l 587 759 l 611 784 b 628 800 617 790 622 795 b 629 801 628 800 629 801 l 669 840 b 669 840 669 840 669 840 b 670 844 669 841 669 843 b 670 853 670 847 670 850 z "},"4":{"ha":632,"x_min":0,"x_max":0,"o":"m 724 857 b 744 896 725 859 744 896 b 725 891 738 894 731 892 b 716 892 722 891 719 891 b 656 878 695 899 672 893 l 414 632 b 143 359 324 541 233 450 l 74 292 l 56 274 b 24 263 45 271 34 267 b 12 256 20 261 16 259 b 1 246 8 254 4 250 l -1 243 b -3 240 -2 242 -2 241 b -6 233 -4 238 -5 235 b -7 227 -7 231 -7 229 b -6 222 -7 225 -6 223 b -2 217 -5 220 -4 218 b 5 214 0 215 3 214 b 10 214 7 214 8 214 b 16 213 12 213 14 213 l 17 213 l 18 213 l 18 213 b 20 213 19 213 17 213 b 24 215 21 214 23 214 b 25 215 24 215 25 215 b 26 216 25 215 26 216 l 28 217 b 38 225 31 220 34 222 b 56 241 44 231 50 236 b 78 262 63 248 71 255 b 121 268 92 264 107 267 b 145 270 129 269 137 269 b 169 269 153 270 161 269 b 192 266 177 268 184 267 b 215 263 200 265 208 264 l 239 259 l 250 257 l 262 255 b 309 249 277 253 293 251 b 328 248 315 249 322 248 b 271 121 307 205 288 162 b 232 -5 235 36 232 -5 b 281 20 232 -5 244 15 b 351 90 337 29 307 0 b 426 245 356 100 386 161 b 456 247 436 245 446 246 b 506 260 473 249 490 253 b 517 266 510 262 514 264 b 528 274 521 269 524 271 b 542 295 534 280 539 287 b 525 278 538 288 532 282 b 503 268 518 274 511 270 b 456 262 488 264 472 262 b 435 262 449 261 442 261 b 472 339 446 286 459 312 b 724 857 581 563 724 857 z m 13 227 b 13 227 13 227 13 227 z m 339 270 l 264 280 b 168 287 232 284 200 286 b 120 285 152 287 136 286 b 101 282 113 284 107 283 b 162 339 121 301 142 320 b 441 605 255 428 348 516 l 579 739 l 605 764 l 604 757 b 339 270 599 747 453 506 z "},"5":{"ha":647,"x_min":0,"x_max":0,"o":"m 790 874 b 740 858 771 865 752 857 b 571 896 677 864 638 890 b 423 864 503 902 423 864 l 421 865 l 420 864 b 419 864 419 864 419 864 l 418 858 b 410 847 415 854 412 851 l 404 835 b 253 565 400 828 256 570 l 209 486 b 209 483 209 485 209 484 b 219 488 213 484 216 486 b 360 549 262 518 321 552 b 483 322 478 539 516 436 b 479 306 482 317 481 312 b 465 265 475 292 471 279 b 447 224 460 251 454 237 b 424 185 440 210 432 197 b 213 46 375 101 305 32 b 117 92 172 52 140 69 b 92 125 106 101 98 112 b 90 127 91 126 91 127 b 91 327 61 182 62 256 b 85 324 88 328 86 326 b 74 300 81 316 77 308 b 64 274 70 291 67 283 b 51 222 59 257 54 240 b 46 167 47 204 45 186 b 55 110 46 148 49 129 b 85 58 61 91 72 73 b 134 20 99 42 116 30 b 162 9 143 16 152 12 b 168 7 164 8 166 7 b 262 -3 198 -2 232 -7 b 308 4 275 -1 291 1 b 392 43 338 13 369 26 b 567 291 432 75 530 150 b 504 536 589 373 562 480 b 330 573 432 605 330 573 l 344 595 l 372 644 b 423 736 390 675 406 706 l 448 782 b 461 806 453 790 457 798 l 466 815 b 466 815 466 815 466 815 b 539 816 491 816 516 817 b 558 814 545 816 552 815 b 565 813 560 814 563 814 b 567 813 565 813 566 813 b 567 813 567 813 567 813 b 567 813 567 813 567 813 b 567 813 567 813 566 813 b 587 810 574 811 580 810 b 608 807 594 809 601 807 b 652 803 622 805 636 804 b 678 804 661 803 669 803 b 705 810 686 806 696 808 b 756 830 723 814 742 820 b 776 848 763 835 770 841 b 790 866 781 854 786 860 b 790 874 792 869 792 872 z "},"6":{"ha":596,"x_min":0,"x_max":0,"o":"m 669 736 l 669 738 l 669 741 l 669 746 b 667 757 668 750 668 753 b 664 778 666 764 665 771 b 653 818 661 791 658 805 b 632 857 648 832 641 845 b 597 885 623 869 610 879 b 554 896 583 891 569 895 b 513 894 540 897 527 896 b 474 887 500 893 487 890 b 464 884 471 886 468 885 b 455 881 461 883 458 882 b 445 878 452 880 449 879 l 436 875 b 427 871 433 873 430 872 b 417 867 424 870 420 868 b 399 858 411 864 405 861 b 365 838 388 852 376 845 b 302 790 342 824 321 808 b 199 673 263 755 228 716 b 119 543 169 632 142 588 b 103 509 113 532 108 521 l 99 501 l 95 492 b 87 473 92 486 90 479 b 80 455 85 467 83 461 b 74 436 78 449 76 442 b 68 418 72 430 70 424 b 63 399 67 411 65 405 b 41 245 50 348 43 297 b 43 166 40 218 41 192 b 59 87 46 139 51 113 b 77 49 64 74 70 61 b 108 16 85 36 96 25 b 118 10 111 14 115 12 b 128 6 122 9 125 7 b 148 0 135 4 141 1 b 189 -6 161 -4 175 -6 b 268 10 216 -5 243 0 b 338 49 293 20 316 33 b 452 160 382 80 420 117 b 494 226 468 181 482 203 b 526 298 507 249 517 273 b 546 376 535 323 542 350 b 551 462 551 405 553 434 b 541 509 549 478 546 494 b 518 555 536 525 528 541 b 476 590 507 570 492 582 b 464 596 472 593 468 594 b 458 598 462 597 460 598 l 452 600 b 407 609 438 605 423 608 b 385 609 400 610 392 610 b 342 602 370 608 356 606 b 268 569 314 595 291 582 b 189 507 232 549 189 507 b 313 714 189 507 231 622 b 527 872 446 863 494 867 b 602 834 569 877 599 839 b 612 807 607 826 611 817 b 612 775 614 796 614 786 b 609 759 612 770 611 764 b 607 752 608 757 608 754 b 605 748 606 750 606 749 b 604 746 605 747 605 747 l 604 745 b 604 745 604 745 604 745 b 615 714 602 733 606 721 b 648 708 625 706 637 704 b 670 734 660 713 668 723 b 669 736 670 735 670 736 z m 190 495 b 201 503 194 498 197 501 b 343 563 221 520 282 565 b 413 544 378 561 399 554 b 449 323 446 525 499 470 b 233 34 385 137 289 45 b 202 30 223 32 213 30 b 189 29 198 29 194 29 b 180 30 186 29 183 29 b 149 35 169 30 159 32 b 128 338 124 42 65 83 b 190 495 158 462 182 490 z "},"7":{"ha":508,"x_min":0,"x_max":0,"o":"m 716 856 b 704 874 715 864 711 870 b 699 876 703 875 701 876 b 696 877 698 877 697 877 b 693 877 695 877 694 877 b 692 877 693 877 692 877 l 690 877 b 687 877 689 877 688 877 b 682 877 685 877 683 877 l 675 875 b 662 873 671 875 667 874 b 614 870 647 871 631 869 b 567 874 599 870 583 872 b 522 883 552 877 537 880 l 509 886 b 300 875 460 894 358 905 b 196 756 254 851 216 792 b 197 754 196 755 197 755 b 204 754 199 753 202 753 l 204 755 b 287 802 229 775 257 790 b 298 805 291 803 294 804 b 308 808 301 806 305 807 b 330 813 315 810 322 812 b 372 816 343 815 358 816 b 413 812 386 816 399 814 b 443 810 422 812 431 811 b 662 834 575 797 662 834 l 570 765 b 551 750 564 760 558 755 b 473 688 526 729 499 709 b 396 620 447 666 422 643 b 321 549 371 597 345 574 b 284 510 308 536 296 523 b 267 490 278 503 272 497 b 250 470 261 483 256 477 b 187 387 228 443 207 415 b 79 212 148 331 112 272 b 55 166 71 196 63 181 b 33 120 48 151 40 135 b -4 23 33 120 5 68 b 5 1 -5 14 -2 6 l 5 1 b 40 39 6 1 4 18 b 90 56 51 45 71 49 b 355 471 123 122 252 342 b 699 820 524 683 689 805 b 706 831 701 824 704 827 l 710 836 l 712 839 l 712 840 b 713 841 712 840 713 841 b 714 844 714 842 714 843 b 716 848 715 845 715 847 b 716 856 716 851 716 854 z "},"8":{"ha":592,"x_min":0,"x_max":0,"o":"m 434 506 b 638 770 468 516 663 582 b 534 894 630 834 586 871 b 528 895 532 894 530 895 b 518 897 525 896 521 896 b 507 898 514 897 510 898 b 484 898 499 898 492 898 b 442 892 470 897 456 895 b 401 881 428 889 414 886 l 399 880 b 270 699 355 861 292 823 b 303 534 258 633 303 534 b 279 528 303 534 279 529 b 250 522 269 527 260 525 b 173 493 223 515 197 506 b 103 443 147 479 124 463 b 48 372 81 423 62 399 b 30 330 41 359 35 345 b 27 320 29 327 28 323 b 24 309 26 316 25 313 b 20 288 22 302 21 296 b 15 202 14 260 12 231 b 39 116 18 172 26 143 b 94 45 52 88 71 64 b 132 21 106 36 119 28 b 173 8 145 15 159 11 b 257 5 201 2 229 1 b 338 28 285 9 312 16 b 357 37 344 30 351 34 b 375 48 363 40 369 44 b 410 73 388 55 399 64 b 441 105 421 83 431 94 b 466 142 450 116 459 129 b 485 183 473 155 480 169 b 492 205 488 190 490 198 b 496 230 494 214 495 222 b 496 278 498 246 497 262 b 489 322 494 293 492 307 b 483 343 487 329 485 336 b 477 363 482 349 479 356 b 464 402 473 376 469 389 b 418 504 450 437 434 471 b 427 505 421 504 424 505 b 434 506 429 505 431 506 z m 399 140 b 253 28 374 97 313 33 b 98 228 193 22 77 30 b 125 330 102 263 111 298 b 127 334 126 331 126 333 b 160 391 136 354 147 373 b 172 406 164 396 168 401 b 263 488 198 438 228 465 b 265 489 264 488 264 489 b 316 514 273 495 316 514 b 402 325 316 514 394 354 b 399 140 410 294 435 201 z m 398 546 b 359 725 330 660 353 706 b 370 753 362 735 365 744 b 384 780 374 762 379 771 b 425 832 395 798 408 817 b 454 852 434 840 444 847 b 528 853 465 857 495 872 b 575 715 572 828 580 766 b 495 561 569 657 534 597 b 408 525 471 540 441 527 b 398 546 405 532 402 539 z "},"9":{"ha":594,"x_min":0,"x_max":0,"o":"m 620 721 b 607 801 618 748 614 774 b 592 840 604 814 598 828 b 563 874 585 853 575 865 b 553 880 560 876 557 879 b 544 885 550 882 547 884 b 525 892 538 888 532 890 b 486 899 513 896 499 898 b 409 886 460 900 434 895 b 340 849 385 876 362 864 b 227 741 297 819 259 783 b 184 676 211 721 196 699 b 150 605 171 653 159 630 b 128 527 141 579 133 553 b 121 440 122 498 119 469 b 128 393 121 424 124 408 b 149 345 132 376 139 360 b 187 308 159 330 172 317 b 199 302 191 306 195 304 b 205 299 201 301 203 300 l 210 297 b 231 290 217 294 224 292 b 253 287 238 289 246 287 b 275 286 260 286 267 285 b 316 291 289 286 303 288 b 389 322 343 298 366 310 b 467 382 424 341 467 382 b 339 178 467 382 422 267 b 128 26 206 32 160 29 b 57 66 87 22 60 61 b 48 94 52 75 49 84 b 49 126 47 105 47 116 b 53 142 50 132 51 137 b 56 150 54 145 55 148 b 57 154 56 151 57 153 b 58 155 58 154 58 155 l 59 156 b 59 156 59 156 59 157 b 34 196 63 174 52 192 b 9 191 25 198 16 196 b -4 170 2 186 -3 178 b -4 168 -4 169 -4 168 l -4 166 l -4 163 l -4 158 b -3 147 -3 154 -3 150 b 0 126 -2 140 -1 133 b 9 84 2 112 5 98 b 27 45 13 70 19 57 b 61 15 36 32 47 22 b 101 2 73 8 87 4 b 141 3 114 1 127 1 b 178 9 153 4 166 6 b 188 11 182 10 185 10 b 197 14 191 12 194 13 b 206 17 200 15 203 16 l 215 20 b 224 23 218 21 221 22 b 233 27 227 24 231 26 b 251 35 239 30 245 32 b 285 54 263 41 274 47 b 348 100 307 68 328 83 b 451 214 386 134 421 173 b 533 343 482 255 509 298 b 550 377 539 354 544 365 l 554 385 l 558 394 b 566 412 561 400 563 406 b 573 431 568 418 571 424 b 580 449 576 437 578 443 b 586 468 582 455 584 462 b 592 487 588 474 590 480 b 619 641 606 537 615 589 b 620 721 621 668 621 694 z m 532 550 b 466 394 498 426 474 399 b 456 386 463 391 459 389 b 316 331 435 370 375 327 b 250 352 283 334 263 342 b 223 577 218 373 170 431 b 442 861 292 762 388 851 b 472 864 452 862 462 863 b 484 864 476 864 480 864 b 493 863 487 864 490 863 b 523 856 504 862 514 860 b 532 550 547 849 602 805 z "},"\u0000":{"ha":0,"x_min":0,"x_max":0,"o":""},"\n":{"ha":0,"x_min":0,"x_max":0,"o":""},"\r":{"ha":0,"x_min":0,"x_max":0,"o":""}," ":{"ha":218,"x_min":0,"x_max":0,"o":""},"!":{"ha":461,"x_min":0,"x_max":0,"o":"m 576 1048 b 541 1042 565 1056 549 1054 l 540 1042 b 477 946 518 1011 497 978 b 417 848 456 913 437 881 b 359 751 397 816 378 783 l 344 727 l 341 721 l 337 715 l 329 702 b 299 653 319 686 309 670 b 185 451 259 587 220 521 b 172 424 180 442 176 433 l 159 397 b 147 370 155 388 151 379 b 142 356 146 365 144 360 l 139 349 l 137 342 b 105 227 123 305 112 266 b 117 206 103 218 108 209 b 139 215 125 203 135 207 l 139 215 b 194 315 157 249 175 283 b 255 410 213 347 234 378 b 383 600 298 472 341 536 b 415 649 394 616 404 632 l 422 661 l 430 673 l 446 698 b 502 802 466 732 485 767 b 549 909 519 837 535 873 b 586 1021 564 946 576 983 b 576 1048 589 1031 585 1042 z m 93 93 b 78 118 90 102 85 111 b 52 131 71 125 62 130 b 29 128 44 132 36 131 b -4 101 15 122 4 113 b -11 80 -8 94 -10 87 b -9 60 -12 73 -11 66 b -2 42 -7 54 -5 48 b -1 40 -1 42 -1 41 b -1 40 -1 40 -1 40 l -1 40 b 9 28 2 35 5 31 b 17 24 11 26 14 25 b 21 23 18 23 20 23 b 23 22 22 22 22 22 b 25 22 24 22 25 22 b 31 18 27 21 29 19 b 33 15 31 17 32 16 b 33 13 33 14 33 14 b 35 11 34 12 35 11 b 59 0 41 3 50 -1 b 84 18 70 2 79 8 b 87 26 85 20 86 23 b 89 31 88 28 89 29 b 93 41 91 34 92 37 b 97 63 95 48 96 56 b 97 78 97 68 97 73 b 93 93 96 83 95 88 z "},"\"":{"ha":322,"x_min":0,"x_max":0,"o":"m 281 1024 b 270 1044 280 1032 276 1039 b 249 1051 264 1049 257 1051 l 249 1051 b 234 1048 244 1051 239 1050 b 227 1043 232 1046 229 1045 b 217 1032 223 1040 220 1036 l 217 1032 b 205 993 211 1020 207 1006 l 205 991 b 206 953 202 978 203 966 b 219 925 208 943 213 933 b 181 758 219 925 214 809 b 181 757 181 758 181 757 b 263 912 189 764 232 806 l 273 950 l 273 950 b 273 952 273 951 273 951 b 274 955 273 952 274 954 b 282 1006 278 975 281 983 b 281 1024 282 1012 282 1018 z m 130 1044 b 108 1051 124 1049 116 1051 l 108 1051 b 94 1048 103 1051 98 1050 b 86 1043 91 1046 89 1045 b 77 1032 82 1040 79 1036 l 77 1032 b 65 993 71 1020 67 1006 l 64 991 b 65 953 62 978 62 966 b 79 925 68 943 72 933 b 41 758 79 925 73 809 b 41 757 41 758 41 757 b 123 912 48 764 92 806 l 132 950 l 132 950 b 133 952 132 951 133 951 b 133 955 133 952 133 954 b 142 1006 138 975 141 983 b 141 1024 142 1012 142 1018 b 130 1044 140 1032 136 1039 z "},"“":{"ha":322,"x_min":0,"x_max":0,"o":"m 281 1024 b 270 1044 280 1032 276 1039 b 249 1051 264 1049 257 1051 l 249 1051 b 234 1048 244 1051 239 1050 b 227 1043 232 1046 229 1045 b 217 1032 223 1040 220 1036 l 217 1032 b 205 993 211 1020 207 1006 l 205 991 b 206 953 202 978 203 966 b 219 925 208 943 213 933 b 181 758 219 925 214 809 b 181 757 181 758 181 757 b 263 912 189 764 232 806 l 273 950 l 273 950 b 273 952 273 951 273 951 b 274 955 273 952 274 954 b 282 1006 278 975 281 983 b 281 1024 282 1012 282 1018 z m 130 1044 b 108 1051 124 1049 116 1051 l 108 1051 b 94 1048 103 1051 98 1050 b 86 1043 91 1046 89 1045 b 77 1032 82 1040 79 1036 l 77 1032 b 65 993 71 1020 67 1006 l 64 991 b 65 953 62 978 62 966 b 79 925 68 943 72 933 b 41 758 79 925 73 809 b 41 757 41 758 41 757 b 123 912 48 764 92 806 l 132 950 l 132 950 b 133 952 132 951 133 951 b 133 955 133 952 133 954 b 142 1006 138 975 141 983 b 141 1024 142 1012 142 1018 b 130 1044 140 1032 136 1039 z "},"”":{"ha":322,"x_min":0,"x_max":0,"o":"m 281 1024 b 270 1044 280 1032 276 1039 b 249 1051 264 1049 257 1051 l 249 1051 b 234 1048 244 1051 239 1050 b 227 1043 232 1046 229 1045 b 217 1032 223 1040 220 1036 l 217 1032 b 205 993 211 1020 207 1006 l 205 991 b 206 953 202 978 203 966 b 219 925 208 943 213 933 b 181 758 219 925 214 809 b 181 757 181 758 181 757 b 263 912 189 764 232 806 l 273 950 l 273 950 b 273 952 273 951 273 951 b 274 955 273 952 274 954 b 282 1006 278 975 281 983 b 281 1024 282 1012 282 1018 z m 130 1044 b 108 1051 124 1049 116 1051 l 108 1051 b 94 1048 103 1051 98 1050 b 86 1043 91 1046 89 1045 b 77 1032 82 1040 79 1036 l 77 1032 b 65 993 71 1020 67 1006 l 64 991 b 65 953 62 978 62 966 b 79 925 68 943 72 933 b 41 758 79 925 73 809 b 41 757 41 758 41 757 b 123 912 48 764 92 806 l 132 950 l 132 950 b 133 952 132 951 133 951 b 133 955 133 952 133 954 b 142 1006 138 975 141 983 b 141 1024 142 1012 142 1018 b 130 1044 140 1032 136 1039 z "},"#":{"ha":910,"x_min":0,"x_max":0,"o":"m 869 955 l 867 955 b 861 955 865 955 863 955 b 747 881 813 953 769 925 l 633 658 l 462 658 b 613 954 462 658 573 874 b 482 864 557 948 508 914 l 377 659 l 305 659 b 203 573 255 659 212 623 l 331 573 l 242 397 l 170 397 b 68 312 119 397 77 361 l 196 312 l 41 11 b 46 11 42 11 44 11 b 165 86 96 13 141 42 l 285 312 l 455 312 l 299 13 b 428 104 355 19 403 54 l 533 312 l 609 312 b 711 397 659 312 702 348 l 579 397 l 672 573 l 748 573 b 850 659 798 573 841 609 l 718 659 z m 498 397 l 325 397 l 418 573 l 588 573 z "},"$":{"ha":735,"x_min":0,"x_max":0,"o":"m 590 385 b 477 573 579 466 477 573 l 510 637 l 622 850 b 642 843 629 849 636 846 b 673 814 655 837 666 827 b 682 768 680 801 683 785 b 674 715 682 750 679 732 b 692 768 682 732 688 750 b 691 820 695 786 696 804 b 662 862 687 837 676 852 b 635 875 654 867 644 872 l 671 944 l 671 944 l 604 931 l 579 882 b 543 878 567 881 555 880 b 478 859 521 874 499 867 b 369 784 436 841 398 816 b 333 735 355 769 343 753 b 313 681 324 718 317 700 b 313 629 309 664 309 646 b 333 582 317 612 324 597 b 387 516 348 558 367 537 l 181 124 b 148 137 170 127 158 131 b 107 170 132 145 119 156 b 78 265 86 196 76 230 b 120 369 81 303 96 340 b 168 412 134 386 150 401 b 230 441 187 425 208 434 b 107 375 183 432 140 409 b 44 261 73 342 51 301 b 43 200 40 241 40 220 b 64 143 46 180 53 160 b 109 96 76 124 91 108 b 155 74 123 86 139 79 l 109 -13 l 186 20 l 210 64 b 270 66 230 63 250 64 b 357 87 300 70 329 77 b 441 128 386 98 414 111 l 441 128 b 469 149 451 134 460 141 l 491 166 b 563 252 513 187 545 215 b 590 385 596 318 595 351 z m 389 683 b 417 758 390 709 399 734 b 449 793 426 771 437 783 b 493 823 463 804 477 814 b 561 848 514 834 537 843 l 435 608 b 416 627 428 614 422 621 b 396 654 408 635 402 644 b 391 668 394 659 392 663 l 390 672 l 390 675 l 389 679 b 389 683 389 680 389 682 z m 469 272 b 436 222 460 254 449 237 b 331 146 409 190 372 164 b 240 122 302 133 271 125 l 425 475 b 465 423 440 459 453 442 b 485 377 474 409 481 393 b 486 325 489 360 489 342 b 469 272 483 306 477 289 z "},"%":{"ha":856,"x_min":0,"x_max":0,"o":"m 698 850 l 625 767 b 511 714 588 747 550 730 b 448 693 490 706 469 699 b 429 688 442 691 436 690 b 440 712 433 696 436 704 b 459 772 448 731 454 752 b 467 832 464 792 466 812 b 443 903 467 863 459 886 b 438 908 442 905 440 907 b 150 758 374 947 244 895 b 78 480 65 634 45 537 b 80 477 79 479 79 478 b 163 436 93 458 118 436 b 170 436 165 436 168 436 b 226 452 188 437 206 442 b 282 491 246 463 265 476 b 371 590 315 521 345 554 b 418 665 388 614 404 639 b 458 675 432 667 445 671 b 521 698 480 682 501 690 b 596 734 547 709 572 721 l 59 122 b 167 171 100 122 139 140 l 806 899 b 698 850 765 899 726 881 z m 302 600 b 230 520 281 571 257 544 b 191 493 218 509 205 500 b 159 483 181 488 170 484 b 158 483 158 483 158 483 b 136 503 147 483 137 491 b 136 509 136 505 136 507 b 146 573 136 531 140 552 b 175 650 153 600 163 626 b 232 750 192 685 210 718 b 286 819 248 774 266 797 b 275 757 280 799 276 778 b 280 718 275 744 276 731 b 290 697 282 710 286 703 b 308 677 295 689 301 683 b 330 665 315 672 322 668 b 342 662 334 664 338 663 b 302 600 330 641 317 620 z m 398 786 b 363 702 389 757 377 729 b 353 681 360 695 356 688 b 349 681 351 681 350 681 b 319 693 338 683 328 687 b 303 718 311 699 305 708 b 300 750 300 729 299 739 b 314 812 302 771 306 792 b 325 841 317 822 321 831 b 335 862 328 848 332 855 b 343 867 338 864 340 865 b 379 880 356 875 368 879 b 385 880 381 880 383 880 b 411 855 399 880 410 869 l 411 854 b 398 786 411 836 406 813 z m 792 567 l 792 567 b 778 575 788 571 783 574 b 482 401 697 590 590 563 b 413 211 431 325 413 262 b 417 178 413 200 414 189 b 507 100 425 134 462 101 b 511 99 508 99 510 99 b 519 100 514 99 516 99 b 574 116 537 101 555 106 b 630 155 595 127 613 140 b 720 254 664 184 694 217 b 789 375 748 291 771 332 b 808 436 797 395 803 415 b 815 496 813 456 815 476 b 792 567 815 527 808 550 z m 712 365 b 651 264 695 330 674 296 b 579 183 630 235 606 207 b 540 157 567 173 554 164 b 507 147 530 151 519 148 l 507 147 b 485 167 496 146 486 155 b 485 172 485 168 485 170 b 495 237 485 194 488 216 b 524 314 502 264 512 289 b 581 413 540 349 559 382 b 647 495 600 443 622 470 b 682 524 658 506 670 516 b 667 509 677 520 672 515 b 658 500 664 506 661 503 l 650 490 l 645 484 l 641 479 l 633 469 b 618 447 628 462 623 454 l 605 425 b 608 417 603 422 605 419 b 617 418 610 415 614 415 l 617 418 l 632 439 b 649 458 638 445 643 452 l 657 468 l 662 473 l 666 478 l 676 487 b 685 496 679 490 682 493 b 727 528 698 507 712 518 l 738 535 b 750 541 742 537 746 539 l 750 541 b 754 540 751 541 753 540 b 759 518 757 536 759 528 b 747 450 759 499 755 476 b 712 365 738 421 726 393 z "},"&":{"ha":1317,"x_min":0,"x_max":0,"o":"m 1257 265 b 1222 255 1249 269 1236 271 b 948 45 1126 147 1034 76 b 757 45 880 19 815 19 b 564 274 638 97 575 239 b 636 349 586 297 611 322 b 715 435 663 378 689 406 b 755 478 728 450 742 464 b 794 522 767 492 780 507 b 805 534 798 526 801 530 l 814 545 l 816 546 b 846 579 825 558 835 569 b 880 609 857 589 868 599 b 947 661 900 628 923 646 b 987 679 975 678 984 679 b 987 679 987 679 987 679 b 991 671 989 677 990 674 l 992 669 l 992 669 b 995 663 993 667 994 665 b 1009 640 998 654 1003 647 b 1044 626 1015 634 1026 626 b 1092 642 1061 625 1078 631 b 1116 687 1105 653 1113 668 b 1102 738 1120 708 1115 725 l 1102 738 b 1054 756 1090 750 1074 756 l 1046 756 b 1036 754 1043 756 1039 755 b 926 707 1000 750 963 734 b 825 623 890 682 856 653 b 788 584 812 610 800 597 b 757 548 777 571 766 559 b 696 479 739 528 719 505 b 624 400 673 453 649 427 b 609 384 619 395 614 390 b 595 369 605 379 600 374 b 564 336 584 357 574 347 b 550 322 560 331 555 326 b 544 345 548 329 546 337 b 528 403 538 364 533 383 b 524 418 527 408 525 413 b 520 432 522 423 521 427 l 520 433 b 499 520 512 463 505 492 b 492 580 495 540 493 560 b 535 596 505 585 519 590 b 590 618 553 603 571 610 b 722 695 637 638 681 664 b 799 820 764 728 790 770 b 781 914 805 858 799 890 b 693 952 761 939 732 952 b 550 888 637 952 589 930 b 466 750 512 848 484 801 b 456 720 462 740 459 730 b 449 690 453 711 451 701 b 444 650 447 677 445 664 b 445 615 444 638 444 627 b 410 604 433 612 422 608 l 367 589 b 164 483 295 563 226 527 b 44 289 99 438 58 373 b 85 149 34 232 48 185 b 227 97 121 114 169 97 b 401 143 288 96 348 113 b 526 236 446 169 488 200 b 661 61 543 195 583 118 b 860 -1 719 20 786 -1 b 980 15 901 -1 941 5 b 1276 238 1212 76 1284 185 b 1257 265 1273 256 1262 263 z m 145 255 b 261 454 159 337 198 404 b 448 564 318 499 381 537 b 461 492 451 540 456 516 b 469 451 464 479 467 465 b 479 404 472 436 475 420 l 479 403 l 479 403 b 482 397 480 401 481 399 b 483 391 482 395 482 393 b 497 336 488 373 493 354 b 505 308 499 326 502 317 b 513 284 508 300 511 292 b 380 182 473 244 428 210 b 222 139 329 154 276 139 b 157 169 180 139 165 156 b 145 255 143 192 139 221 z m 700 908 b 745 889 732 908 742 893 b 755 834 755 875 759 856 b 684 721 746 786 722 747 b 557 653 645 693 602 670 b 511 637 542 647 526 642 b 488 629 503 634 496 632 b 490 650 488 636 489 643 l 490 651 b 492 672 490 658 491 665 l 496 694 b 503 723 498 704 500 713 b 513 752 506 732 510 742 b 589 860 531 792 557 829 b 700 908 622 891 659 908 z "},"'":{"ha":199,"x_min":0,"x_max":0,"o":"m 158 692 b 147 712 157 699 153 706 b 125 719 141 717 133 719 l 125 719 b 111 716 120 719 115 718 b 103 711 108 714 106 713 b 94 700 99 708 96 704 l 94 700 b 82 661 88 687 84 674 l 81 659 b 82 621 79 646 79 633 b 96 592 85 611 89 601 b 58 426 96 592 90 477 b 58 425 58 425 58 425 b 140 580 65 432 109 474 l 149 618 l 149 618 b 150 619 149 618 150 619 b 150 623 150 620 150 622 b 159 674 155 643 158 651 b 158 692 159 680 159 686 z "},"‘":{"ha":199,"x_min":0,"x_max":0,"o":"m 158 692 b 147 712 157 699 153 706 b 125 719 141 717 133 719 l 125 719 b 111 716 120 719 115 718 b 103 711 108 714 106 713 b 94 700 99 708 96 704 l 94 700 b 82 661 88 687 84 674 l 81 659 b 82 621 79 646 79 633 b 96 592 85 611 89 601 b 58 426 96 592 90 477 b 58 425 58 425 58 425 b 140 580 65 432 109 474 l 149 618 l 149 618 b 150 619 149 618 150 619 b 150 623 150 620 150 622 b 159 674 155 643 158 651 b 158 692 159 680 159 686 z "},"’":{"ha":199,"x_min":0,"x_max":0,"o":"m 158 692 b 147 712 157 699 153 706 b 125 719 141 717 133 719 l 125 719 b 111 716 120 719 115 718 b 103 711 108 714 106 713 b 94 700 99 708 96 704 l 94 700 b 82 661 88 687 84 674 l 81 659 b 82 621 79 646 79 633 b 96 592 85 611 89 601 b 58 426 96 592 90 477 b 58 425 58 425 58 425 b 140 580 65 432 109 474 l 149 618 l 149 618 b 150 619 149 618 150 619 b 150 623 150 620 150 622 b 159 674 155 643 158 651 b 158 692 159 680 159 686 z "},"(":{"ha":551,"x_min":0,"x_max":0,"o":"m 610 1099 l 610 1099 b 594 1106 606 1104 600 1106 b 572 1098 591 1106 587 1106 b 540 1081 562 1094 552 1088 l 539 1081 l 539 1080 b 535 1077 538 1079 537 1078 b 531 1075 534 1076 532 1075 l 529 1074 b 185 770 390 989 274 887 b 42 407 96 653 48 530 b 41 357 40 390 40 373 b 46 308 42 340 44 324 l 46 307 b 59 244 50 285 54 263 b 79 184 64 223 71 203 l 79 184 b 108 131 87 167 97 149 b 146 74 119 111 132 92 b 185 30 163 53 176 38 b 214 14 195 22 206 14 b 222 16 217 14 220 15 l 222 17 b 223 23 223 18 223 20 b 207 47 222 28 218 34 b 181 83 197 58 189 70 l 181 84 b 150 143 169 102 159 122 b 128 230 140 167 133 196 b 122 322 123 261 121 291 b 132 417 124 354 127 386 b 258 730 151 524 193 629 b 472 981 322 831 394 916 b 523 1021 489 995 506 1009 b 573 1054 539 1033 556 1044 b 605 1071 588 1062 599 1068 b 616 1079 609 1073 613 1075 b 618 1085 618 1080 618 1082 l 618 1086 b 610 1099 617 1091 614 1096 z "},")":{"ha":658,"x_min":0,"x_max":0,"o":"m 513 1046 b 473 1090 496 1067 483 1082 b 445 1106 463 1098 453 1106 b 439 1105 443 1106 441 1106 b 436 1098 436 1103 435 1100 b 452 1073 437 1093 441 1086 b 479 1037 462 1062 471 1050 b 508 977 490 1018 500 998 b 531 890 518 953 526 924 b 536 797 536 859 538 828 b 527 702 535 765 532 733 b 401 389 508 595 466 490 b 187 139 337 289 265 204 b 136 99 170 125 153 111 b 86 67 120 87 103 76 b 54 49 70 58 60 52 b 43 42 50 47 46 45 b 41 36 41 40 40 38 l 41 34 b 65 14 44 23 54 15 b 87 22 68 14 72 15 b 119 39 96 27 107 32 l 119 39 l 120 40 b 124 43 121 41 122 42 b 128 46 125 44 127 45 l 129 46 b 474 350 269 131 385 233 b 617 712 562 467 611 589 b 618 762 618 729 619 746 b 613 812 617 779 615 795 b 613 812 613 812 613 812 l 612 813 b 612 813 612 813 612 813 b 600 876 609 835 605 856 b 580 936 595 897 588 917 l 579 937 b 551 989 571 954 562 971 b 513 1046 539 1009 526 1028 z "},"*":{"ha":435,"x_min":0,"x_max":0,"o":"m 382 1011 b 365 1018 377 1016 372 1018 b 332 1007 360 1018 352 1017 b 286 984 318 1000 302 992 b 279 981 283 983 281 982 b 275 979 277 980 276 979 l 273 978 b 249 967 265 974 257 970 b 282 1033 264 999 275 1021 b 297 1067 294 1055 296 1063 b 291 1089 298 1075 296 1083 b 264 1101 287 1094 279 1101 b 241 1092 255 1101 247 1098 b 230 1066 236 1086 233 1078 l 207 969 b 166 1023 188 993 174 1012 b 136 1055 155 1040 146 1050 b 129 1057 134 1056 131 1057 b 121 1058 126 1058 123 1058 b 101 1050 113 1058 106 1055 b 91 1030 96 1044 92 1038 l 90 1026 b 91 1019 90 1024 90 1021 b 118 987 94 1009 103 999 b 181 939 130 978 151 962 b 112 921 153 932 130 925 b 63 904 90 915 74 909 b 48 895 58 902 52 899 b 41 882 44 891 42 887 l 41 879 l 41 878 b 46 859 41 871 42 865 b 53 850 48 856 50 853 l 52 845 l 68 845 b 98 855 72 845 79 846 b 143 876 112 861 127 868 l 143 876 l 144 877 b 145 877 144 877 144 877 b 150 879 146 878 148 878 l 150 879 b 182 896 161 885 172 891 b 171 869 178 887 175 879 l 170 869 l 170 868 b 169 865 170 867 170 866 b 167 862 169 864 168 863 l 167 861 b 150 822 161 847 155 834 b 141 792 146 812 143 802 b 145 770 139 784 141 776 b 168 758 150 762 159 758 b 197 782 180 758 189 766 b 227 898 203 795 213 833 b 275 836 250 869 266 848 b 309 807 283 823 295 807 b 335 817 319 807 328 810 b 346 840 341 823 345 831 b 313 881 348 850 338 861 b 248 927 294 896 272 911 b 308 941 273 933 293 938 b 355 951 328 945 344 948 b 382 963 368 954 377 958 b 393 984 388 969 392 976 b 393 992 394 987 393 989 b 391 998 392 994 392 996 b 382 1011 389 1003 386 1008 z "},"+":{"ha":454,"x_min":0,"x_max":0,"o":"m 270 438 l 334 585 b 249 530 297 585 264 564 l 209 438 l 127 438 b 41 382 90 438 56 416 l 184 382 l 119 235 b 204 290 156 235 190 256 l 245 382 l 326 382 b 413 438 364 382 398 404 z "},",":{"ha":332,"x_min":0,"x_max":0,"o":"m 280 99 b 251 109 272 105 262 109 b 209 89 235 109 219 102 b 183 25 199 76 191 55 b 155 -29 178 2 168 -16 b 83 -67 141 -42 117 -55 b 63 -74 74 -71 67 -73 b 51 -77 58 -75 54 -76 l 51 -77 b 45 -81 48 -78 47 -79 b 41 -88 43 -83 41 -85 b 47 -104 40 -94 43 -100 b 61 -108 51 -107 56 -108 b 103 -99 73 -108 86 -105 b 151 -78 119 -93 136 -86 b 221 -30 176 -64 199 -48 b 274 27 241 -13 259 6 l 275 27 b 284 46 278 34 281 40 b 290 65 287 52 289 59 l 290 66 l 290 67 l 290 67 b 280 99 292 80 289 91 z "},"-":{"ha":375,"x_min":0,"x_max":0,"o":"m 41 442 l 236 442 b 335 503 278 442 317 466 l 139 503 b 41 442 97 503 59 479 z "},".":{"ha":240,"x_min":0,"x_max":0,"o":"m 132 96 l 132 96 b 100 110 125 104 114 109 l 99 110 b 59 93 81 110 68 104 b 42 55 50 82 44 69 b 49 19 40 44 39 29 b 79 8 56 12 66 8 b 122 24 98 8 112 13 b 141 64 131 33 138 47 b 132 96 143 77 140 88 z "},"/":{"ha":478,"x_min":0,"x_max":0,"o":"m 551 961 l -4 11 l 61 11 l 615 961 z "},":":{"ha":279,"x_min":0,"x_max":0,"o":"m 118 212 l 118 212 b 80 226 107 221 94 225 l 80 226 b 46 209 62 226 51 220 b 42 171 41 199 39 186 b 61 135 44 160 48 146 b 95 124 71 128 83 124 b 133 140 114 124 127 130 b 138 180 139 149 141 163 b 118 212 135 193 128 205 z m 238 415 b 218 447 236 428 229 440 b 181 461 207 456 194 460 l 173 462 l 174 460 b 146 444 160 458 151 453 b 142 406 141 434 140 421 b 161 370 145 390 151 379 b 196 358 171 362 183 358 b 233 374 215 358 227 364 b 238 415 239 384 241 398 z "},";":{"ha":379,"x_min":0,"x_max":0,"o":"m 236 181 l 236 183 b 215 215 234 196 226 207 b 182 225 205 221 194 225 b 148 205 165 225 153 218 b 144 141 142 192 141 172 b 134 87 146 119 143 101 b 76 49 125 74 106 61 b 58 42 70 46 64 44 b 47 39 53 41 50 40 l 47 39 b 42 35 45 38 44 37 b 41 28 41 33 40 30 b 53 12 43 21 47 15 b 68 8 57 9 63 8 b 107 17 81 8 94 11 b 147 39 121 23 135 30 b 201 86 167 52 185 68 b 234 143 217 105 228 124 l 234 144 b 237 163 236 150 237 156 b 236 181 238 169 237 175 z m 337 415 b 317 447 335 428 328 440 b 280 461 306 456 293 460 l 272 462 l 273 460 b 245 444 259 458 250 453 b 241 406 240 434 239 421 b 260 370 244 390 250 379 b 295 358 270 362 282 358 b 332 374 314 358 326 364 b 337 415 338 384 340 398 z "},"<":{"ha":463,"x_min":0,"x_max":0,"o":"m 422 619 l 49 456 l 41 408 l 357 245 l 366 300 l 120 428 l 411 556 z "},"=":{"ha":546,"x_min":0,"x_max":0,"o":"m 76 318 l 362 318 b 449 374 400 318 434 340 l 163 374 b 76 318 126 374 92 352 z m 219 502 b 133 446 182 502 148 480 l 418 446 b 505 502 456 446 490 468 z "},">":{"ha":463,"x_min":0,"x_max":0,"o":"m 106 614 l 96 560 l 343 432 l 52 304 l 41 241 l 414 404 l 422 452 z "},"?":{"ha":550,"x_min":0,"x_max":0,"o":"m 703 880 b 703 887 703 882 703 885 l 702 895 b 683 956 698 916 692 936 b 648 1006 674 974 662 991 b 627 1027 642 1014 634 1021 b 603 1045 619 1034 611 1039 b 553 1072 587 1056 571 1064 b 499 1088 536 1079 518 1084 b 472 1093 490 1090 481 1092 b 444 1095 463 1094 453 1095 b 416 1094 435 1095 425 1095 b 388 1091 407 1094 397 1092 b 360 1084 379 1089 370 1087 b 334 1073 351 1081 342 1077 l 327 1070 l 321 1066 b 309 1059 317 1064 313 1061 b 287 1043 302 1054 294 1048 b 219 957 259 1019 236 990 b 193 853 203 925 194 889 b 196 799 192 835 193 817 b 204 772 198 790 201 781 b 216 746 207 763 211 754 b 241 740 222 737 233 735 b 248 765 250 745 253 756 l 247 765 b 234 806 240 778 236 791 b 232 851 231 820 231 836 b 259 937 235 881 244 910 b 318 1003 273 963 293 986 b 336 1016 324 1008 330 1012 b 346 1021 340 1017 343 1019 l 351 1023 l 356 1025 b 376 1032 362 1028 369 1030 b 397 1036 383 1034 390 1035 b 483 1026 426 1039 455 1036 b 523 1009 497 1022 511 1016 b 558 985 536 1002 548 994 b 603 921 578 968 594 946 b 607 903 605 915 606 909 b 609 885 609 897 609 891 b 606 848 610 873 609 860 b 576 773 601 823 590 798 b 551 736 568 760 560 748 b 522 698 542 723 532 711 b 393 556 483 648 439 601 b 322 489 370 534 346 511 b 249 418 297 466 273 443 b 214 377 236 405 225 391 b 198 355 209 370 203 363 b 185 330 193 347 189 339 b 166 277 176 314 170 296 b 163 249 164 268 163 258 b 164 221 163 240 163 230 b 182 205 165 212 173 205 b 201 221 191 205 199 212 l 201 221 b 233 302 204 250 215 278 b 297 366 250 325 273 346 b 335 396 310 376 322 386 l 375 426 b 454 489 401 446 428 467 b 493 523 467 500 480 511 b 530 558 505 534 518 546 b 600 635 555 583 578 608 b 633 676 611 648 622 662 b 663 722 644 691 654 706 b 702 833 682 755 697 792 b 703 848 703 838 703 843 b 704 864 704 853 704 859 b 703 880 704 869 704 874 z m 207 93 b 192 118 204 102 199 111 b 166 131 185 125 176 130 b 143 128 158 132 150 131 b 110 101 129 122 118 113 b 103 80 106 94 103 87 b 105 60 102 73 103 66 b 112 42 107 54 109 48 b 113 40 112 42 112 41 b 113 40 113 40 113 40 l 113 40 b 123 28 115 35 119 31 b 130 24 125 26 128 25 b 135 23 132 23 133 23 b 137 22 135 22 136 22 b 139 22 138 22 138 22 b 144 18 141 21 143 19 b 146 15 145 17 146 16 b 147 13 147 14 147 14 b 149 11 148 12 148 11 b 172 0 154 3 163 -1 b 197 18 183 2 193 8 b 201 26 199 20 200 23 b 203 31 202 28 202 29 b 206 41 204 34 205 37 b 211 63 209 48 210 56 b 210 78 211 68 211 73 b 207 93 210 83 209 88 z "},"@":{"ha":813,"x_min":0,"x_max":0,"o":"m 837 824 b 630 946 799 905 729 946 b 317 811 529 946 424 901 b 75 459 211 723 129 604 b 54 390 66 437 59 414 b 42 318 48 366 44 342 b 85 103 35 240 50 168 b 300 0 122 35 195 0 b 419 22 340 0 381 8 b 535 70 458 37 497 53 l 535 71 b 538 72 536 71 537 72 b 545 77 541 73 543 75 l 549 80 l 537 125 l 511 113 b 498 106 507 111 502 109 b 407 71 469 92 438 81 b 304 56 377 61 343 56 b 127 167 209 56 151 92 b 151 453 101 245 109 342 b 362 778 203 589 274 699 b 627 897 450 857 539 897 b 774 826 699 897 747 873 b 806 658 802 775 812 719 b 783 563 802 625 795 593 b 773 537 780 554 777 546 b 762 512 770 529 766 521 b 652 339 734 450 697 391 b 522 262 609 288 565 262 b 507 271 513 262 510 265 b 505 303 502 280 502 291 l 505 304 l 505 305 b 505 306 505 306 505 306 l 509 316 b 516 329 511 320 513 325 b 525 347 518 334 521 340 l 728 703 l 654 703 l 637 674 b 633 684 636 677 635 681 b 580 712 627 697 613 712 b 448 656 535 712 491 693 b 335 534 406 620 368 579 b 287 458 317 508 300 482 b 256 395 275 437 265 416 b 235 265 234 337 227 295 b 259 226 238 250 247 236 b 305 211 271 216 286 211 b 365 228 326 212 347 218 b 418 264 384 239 402 251 b 440 282 426 271 433 277 b 441 272 440 279 440 275 b 460 231 443 257 450 243 b 513 210 471 217 489 210 b 663 285 562 210 613 235 b 785 447 711 333 752 387 b 808 491 793 461 801 476 b 826 534 815 506 821 520 b 837 824 869 649 873 747 z m 396 318 b 353 289 383 307 368 297 b 325 279 338 281 329 279 b 297 294 303 279 299 289 b 313 378 294 302 292 324 b 323 402 316 386 319 394 b 335 427 327 411 331 419 b 445 574 364 481 401 531 b 557 645 488 617 526 641 l 562 645 b 588 639 579 645 586 641 b 591 634 589 638 590 636 b 581 577 593 625 593 609 l 581 576 b 489 418 553 515 522 462 b 396 318 455 375 424 341 z "},"A":{"ha":1653,"x_min":0,"x_max":0,"o":"m 1889 1352 b 1884 1353 1887 1353 1885 1354 b 1879 1350 1882 1353 1880 1352 b 1815 1264 1858 1321 1837 1292 b 1783 1221 1805 1249 1794 1235 l 1749 1179 b 1613 1013 1704 1123 1659 1068 b 1328 692 1520 904 1425 797 l 1255 613 b 1182 535 1231 587 1206 561 b 1107 458 1157 509 1132 484 b 1070 420 1095 445 1083 432 l 1051 401 l 1032 382 b 997 348 1021 370 1009 359 b 980 348 991 348 986 348 b 871 342 943 348 907 346 b 660 283 798 333 726 314 b 611 256 643 275 627 266 b 588 241 603 252 595 247 b 566 226 580 236 573 231 b 485 151 536 204 509 179 b 452 107 473 137 462 123 b 439 83 447 99 443 91 b 433 55 436 74 433 65 b 434 41 433 51 433 46 b 440 28 435 36 437 32 b 463 9 445 19 453 13 b 477 5 467 7 472 6 b 484 5 479 5 482 5 b 491 4 487 4 489 5 b 519 6 501 5 510 5 b 625 34 556 10 591 21 b 675 56 642 40 659 48 b 724 81 692 64 708 72 b 903 205 787 117 846 160 b 1036 322 949 242 993 281 b 1086 319 1052 321 1069 320 b 1099 318 1091 319 1095 318 l 1113 317 b 1139 313 1121 316 1130 315 b 1165 309 1148 312 1157 311 l 1192 305 b 1299 291 1227 300 1263 295 b 1324 289 1308 291 1316 290 b 1309 252 1319 277 1314 264 b 1241 51 1282 186 1259 119 b 1217 -53 1231 17 1223 -18 b 1213 -79 1216 -62 1215 -70 b 1211 -106 1212 -88 1211 -97 b 1209 -139 1210 -117 1209 -128 b 1161 -128 1193 -134 1177 -131 b 1056 -121 1126 -123 1091 -121 b 848 -145 985 -122 916 -131 b 747 -171 814 -152 780 -161 b 647 -197 714 -181 681 -190 b 443 -227 580 -213 512 -222 b 237 -216 374 -230 305 -228 b 138 -189 204 -210 170 -201 b 50 -138 107 -176 76 -160 b 18 -99 37 -127 26 -114 b 2 -52 9 -85 4 -69 b 9 -2 1 -35 3 -18 b 32 43 14 14 22 29 l 32 43 l 32 43 b 32 46 32 44 32 45 b 30 49 32 47 31 48 b 27 49 30 49 28 49 b 25 47 26 49 25 48 b 1 0 15 33 7 17 b -5 -53 -5 -17 -7 -35 b 11 -103 -4 -70 2 -88 b 45 -143 20 -118 32 -132 b 136 -195 72 -166 103 -183 b 236 -223 168 -208 202 -217 b 443 -235 304 -236 374 -238 b 649 -208 513 -232 582 -223 b 750 -184 683 -201 717 -193 b 851 -161 784 -175 817 -167 b 1055 -146 918 -149 987 -144 b 1156 -156 1089 -147 1123 -150 b 1205 -167 1173 -159 1189 -163 b 1211 -169 1207 -168 1209 -169 b 1214 -187 1212 -175 1213 -181 b 1224 -213 1216 -196 1219 -205 b 1242 -235 1228 -222 1234 -230 b 1256 -241 1246 -238 1251 -240 b 1270 -240 1261 -241 1265 -241 b 1283 -236 1274 -239 1279 -238 l 1286 -235 b 1290 -234 1287 -235 1288 -234 b 1296 -231 1292 -233 1294 -232 b 1303 -226 1299 -229 1301 -228 b 1308 -218 1305 -223 1307 -221 b 1308 -198 1310 -211 1310 -204 b 1299 -184 1306 -193 1303 -188 b 1288 -174 1296 -180 1292 -177 b 1264 -159 1280 -168 1272 -163 b 1235 -147 1255 -154 1245 -150 b 1242 -111 1237 -135 1239 -123 b 1255 -62 1245 -94 1250 -78 b 1293 32 1266 -30 1279 1 b 1390 211 1322 93 1356 153 b 1434 284 1405 236 1419 260 b 1515 287 1461 284 1488 285 b 1622 302 1551 289 1587 295 b 1674 319 1640 307 1657 312 b 1698 333 1682 323 1690 328 b 1708 343 1701 336 1705 339 b 1714 356 1711 347 1713 351 b 1712 360 1715 358 1714 359 b 1709 358 1710 360 1709 359 l 1709 357 b 1694 338 1707 350 1701 343 b 1671 326 1687 333 1679 329 b 1620 311 1654 319 1637 314 b 1514 298 1585 304 1550 300 b 1442 297 1490 297 1466 297 b 1496 386 1460 327 1478 357 l 1548 474 b 1602 562 1566 503 1584 532 b 1629 606 1611 576 1620 591 b 1655 651 1638 621 1647 636 b 1706 744 1673 682 1690 713 b 1793 936 1738 807 1768 871 b 1859 1137 1819 1001 1841 1068 b 1865 1162 1861 1145 1863 1154 b 1871 1188 1867 1171 1869 1179 b 1881 1240 1875 1205 1878 1222 b 1888 1292 1884 1257 1886 1275 b 1891 1318 1889 1301 1890 1310 b 1892 1345 1891 1327 1892 1336 l 1892 1345 l 1892 1345 b 1889 1352 1892 1348 1891 1351 z m 876 236 b 794 169 850 213 822 190 b 708 107 766 147 738 126 b 663 79 693 97 678 88 b 616 55 648 71 632 63 b 517 23 584 41 551 29 b 491 20 508 22 499 21 b 484 20 489 20 486 20 b 478 20 482 20 480 20 b 466 21 474 20 470 21 b 445 32 458 22 451 26 b 440 43 443 35 441 39 b 438 55 438 47 438 51 b 446 79 440 64 442 72 b 460 101 450 87 455 94 b 498 138 472 115 484 127 b 540 170 511 150 525 160 b 584 199 554 180 569 190 l 606 214 b 628 227 614 218 621 223 b 674 252 643 236 659 244 b 875 312 738 281 805 302 b 970 322 906 317 938 320 b 876 236 939 293 908 264 z m 1251 -185 b 1271 -196 1258 -188 1265 -192 b 1279 -203 1274 -199 1277 -201 b 1286 -209 1282 -205 1284 -208 b 1291 -215 1288 -211 1290 -213 b 1290 -224 1292 -218 1292 -221 b 1286 -228 1289 -225 1288 -227 b 1284 -230 1285 -229 1285 -229 b 1281 -232 1283 -231 1282 -231 b 1269 -235 1278 -234 1273 -235 b 1248 -228 1262 -236 1254 -233 b 1237 -208 1243 -222 1239 -215 b 1233 -184 1235 -200 1234 -192 b 1233 -177 1233 -182 1233 -179 b 1251 -185 1239 -179 1245 -182 z m 1862 1298 b 1844 1250 1856 1282 1850 1266 b 1835 1226 1841 1242 1838 1234 b 1825 1202 1831 1218 1828 1210 b 1805 1155 1818 1187 1812 1171 b 1784 1109 1798 1140 1791 1124 b 1762 1063 1777 1093 1769 1078 b 1716 971 1747 1032 1732 1001 b 1667 882 1700 941 1684 911 b 1616 794 1651 852 1634 823 l 1590 750 l 1577 729 b 1563 707 1572 721 1568 714 b 1536 664 1554 693 1545 678 l 1508 621 b 1452 532 1489 592 1470 562 b 1399 442 1434 502 1416 472 b 1331 304 1375 397 1352 351 b 1301 308 1321 306 1311 307 b 1195 324 1265 312 1230 318 l 1169 329 b 1142 334 1160 331 1151 332 b 1115 338 1133 335 1124 337 l 1102 340 b 1088 341 1097 340 1093 341 b 1059 344 1078 342 1069 343 b 1064 350 1060 346 1062 348 l 1083 369 l 1102 388 b 1140 427 1115 401 1127 414 l 1177 466 l 1195 485 b 1214 505 1202 492 1207 499 b 1286 585 1238 532 1262 558 l 1357 666 b 1629 1000 1451 775 1541 887 l 1663 1042 l 1695 1085 b 1761 1170 1717 1113 1739 1142 l 1865 1308 b 1862 1298 1864 1305 1863 1301 z "},"À":{"ha":1653,"x_min":0,"x_max":0,"o":"m 1889 1352 b 1884 1353 1887 1353 1885 1354 b 1879 1350 1882 1353 1880 1352 b 1815 1264 1858 1321 1837 1292 b 1783 1221 1805 1249 1794 1235 l 1749 1179 b 1613 1013 1704 1123 1659 1068 b 1328 692 1520 904 1425 797 l 1255 613 b 1182 535 1231 587 1206 561 b 1107 458 1157 509 1132 484 b 1070 420 1095 445 1083 432 l 1051 401 l 1032 382 b 997 348 1021 370 1009 359 b 980 348 991 348 986 348 b 871 342 943 348 907 346 b 660 283 798 333 726 314 b 611 256 643 275 627 266 b 588 241 603 252 595 247 b 566 226 580 236 573 231 b 485 151 536 204 509 179 b 452 107 473 137 462 123 b 439 83 447 99 443 91 b 433 55 436 74 433 65 b 434 41 433 51 433 46 b 440 28 435 36 437 32 b 463 9 445 19 453 13 b 477 5 467 7 472 6 b 484 5 479 5 482 5 b 491 4 487 4 489 5 b 519 6 501 5 510 5 b 625 34 556 10 591 21 b 675 56 642 40 659 48 b 724 81 692 64 708 72 b 903 205 787 117 846 160 b 1036 322 949 242 993 281 b 1086 319 1052 321 1069 320 b 1099 318 1091 319 1095 318 l 1113 317 b 1139 313 1121 316 1130 315 b 1165 309 1148 312 1157 311 l 1192 305 b 1299 291 1227 300 1263 295 b 1324 289 1308 291 1316 290 b 1309 252 1319 277 1314 264 b 1241 51 1282 186 1259 119 b 1217 -53 1231 17 1223 -18 b 1213 -79 1216 -62 1215 -70 b 1211 -106 1212 -88 1211 -97 b 1209 -139 1210 -117 1209 -128 b 1161 -128 1193 -134 1177 -131 b 1056 -121 1126 -123 1091 -121 b 848 -145 985 -122 916 -131 b 747 -171 814 -152 780 -161 b 647 -197 714 -181 681 -190 b 443 -227 580 -213 512 -222 b 237 -216 374 -230 305 -228 b 138 -189 204 -210 170 -201 b 50 -138 107 -176 76 -160 b 18 -99 37 -127 26 -114 b 2 -52 9 -85 4 -69 b 9 -2 1 -35 3 -18 b 32 43 14 14 22 29 l 32 43 l 32 43 b 32 46 32 44 32 45 b 30 49 32 47 31 48 b 27 49 30 49 28 49 b 25 47 26 49 25 48 b 1 0 15 33 7 17 b -5 -53 -5 -17 -7 -35 b 11 -103 -4 -70 2 -88 b 45 -143 20 -118 32 -132 b 136 -195 72 -166 103 -183 b 236 -223 168 -208 202 -217 b 443 -235 304 -236 374 -238 b 649 -208 513 -232 582 -223 b 750 -184 683 -201 717 -193 b 851 -161 784 -175 817 -167 b 1055 -146 918 -149 987 -144 b 1156 -156 1089 -147 1123 -150 b 1205 -167 1173 -159 1189 -163 b 1211 -169 1207 -168 1209 -169 b 1214 -187 1212 -175 1213 -181 b 1224 -213 1216 -196 1219 -205 b 1242 -235 1228 -222 1234 -230 b 1256 -241 1246 -238 1251 -240 b 1270 -240 1261 -241 1265 -241 b 1283 -236 1274 -239 1279 -238 l 1286 -235 b 1290 -234 1287 -235 1288 -234 b 1296 -231 1292 -233 1294 -232 b 1303 -226 1299 -229 1301 -228 b 1308 -218 1305 -223 1307 -221 b 1308 -198 1310 -211 1310 -204 b 1299 -184 1306 -193 1303 -188 b 1288 -174 1296 -180 1292 -177 b 1264 -159 1280 -168 1272 -163 b 1235 -147 1255 -154 1245 -150 b 1242 -111 1237 -135 1239 -123 b 1255 -62 1245 -94 1250 -78 b 1293 32 1266 -30 1279 1 b 1390 211 1322 93 1356 153 b 1434 284 1405 236 1419 260 b 1515 287 1461 284 1488 285 b 1622 302 1551 289 1587 295 b 1674 319 1640 307 1657 312 b 1698 333 1682 323 1690 328 b 1708 343 1701 336 1705 339 b 1714 356 1711 347 1713 351 b 1712 360 1715 358 1714 359 b 1709 358 1710 360 1709 359 l 1709 357 b 1694 338 1707 350 1701 343 b 1671 326 1687 333 1679 329 b 1620 311 1654 319 1637 314 b 1514 298 1585 304 1550 300 b 1442 297 1490 297 1466 297 b 1496 386 1460 327 1478 357 l 1548 474 b 1602 562 1566 503 1584 532 b 1629 606 1611 576 1620 591 b 1655 651 1638 621 1647 636 b 1706 744 1673 682 1690 713 b 1793 936 1738 807 1768 871 b 1859 1137 1819 1001 1841 1068 b 1865 1162 1861 1145 1863 1154 b 1871 1188 1867 1171 1869 1179 b 1881 1240 1875 1205 1878 1222 b 1888 1292 1884 1257 1886 1275 b 1891 1318 1889 1301 1890 1310 b 1892 1345 1891 1327 1892 1336 l 1892 1345 l 1892 1345 b 1889 1352 1892 1348 1891 1351 z m 876 236 b 794 169 850 213 822 190 b 708 107 766 147 738 126 b 663 79 693 97 678 88 b 616 55 648 71 632 63 b 517 23 584 41 551 29 b 491 20 508 22 499 21 b 484 20 489 20 486 20 b 478 20 482 20 480 20 b 466 21 474 20 470 21 b 445 32 458 22 451 26 b 440 43 443 35 441 39 b 438 55 438 47 438 51 b 446 79 440 64 442 72 b 460 101 450 87 455 94 b 498 138 472 115 484 127 b 540 170 511 150 525 160 b 584 199 554 180 569 190 l 606 214 b 628 227 614 218 621 223 b 674 252 643 236 659 244 b 875 312 738 281 805 302 b 970 322 906 317 938 320 b 876 236 939 293 908 264 z m 1251 -185 b 1271 -196 1258 -188 1265 -192 b 1279 -203 1274 -199 1277 -201 b 1286 -209 1282 -205 1284 -208 b 1291 -215 1288 -211 1290 -213 b 1290 -224 1292 -218 1292 -221 b 1286 -228 1289 -225 1288 -227 b 1284 -230 1285 -229 1285 -229 b 1281 -232 1283 -231 1282 -231 b 1269 -235 1278 -234 1273 -235 b 1248 -228 1262 -236 1254 -233 b 1237 -208 1243 -222 1239 -215 b 1233 -184 1235 -200 1234 -192 b 1233 -177 1233 -182 1233 -179 b 1251 -185 1239 -179 1245 -182 z m 1862 1298 b 1844 1250 1856 1282 1850 1266 b 1835 1226 1841 1242 1838 1234 b 1825 1202 1831 1218 1828 1210 b 1805 1155 1818 1187 1812 1171 b 1784 1109 1798 1140 1791 1124 b 1762 1063 1777 1093 1769 1078 b 1716 971 1747 1032 1732 1001 b 1667 882 1700 941 1684 911 b 1616 794 1651 852 1634 823 l 1590 750 l 1577 729 b 1563 707 1572 721 1568 714 b 1536 664 1554 693 1545 678 l 1508 621 b 1452 532 1489 592 1470 562 b 1399 442 1434 502 1416 472 b 1331 304 1375 397 1352 351 b 1301 308 1321 306 1311 307 b 1195 324 1265 312 1230 318 l 1169 329 b 1142 334 1160 331 1151 332 b 1115 338 1133 335 1124 337 l 1102 340 b 1088 341 1097 340 1093 341 b 1059 344 1078 342 1069 343 b 1064 350 1060 346 1062 348 l 1083 369 l 1102 388 b 1140 427 1115 401 1127 414 l 1177 466 l 1195 485 b 1214 505 1202 492 1207 499 b 1286 585 1238 532 1262 558 l 1357 666 b 1629 1000 1451 775 1541 887 l 1663 1042 l 1695 1085 b 1761 1170 1717 1113 1739 1142 l 1865 1308 b 1862 1298 1864 1305 1863 1301 z "},"Á":{"ha":1653,"x_min":0,"x_max":0,"o":"m 1889 1352 b 1884 1353 1887 1353 1885 1354 b 1879 1350 1882 1353 1880 1352 b 1815 1264 1858 1321 1837 1292 b 1783 1221 1805 1249 1794 1235 l 1749 1179 b 1613 1013 1704 1123 1659 1068 b 1328 692 1520 904 1425 797 l 1255 613 b 1182 535 1231 587 1206 561 b 1107 458 1157 509 1132 484 b 1070 420 1095 445 1083 432 l 1051 401 l 1032 382 b 997 348 1021 370 1009 359 b 980 348 991 348 986 348 b 871 342 943 348 907 346 b 660 283 798 333 726 314 b 611 256 643 275 627 266 b 588 241 603 252 595 247 b 566 226 580 236 573 231 b 485 151 536 204 509 179 b 452 107 473 137 462 123 b 439 83 447 99 443 91 b 433 55 436 74 433 65 b 434 41 433 51 433 46 b 440 28 435 36 437 32 b 463 9 445 19 453 13 b 477 5 467 7 472 6 b 484 5 479 5 482 5 b 491 4 487 4 489 5 b 519 6 501 5 510 5 b 625 34 556 10 591 21 b 675 56 642 40 659 48 b 724 81 692 64 708 72 b 903 205 787 117 846 160 b 1036 322 949 242 993 281 b 1086 319 1052 321 1069 320 b 1099 318 1091 319 1095 318 l 1113 317 b 1139 313 1121 316 1130 315 b 1165 309 1148 312 1157 311 l 1192 305 b 1299 291 1227 300 1263 295 b 1324 289 1308 291 1316 290 b 1309 252 1319 277 1314 264 b 1241 51 1282 186 1259 119 b 1217 -53 1231 17 1223 -18 b 1213 -79 1216 -62 1215 -70 b 1211 -106 1212 -88 1211 -97 b 1209 -139 1210 -117 1209 -128 b 1161 -128 1193 -134 1177 -131 b 1056 -121 1126 -123 1091 -121 b 848 -145 985 -122 916 -131 b 747 -171 814 -152 780 -161 b 647 -197 714 -181 681 -190 b 443 -227 580 -213 512 -222 b 237 -216 374 -230 305 -228 b 138 -189 204 -210 170 -201 b 50 -138 107 -176 76 -160 b 18 -99 37 -127 26 -114 b 2 -52 9 -85 4 -69 b 9 -2 1 -35 3 -18 b 32 43 14 14 22 29 l 32 43 l 32 43 b 32 46 32 44 32 45 b 30 49 32 47 31 48 b 27 49 30 49 28 49 b 25 47 26 49 25 48 b 1 0 15 33 7 17 b -5 -53 -5 -17 -7 -35 b 11 -103 -4 -70 2 -88 b 45 -143 20 -118 32 -132 b 136 -195 72 -166 103 -183 b 236 -223 168 -208 202 -217 b 443 -235 304 -236 374 -238 b 649 -208 513 -232 582 -223 b 750 -184 683 -201 717 -193 b 851 -161 784 -175 817 -167 b 1055 -146 918 -149 987 -144 b 1156 -156 1089 -147 1123 -150 b 1205 -167 1173 -159 1189 -163 b 1211 -169 1207 -168 1209 -169 b 1214 -187 1212 -175 1213 -181 b 1224 -213 1216 -196 1219 -205 b 1242 -235 1228 -222 1234 -230 b 1256 -241 1246 -238 1251 -240 b 1270 -240 1261 -241 1265 -241 b 1283 -236 1274 -239 1279 -238 l 1286 -235 b 1290 -234 1287 -235 1288 -234 b 1296 -231 1292 -233 1294 -232 b 1303 -226 1299 -229 1301 -228 b 1308 -218 1305 -223 1307 -221 b 1308 -198 1310 -211 1310 -204 b 1299 -184 1306 -193 1303 -188 b 1288 -174 1296 -180 1292 -177 b 1264 -159 1280 -168 1272 -163 b 1235 -147 1255 -154 1245 -150 b 1242 -111 1237 -135 1239 -123 b 1255 -62 1245 -94 1250 -78 b 1293 32 1266 -30 1279 1 b 1390 211 1322 93 1356 153 b 1434 284 1405 236 1419 260 b 1515 287 1461 284 1488 285 b 1622 302 1551 289 1587 295 b 1674 319 1640 307 1657 312 b 1698 333 1682 323 1690 328 b 1708 343 1701 336 1705 339 b 1714 356 1711 347 1713 351 b 1712 360 1715 358 1714 359 b 1709 358 1710 360 1709 359 l 1709 357 b 1694 338 1707 350 1701 343 b 1671 326 1687 333 1679 329 b 1620 311 1654 319 1637 314 b 1514 298 1585 304 1550 300 b 1442 297 1490 297 1466 297 b 1496 386 1460 327 1478 357 l 1548 474 b 1602 562 1566 503 1584 532 b 1629 606 1611 576 1620 591 b 1655 651 1638 621 1647 636 b 1706 744 1673 682 1690 713 b 1793 936 1738 807 1768 871 b 1859 1137 1819 1001 1841 1068 b 1865 1162 1861 1145 1863 1154 b 1871 1188 1867 1171 1869 1179 b 1881 1240 1875 1205 1878 1222 b 1888 1292 1884 1257 1886 1275 b 1891 1318 1889 1301 1890 1310 b 1892 1345 1891 1327 1892 1336 l 1892 1345 l 1892 1345 b 1889 1352 1892 1348 1891 1351 z m 876 236 b 794 169 850 213 822 190 b 708 107 766 147 738 126 b 663 79 693 97 678 88 b 616 55 648 71 632 63 b 517 23 584 41 551 29 b 491 20 508 22 499 21 b 484 20 489 20 486 20 b 478 20 482 20 480 20 b 466 21 474 20 470 21 b 445 32 458 22 451 26 b 440 43 443 35 441 39 b 438 55 438 47 438 51 b 446 79 440 64 442 72 b 460 101 450 87 455 94 b 498 138 472 115 484 127 b 540 170 511 150 525 160 b 584 199 554 180 569 190 l 606 214 b 628 227 614 218 621 223 b 674 252 643 236 659 244 b 875 312 738 281 805 302 b 970 322 906 317 938 320 b 876 236 939 293 908 264 z m 1251 -185 b 1271 -196 1258 -188 1265 -192 b 1279 -203 1274 -199 1277 -201 b 1286 -209 1282 -205 1284 -208 b 1291 -215 1288 -211 1290 -213 b 1290 -224 1292 -218 1292 -221 b 1286 -228 1289 -225 1288 -227 b 1284 -230 1285 -229 1285 -229 b 1281 -232 1283 -231 1282 -231 b 1269 -235 1278 -234 1273 -235 b 1248 -228 1262 -236 1254 -233 b 1237 -208 1243 -222 1239 -215 b 1233 -184 1235 -200 1234 -192 b 1233 -177 1233 -182 1233 -179 b 1251 -185 1239 -179 1245 -182 z m 1862 1298 b 1844 1250 1856 1282 1850 1266 b 1835 1226 1841 1242 1838 1234 b 1825 1202 1831 1218 1828 1210 b 1805 1155 1818 1187 1812 1171 b 1784 1109 1798 1140 1791 1124 b 1762 1063 1777 1093 1769 1078 b 1716 971 1747 1032 1732 1001 b 1667 882 1700 941 1684 911 b 1616 794 1651 852 1634 823 l 1590 750 l 1577 729 b 1563 707 1572 721 1568 714 b 1536 664 1554 693 1545 678 l 1508 621 b 1452 532 1489 592 1470 562 b 1399 442 1434 502 1416 472 b 1331 304 1375 397 1352 351 b 1301 308 1321 306 1311 307 b 1195 324 1265 312 1230 318 l 1169 329 b 1142 334 1160 331 1151 332 b 1115 338 1133 335 1124 337 l 1102 340 b 1088 341 1097 340 1093 341 b 1059 344 1078 342 1069 343 b 1064 350 1060 346 1062 348 l 1083 369 l 1102 388 b 1140 427 1115 401 1127 414 l 1177 466 l 1195 485 b 1214 505 1202 492 1207 499 b 1286 585 1238 532 1262 558 l 1357 666 b 1629 1000 1451 775 1541 887 l 1663 1042 l 1695 1085 b 1761 1170 1717 1113 1739 1142 l 1865 1308 b 1862 1298 1864 1305 1863 1301 z "},"Â":{"ha":1653,"x_min":0,"x_max":0,"o":"m 1889 1352 b 1884 1353 1887 1353 1885 1354 b 1879 1350 1882 1353 1880 1352 b 1815 1264 1858 1321 1837 1292 b 1783 1221 1805 1249 1794 1235 l 1749 1179 b 1613 1013 1704 1123 1659 1068 b 1328 692 1520 904 1425 797 l 1255 613 b 1182 535 1231 587 1206 561 b 1107 458 1157 509 1132 484 b 1070 420 1095 445 1083 432 l 1051 401 l 1032 382 b 997 348 1021 370 1009 359 b 980 348 991 348 986 348 b 871 342 943 348 907 346 b 660 283 798 333 726 314 b 611 256 643 275 627 266 b 588 241 603 252 595 247 b 566 226 580 236 573 231 b 485 151 536 204 509 179 b 452 107 473 137 462 123 b 439 83 447 99 443 91 b 433 55 436 74 433 65 b 434 41 433 51 433 46 b 440 28 435 36 437 32 b 463 9 445 19 453 13 b 477 5 467 7 472 6 b 484 5 479 5 482 5 b 491 4 487 4 489 5 b 519 6 501 5 510 5 b 625 34 556 10 591 21 b 675 56 642 40 659 48 b 724 81 692 64 708 72 b 903 205 787 117 846 160 b 1036 322 949 242 993 281 b 1086 319 1052 321 1069 320 b 1099 318 1091 319 1095 318 l 1113 317 b 1139 313 1121 316 1130 315 b 1165 309 1148 312 1157 311 l 1192 305 b 1299 291 1227 300 1263 295 b 1324 289 1308 291 1316 290 b 1309 252 1319 277 1314 264 b 1241 51 1282 186 1259 119 b 1217 -53 1231 17 1223 -18 b 1213 -79 1216 -62 1215 -70 b 1211 -106 1212 -88 1211 -97 b 1209 -139 1210 -117 1209 -128 b 1161 -128 1193 -134 1177 -131 b 1056 -121 1126 -123 1091 -121 b 848 -145 985 -122 916 -131 b 747 -171 814 -152 780 -161 b 647 -197 714 -181 681 -190 b 443 -227 580 -213 512 -222 b 237 -216 374 -230 305 -228 b 138 -189 204 -210 170 -201 b 50 -138 107 -176 76 -160 b 18 -99 37 -127 26 -114 b 2 -52 9 -85 4 -69 b 9 -2 1 -35 3 -18 b 32 43 14 14 22 29 l 32 43 l 32 43 b 32 46 32 44 32 45 b 30 49 32 47 31 48 b 27 49 30 49 28 49 b 25 47 26 49 25 48 b 1 0 15 33 7 17 b -5 -53 -5 -17 -7 -35 b 11 -103 -4 -70 2 -88 b 45 -143 20 -118 32 -132 b 136 -195 72 -166 103 -183 b 236 -223 168 -208 202 -217 b 443 -235 304 -236 374 -238 b 649 -208 513 -232 582 -223 b 750 -184 683 -201 717 -193 b 851 -161 784 -175 817 -167 b 1055 -146 918 -149 987 -144 b 1156 -156 1089 -147 1123 -150 b 1205 -167 1173 -159 1189 -163 b 1211 -169 1207 -168 1209 -169 b 1214 -187 1212 -175 1213 -181 b 1224 -213 1216 -196 1219 -205 b 1242 -235 1228 -222 1234 -230 b 1256 -241 1246 -238 1251 -240 b 1270 -240 1261 -241 1265 -241 b 1283 -236 1274 -239 1279 -238 l 1286 -235 b 1290 -234 1287 -235 1288 -234 b 1296 -231 1292 -233 1294 -232 b 1303 -226 1299 -229 1301 -228 b 1308 -218 1305 -223 1307 -221 b 1308 -198 1310 -211 1310 -204 b 1299 -184 1306 -193 1303 -188 b 1288 -174 1296 -180 1292 -177 b 1264 -159 1280 -168 1272 -163 b 1235 -147 1255 -154 1245 -150 b 1242 -111 1237 -135 1239 -123 b 1255 -62 1245 -94 1250 -78 b 1293 32 1266 -30 1279 1 b 1390 211 1322 93 1356 153 b 1434 284 1405 236 1419 260 b 1515 287 1461 284 1488 285 b 1622 302 1551 289 1587 295 b 1674 319 1640 307 1657 312 b 1698 333 1682 323 1690 328 b 1708 343 1701 336 1705 339 b 1714 356 1711 347 1713 351 b 1712 360 1715 358 1714 359 b 1709 358 1710 360 1709 359 l 1709 357 b 1694 338 1707 350 1701 343 b 1671 326 1687 333 1679 329 b 1620 311 1654 319 1637 314 b 1514 298 1585 304 1550 300 b 1442 297 1490 297 1466 297 b 1496 386 1460 327 1478 357 l 1548 474 b 1602 562 1566 503 1584 532 b 1629 606 1611 576 1620 591 b 1655 651 1638 621 1647 636 b 1706 744 1673 682 1690 713 b 1793 936 1738 807 1768 871 b 1859 1137 1819 1001 1841 1068 b 1865 1162 1861 1145 1863 1154 b 1871 1188 1867 1171 1869 1179 b 1881 1240 1875 1205 1878 1222 b 1888 1292 1884 1257 1886 1275 b 1891 1318 1889 1301 1890 1310 b 1892 1345 1891 1327 1892 1336 l 1892 1345 l 1892 1345 b 1889 1352 1892 1348 1891 1351 z m 876 236 b 794 169 850 213 822 190 b 708 107 766 147 738 126 b 663 79 693 97 678 88 b 616 55 648 71 632 63 b 517 23 584 41 551 29 b 491 20 508 22 499 21 b 484 20 489 20 486 20 b 478 20 482 20 480 20 b 466 21 474 20 470 21 b 445 32 458 22 451 26 b 440 43 443 35 441 39 b 438 55 438 47 438 51 b 446 79 440 64 442 72 b 460 101 450 87 455 94 b 498 138 472 115 484 127 b 540 170 511 150 525 160 b 584 199 554 180 569 190 l 606 214 b 628 227 614 218 621 223 b 674 252 643 236 659 244 b 875 312 738 281 805 302 b 970 322 906 317 938 320 b 876 236 939 293 908 264 z m 1251 -185 b 1271 -196 1258 -188 1265 -192 b 1279 -203 1274 -199 1277 -201 b 1286 -209 1282 -205 1284 -208 b 1291 -215 1288 -211 1290 -213 b 1290 -224 1292 -218 1292 -221 b 1286 -228 1289 -225 1288 -227 b 1284 -230 1285 -229 1285 -229 b 1281 -232 1283 -231 1282 -231 b 1269 -235 1278 -234 1273 -235 b 1248 -228 1262 -236 1254 -233 b 1237 -208 1243 -222 1239 -215 b 1233 -184 1235 -200 1234 -192 b 1233 -177 1233 -182 1233 -179 b 1251 -185 1239 -179 1245 -182 z m 1862 1298 b 1844 1250 1856 1282 1850 1266 b 1835 1226 1841 1242 1838 1234 b 1825 1202 1831 1218 1828 1210 b 1805 1155 1818 1187 1812 1171 b 1784 1109 1798 1140 1791 1124 b 1762 1063 1777 1093 1769 1078 b 1716 971 1747 1032 1732 1001 b 1667 882 1700 941 1684 911 b 1616 794 1651 852 1634 823 l 1590 750 l 1577 729 b 1563 707 1572 721 1568 714 b 1536 664 1554 693 1545 678 l 1508 621 b 1452 532 1489 592 1470 562 b 1399 442 1434 502 1416 472 b 1331 304 1375 397 1352 351 b 1301 308 1321 306 1311 307 b 1195 324 1265 312 1230 318 l 1169 329 b 1142 334 1160 331 1151 332 b 1115 338 1133 335 1124 337 l 1102 340 b 1088 341 1097 340 1093 341 b 1059 344 1078 342 1069 343 b 1064 350 1060 346 1062 348 l 1083 369 l 1102 388 b 1140 427 1115 401 1127 414 l 1177 466 l 1195 485 b 1214 505 1202 492 1207 499 b 1286 585 1238 532 1262 558 l 1357 666 b 1629 1000 1451 775 1541 887 l 1663 1042 l 1695 1085 b 1761 1170 1717 1113 1739 1142 l 1865 1308 b 1862 1298 1864 1305 1863 1301 z "},"Ã":{"ha":1653,"x_min":0,"x_max":0,"o":"m 1889 1352 b 1884 1353 1887 1353 1885 1354 b 1879 1350 1882 1353 1880 1352 b 1815 1264 1858 1321 1837 1292 b 1783 1221 1805 1249 1794 1235 l 1749 1179 b 1613 1013 1704 1123 1659 1068 b 1328 692 1520 904 1425 797 l 1255 613 b 1182 535 1231 587 1206 561 b 1107 458 1157 509 1132 484 b 1070 420 1095 445 1083 432 l 1051 401 l 1032 382 b 997 348 1021 370 1009 359 b 980 348 991 348 986 348 b 871 342 943 348 907 346 b 660 283 798 333 726 314 b 611 256 643 275 627 266 b 588 241 603 252 595 247 b 566 226 580 236 573 231 b 485 151 536 204 509 179 b 452 107 473 137 462 123 b 439 83 447 99 443 91 b 433 55 436 74 433 65 b 434 41 433 51 433 46 b 440 28 435 36 437 32 b 463 9 445 19 453 13 b 477 5 467 7 472 6 b 484 5 479 5 482 5 b 491 4 487 4 489 5 b 519 6 501 5 510 5 b 625 34 556 10 591 21 b 675 56 642 40 659 48 b 724 81 692 64 708 72 b 903 205 787 117 846 160 b 1036 322 949 242 993 281 b 1086 319 1052 321 1069 320 b 1099 318 1091 319 1095 318 l 1113 317 b 1139 313 1121 316 1130 315 b 1165 309 1148 312 1157 311 l 1192 305 b 1299 291 1227 300 1263 295 b 1324 289 1308 291 1316 290 b 1309 252 1319 277 1314 264 b 1241 51 1282 186 1259 119 b 1217 -53 1231 17 1223 -18 b 1213 -79 1216 -62 1215 -70 b 1211 -106 1212 -88 1211 -97 b 1209 -139 1210 -117 1209 -128 b 1161 -128 1193 -134 1177 -131 b 1056 -121 1126 -123 1091 -121 b 848 -145 985 -122 916 -131 b 747 -171 814 -152 780 -161 b 647 -197 714 -181 681 -190 b 443 -227 580 -213 512 -222 b 237 -216 374 -230 305 -228 b 138 -189 204 -210 170 -201 b 50 -138 107 -176 76 -160 b 18 -99 37 -127 26 -114 b 2 -52 9 -85 4 -69 b 9 -2 1 -35 3 -18 b 32 43 14 14 22 29 l 32 43 l 32 43 b 32 46 32 44 32 45 b 30 49 32 47 31 48 b 27 49 30 49 28 49 b 25 47 26 49 25 48 b 1 0 15 33 7 17 b -5 -53 -5 -17 -7 -35 b 11 -103 -4 -70 2 -88 b 45 -143 20 -118 32 -132 b 136 -195 72 -166 103 -183 b 236 -223 168 -208 202 -217 b 443 -235 304 -236 374 -238 b 649 -208 513 -232 582 -223 b 750 -184 683 -201 717 -193 b 851 -161 784 -175 817 -167 b 1055 -146 918 -149 987 -144 b 1156 -156 1089 -147 1123 -150 b 1205 -167 1173 -159 1189 -163 b 1211 -169 1207 -168 1209 -169 b 1214 -187 1212 -175 1213 -181 b 1224 -213 1216 -196 1219 -205 b 1242 -235 1228 -222 1234 -230 b 1256 -241 1246 -238 1251 -240 b 1270 -240 1261 -241 1265 -241 b 1283 -236 1274 -239 1279 -238 l 1286 -235 b 1290 -234 1287 -235 1288 -234 b 1296 -231 1292 -233 1294 -232 b 1303 -226 1299 -229 1301 -228 b 1308 -218 1305 -223 1307 -221 b 1308 -198 1310 -211 1310 -204 b 1299 -184 1306 -193 1303 -188 b 1288 -174 1296 -180 1292 -177 b 1264 -159 1280 -168 1272 -163 b 1235 -147 1255 -154 1245 -150 b 1242 -111 1237 -135 1239 -123 b 1255 -62 1245 -94 1250 -78 b 1293 32 1266 -30 1279 1 b 1390 211 1322 93 1356 153 b 1434 284 1405 236 1419 260 b 1515 287 1461 284 1488 285 b 1622 302 1551 289 1587 295 b 1674 319 1640 307 1657 312 b 1698 333 1682 323 1690 328 b 1708 343 1701 336 1705 339 b 1714 356 1711 347 1713 351 b 1712 360 1715 358 1714 359 b 1709 358 1710 360 1709 359 l 1709 357 b 1694 338 1707 350 1701 343 b 1671 326 1687 333 1679 329 b 1620 311 1654 319 1637 314 b 1514 298 1585 304 1550 300 b 1442 297 1490 297 1466 297 b 1496 386 1460 327 1478 357 l 1548 474 b 1602 562 1566 503 1584 532 b 1629 606 1611 576 1620 591 b 1655 651 1638 621 1647 636 b 1706 744 1673 682 1690 713 b 1793 936 1738 807 1768 871 b 1859 1137 1819 1001 1841 1068 b 1865 1162 1861 1145 1863 1154 b 1871 1188 1867 1171 1869 1179 b 1881 1240 1875 1205 1878 1222 b 1888 1292 1884 1257 1886 1275 b 1891 1318 1889 1301 1890 1310 b 1892 1345 1891 1327 1892 1336 l 1892 1345 l 1892 1345 b 1889 1352 1892 1348 1891 1351 z m 876 236 b 794 169 850 213 822 190 b 708 107 766 147 738 126 b 663 79 693 97 678 88 b 616 55 648 71 632 63 b 517 23 584 41 551 29 b 491 20 508 22 499 21 b 484 20 489 20 486 20 b 478 20 482 20 480 20 b 466 21 474 20 470 21 b 445 32 458 22 451 26 b 440 43 443 35 441 39 b 438 55 438 47 438 51 b 446 79 440 64 442 72 b 460 101 450 87 455 94 b 498 138 472 115 484 127 b 540 170 511 150 525 160 b 584 199 554 180 569 190 l 606 214 b 628 227 614 218 621 223 b 674 252 643 236 659 244 b 875 312 738 281 805 302 b 970 322 906 317 938 320 b 876 236 939 293 908 264 z m 1251 -185 b 1271 -196 1258 -188 1265 -192 b 1279 -203 1274 -199 1277 -201 b 1286 -209 1282 -205 1284 -208 b 1291 -215 1288 -211 1290 -213 b 1290 -224 1292 -218 1292 -221 b 1286 -228 1289 -225 1288 -227 b 1284 -230 1285 -229 1285 -229 b 1281 -232 1283 -231 1282 -231 b 1269 -235 1278 -234 1273 -235 b 1248 -228 1262 -236 1254 -233 b 1237 -208 1243 -222 1239 -215 b 1233 -184 1235 -200 1234 -192 b 1233 -177 1233 -182 1233 -179 b 1251 -185 1239 -179 1245 -182 z m 1862 1298 b 1844 1250 1856 1282 1850 1266 b 1835 1226 1841 1242 1838 1234 b 1825 1202 1831 1218 1828 1210 b 1805 1155 1818 1187 1812 1171 b 1784 1109 1798 1140 1791 1124 b 1762 1063 1777 1093 1769 1078 b 1716 971 1747 1032 1732 1001 b 1667 882 1700 941 1684 911 b 1616 794 1651 852 1634 823 l 1590 750 l 1577 729 b 1563 707 1572 721 1568 714 b 1536 664 1554 693 1545 678 l 1508 621 b 1452 532 1489 592 1470 562 b 1399 442 1434 502 1416 472 b 1331 304 1375 397 1352 351 b 1301 308 1321 306 1311 307 b 1195 324 1265 312 1230 318 l 1169 329 b 1142 334 1160 331 1151 332 b 1115 338 1133 335 1124 337 l 1102 340 b 1088 341 1097 340 1093 341 b 1059 344 1078 342 1069 343 b 1064 350 1060 346 1062 348 l 1083 369 l 1102 388 b 1140 427 1115 401 1127 414 l 1177 466 l 1195 485 b 1214 505 1202 492 1207 499 b 1286 585 1238 532 1262 558 l 1357 666 b 1629 1000 1451 775 1541 887 l 1663 1042 l 1695 1085 b 1761 1170 1717 1113 1739 1142 l 1865 1308 b 1862 1298 1864 1305 1863 1301 z "},"Ä":{"ha":1653,"x_min":0,"x_max":0,"o":"m 1889 1352 b 1884 1353 1887 1353 1885 1354 b 1879 1350 1882 1353 1880 1352 b 1815 1264 1858 1321 1837 1292 b 1783 1221 1805 1249 1794 1235 l 1749 1179 b 1613 1013 1704 1123 1659 1068 b 1328 692 1520 904 1425 797 l 1255 613 b 1182 535 1231 587 1206 561 b 1107 458 1157 509 1132 484 b 1070 420 1095 445 1083 432 l 1051 401 l 1032 382 b 997 348 1021 370 1009 359 b 980 348 991 348 986 348 b 871 342 943 348 907 346 b 660 283 798 333 726 314 b 611 256 643 275 627 266 b 588 241 603 252 595 247 b 566 226 580 236 573 231 b 485 151 536 204 509 179 b 452 107 473 137 462 123 b 439 83 447 99 443 91 b 433 55 436 74 433 65 b 434 41 433 51 433 46 b 440 28 435 36 437 32 b 463 9 445 19 453 13 b 477 5 467 7 472 6 b 484 5 479 5 482 5 b 491 4 487 4 489 5 b 519 6 501 5 510 5 b 625 34 556 10 591 21 b 675 56 642 40 659 48 b 724 81 692 64 708 72 b 903 205 787 117 846 160 b 1036 322 949 242 993 281 b 1086 319 1052 321 1069 320 b 1099 318 1091 319 1095 318 l 1113 317 b 1139 313 1121 316 1130 315 b 1165 309 1148 312 1157 311 l 1192 305 b 1299 291 1227 300 1263 295 b 1324 289 1308 291 1316 290 b 1309 252 1319 277 1314 264 b 1241 51 1282 186 1259 119 b 1217 -53 1231 17 1223 -18 b 1213 -79 1216 -62 1215 -70 b 1211 -106 1212 -88 1211 -97 b 1209 -139 1210 -117 1209 -128 b 1161 -128 1193 -134 1177 -131 b 1056 -121 1126 -123 1091 -121 b 848 -145 985 -122 916 -131 b 747 -171 814 -152 780 -161 b 647 -197 714 -181 681 -190 b 443 -227 580 -213 512 -222 b 237 -216 374 -230 305 -228 b 138 -189 204 -210 170 -201 b 50 -138 107 -176 76 -160 b 18 -99 37 -127 26 -114 b 2 -52 9 -85 4 -69 b 9 -2 1 -35 3 -18 b 32 43 14 14 22 29 l 32 43 l 32 43 b 32 46 32 44 32 45 b 30 49 32 47 31 48 b 27 49 30 49 28 49 b 25 47 26 49 25 48 b 1 0 15 33 7 17 b -5 -53 -5 -17 -7 -35 b 11 -103 -4 -70 2 -88 b 45 -143 20 -118 32 -132 b 136 -195 72 -166 103 -183 b 236 -223 168 -208 202 -217 b 443 -235 304 -236 374 -238 b 649 -208 513 -232 582 -223 b 750 -184 683 -201 717 -193 b 851 -161 784 -175 817 -167 b 1055 -146 918 -149 987 -144 b 1156 -156 1089 -147 1123 -150 b 1205 -167 1173 -159 1189 -163 b 1211 -169 1207 -168 1209 -169 b 1214 -187 1212 -175 1213 -181 b 1224 -213 1216 -196 1219 -205 b 1242 -235 1228 -222 1234 -230 b 1256 -241 1246 -238 1251 -240 b 1270 -240 1261 -241 1265 -241 b 1283 -236 1274 -239 1279 -238 l 1286 -235 b 1290 -234 1287 -235 1288 -234 b 1296 -231 1292 -233 1294 -232 b 1303 -226 1299 -229 1301 -228 b 1308 -218 1305 -223 1307 -221 b 1308 -198 1310 -211 1310 -204 b 1299 -184 1306 -193 1303 -188 b 1288 -174 1296 -180 1292 -177 b 1264 -159 1280 -168 1272 -163 b 1235 -147 1255 -154 1245 -150 b 1242 -111 1237 -135 1239 -123 b 1255 -62 1245 -94 1250 -78 b 1293 32 1266 -30 1279 1 b 1390 211 1322 93 1356 153 b 1434 284 1405 236 1419 260 b 1515 287 1461 284 1488 285 b 1622 302 1551 289 1587 295 b 1674 319 1640 307 1657 312 b 1698 333 1682 323 1690 328 b 1708 343 1701 336 1705 339 b 1714 356 1711 347 1713 351 b 1712 360 1715 358 1714 359 b 1709 358 1710 360 1709 359 l 1709 357 b 1694 338 1707 350 1701 343 b 1671 326 1687 333 1679 329 b 1620 311 1654 319 1637 314 b 1514 298 1585 304 1550 300 b 1442 297 1490 297 1466 297 b 1496 386 1460 327 1478 357 l 1548 474 b 1602 562 1566 503 1584 532 b 1629 606 1611 576 1620 591 b 1655 651 1638 621 1647 636 b 1706 744 1673 682 1690 713 b 1793 936 1738 807 1768 871 b 1859 1137 1819 1001 1841 1068 b 1865 1162 1861 1145 1863 1154 b 1871 1188 1867 1171 1869 1179 b 1881 1240 1875 1205 1878 1222 b 1888 1292 1884 1257 1886 1275 b 1891 1318 1889 1301 1890 1310 b 1892 1345 1891 1327 1892 1336 l 1892 1345 l 1892 1345 b 1889 1352 1892 1348 1891 1351 z m 876 236 b 794 169 850 213 822 190 b 708 107 766 147 738 126 b 663 79 693 97 678 88 b 616 55 648 71 632 63 b 517 23 584 41 551 29 b 491 20 508 22 499 21 b 484 20 489 20 486 20 b 478 20 482 20 480 20 b 466 21 474 20 470 21 b 445 32 458 22 451 26 b 440 43 443 35 441 39 b 438 55 438 47 438 51 b 446 79 440 64 442 72 b 460 101 450 87 455 94 b 498 138 472 115 484 127 b 540 170 511 150 525 160 b 584 199 554 180 569 190 l 606 214 b 628 227 614 218 621 223 b 674 252 643 236 659 244 b 875 312 738 281 805 302 b 970 322 906 317 938 320 b 876 236 939 293 908 264 z m 1251 -185 b 1271 -196 1258 -188 1265 -192 b 1279 -203 1274 -199 1277 -201 b 1286 -209 1282 -205 1284 -208 b 1291 -215 1288 -211 1290 -213 b 1290 -224 1292 -218 1292 -221 b 1286 -228 1289 -225 1288 -227 b 1284 -230 1285 -229 1285 -229 b 1281 -232 1283 -231 1282 -231 b 1269 -235 1278 -234 1273 -235 b 1248 -228 1262 -236 1254 -233 b 1237 -208 1243 -222 1239 -215 b 1233 -184 1235 -200 1234 -192 b 1233 -177 1233 -182 1233 -179 b 1251 -185 1239 -179 1245 -182 z m 1862 1298 b 1844 1250 1856 1282 1850 1266 b 1835 1226 1841 1242 1838 1234 b 1825 1202 1831 1218 1828 1210 b 1805 1155 1818 1187 1812 1171 b 1784 1109 1798 1140 1791 1124 b 1762 1063 1777 1093 1769 1078 b 1716 971 1747 1032 1732 1001 b 1667 882 1700 941 1684 911 b 1616 794 1651 852 1634 823 l 1590 750 l 1577 729 b 1563 707 1572 721 1568 714 b 1536 664 1554 693 1545 678 l 1508 621 b 1452 532 1489 592 1470 562 b 1399 442 1434 502 1416 472 b 1331 304 1375 397 1352 351 b 1301 308 1321 306 1311 307 b 1195 324 1265 312 1230 318 l 1169 329 b 1142 334 1160 331 1151 332 b 1115 338 1133 335 1124 337 l 1102 340 b 1088 341 1097 340 1093 341 b 1059 344 1078 342 1069 343 b 1064 350 1060 346 1062 348 l 1083 369 l 1102 388 b 1140 427 1115 401 1127 414 l 1177 466 l 1195 485 b 1214 505 1202 492 1207 499 b 1286 585 1238 532 1262 558 l 1357 666 b 1629 1000 1451 775 1541 887 l 1663 1042 l 1695 1085 b 1761 1170 1717 1113 1739 1142 l 1865 1308 b 1862 1298 1864 1305 1863 1301 z "},"Å":{"ha":1653,"x_min":0,"x_max":0,"o":"m 1889 1352 b 1884 1353 1887 1353 1885 1354 b 1879 1350 1882 1353 1880 1352 b 1815 1264 1858 1321 1837 1292 b 1783 1221 1805 1249 1794 1235 l 1749 1179 b 1613 1013 1704 1123 1659 1068 b 1328 692 1520 904 1425 797 l 1255 613 b 1182 535 1231 587 1206 561 b 1107 458 1157 509 1132 484 b 1070 420 1095 445 1083 432 l 1051 401 l 1032 382 b 997 348 1021 370 1009 359 b 980 348 991 348 986 348 b 871 342 943 348 907 346 b 660 283 798 333 726 314 b 611 256 643 275 627 266 b 588 241 603 252 595 247 b 566 226 580 236 573 231 b 485 151 536 204 509 179 b 452 107 473 137 462 123 b 439 83 447 99 443 91 b 433 55 436 74 433 65 b 434 41 433 51 433 46 b 440 28 435 36 437 32 b 463 9 445 19 453 13 b 477 5 467 7 472 6 b 484 5 479 5 482 5 b 491 4 487 4 489 5 b 519 6 501 5 510 5 b 625 34 556 10 591 21 b 675 56 642 40 659 48 b 724 81 692 64 708 72 b 903 205 787 117 846 160 b 1036 322 949 242 993 281 b 1086 319 1052 321 1069 320 b 1099 318 1091 319 1095 318 l 1113 317 b 1139 313 1121 316 1130 315 b 1165 309 1148 312 1157 311 l 1192 305 b 1299 291 1227 300 1263 295 b 1324 289 1308 291 1316 290 b 1309 252 1319 277 1314 264 b 1241 51 1282 186 1259 119 b 1217 -53 1231 17 1223 -18 b 1213 -79 1216 -62 1215 -70 b 1211 -106 1212 -88 1211 -97 b 1209 -139 1210 -117 1209 -128 b 1161 -128 1193 -134 1177 -131 b 1056 -121 1126 -123 1091 -121 b 848 -145 985 -122 916 -131 b 747 -171 814 -152 780 -161 b 647 -197 714 -181 681 -190 b 443 -227 580 -213 512 -222 b 237 -216 374 -230 305 -228 b 138 -189 204 -210 170 -201 b 50 -138 107 -176 76 -160 b 18 -99 37 -127 26 -114 b 2 -52 9 -85 4 -69 b 9 -2 1 -35 3 -18 b 32 43 14 14 22 29 l 32 43 l 32 43 b 32 46 32 44 32 45 b 30 49 32 47 31 48 b 27 49 30 49 28 49 b 25 47 26 49 25 48 b 1 0 15 33 7 17 b -5 -53 -5 -17 -7 -35 b 11 -103 -4 -70 2 -88 b 45 -143 20 -118 32 -132 b 136 -195 72 -166 103 -183 b 236 -223 168 -208 202 -217 b 443 -235 304 -236 374 -238 b 649 -208 513 -232 582 -223 b 750 -184 683 -201 717 -193 b 851 -161 784 -175 817 -167 b 1055 -146 918 -149 987 -144 b 1156 -156 1089 -147 1123 -150 b 1205 -167 1173 -159 1189 -163 b 1211 -169 1207 -168 1209 -169 b 1214 -187 1212 -175 1213 -181 b 1224 -213 1216 -196 1219 -205 b 1242 -235 1228 -222 1234 -230 b 1256 -241 1246 -238 1251 -240 b 1270 -240 1261 -241 1265 -241 b 1283 -236 1274 -239 1279 -238 l 1286 -235 b 1290 -234 1287 -235 1288 -234 b 1296 -231 1292 -233 1294 -232 b 1303 -226 1299 -229 1301 -228 b 1308 -218 1305 -223 1307 -221 b 1308 -198 1310 -211 1310 -204 b 1299 -184 1306 -193 1303 -188 b 1288 -174 1296 -180 1292 -177 b 1264 -159 1280 -168 1272 -163 b 1235 -147 1255 -154 1245 -150 b 1242 -111 1237 -135 1239 -123 b 1255 -62 1245 -94 1250 -78 b 1293 32 1266 -30 1279 1 b 1390 211 1322 93 1356 153 b 1434 284 1405 236 1419 260 b 1515 287 1461 284 1488 285 b 1622 302 1551 289 1587 295 b 1674 319 1640 307 1657 312 b 1698 333 1682 323 1690 328 b 1708 343 1701 336 1705 339 b 1714 356 1711 347 1713 351 b 1712 360 1715 358 1714 359 b 1709 358 1710 360 1709 359 l 1709 357 b 1694 338 1707 350 1701 343 b 1671 326 1687 333 1679 329 b 1620 311 1654 319 1637 314 b 1514 298 1585 304 1550 300 b 1442 297 1490 297 1466 297 b 1496 386 1460 327 1478 357 l 1548 474 b 1602 562 1566 503 1584 532 b 1629 606 1611 576 1620 591 b 1655 651 1638 621 1647 636 b 1706 744 1673 682 1690 713 b 1793 936 1738 807 1768 871 b 1859 1137 1819 1001 1841 1068 b 1865 1162 1861 1145 1863 1154 b 1871 1188 1867 1171 1869 1179 b 1881 1240 1875 1205 1878 1222 b 1888 1292 1884 1257 1886 1275 b 1891 1318 1889 1301 1890 1310 b 1892 1345 1891 1327 1892 1336 l 1892 1345 l 1892 1345 b 1889 1352 1892 1348 1891 1351 z m 876 236 b 794 169 850 213 822 190 b 708 107 766 147 738 126 b 663 79 693 97 678 88 b 616 55 648 71 632 63 b 517 23 584 41 551 29 b 491 20 508 22 499 21 b 484 20 489 20 486 20 b 478 20 482 20 480 20 b 466 21 474 20 470 21 b 445 32 458 22 451 26 b 440 43 443 35 441 39 b 438 55 438 47 438 51 b 446 79 440 64 442 72 b 460 101 450 87 455 94 b 498 138 472 115 484 127 b 540 170 511 150 525 160 b 584 199 554 180 569 190 l 606 214 b 628 227 614 218 621 223 b 674 252 643 236 659 244 b 875 312 738 281 805 302 b 970 322 906 317 938 320 b 876 236 939 293 908 264 z m 1251 -185 b 1271 -196 1258 -188 1265 -192 b 1279 -203 1274 -199 1277 -201 b 1286 -209 1282 -205 1284 -208 b 1291 -215 1288 -211 1290 -213 b 1290 -224 1292 -218 1292 -221 b 1286 -228 1289 -225 1288 -227 b 1284 -230 1285 -229 1285 -229 b 1281 -232 1283 -231 1282 -231 b 1269 -235 1278 -234 1273 -235 b 1248 -228 1262 -236 1254 -233 b 1237 -208 1243 -222 1239 -215 b 1233 -184 1235 -200 1234 -192 b 1233 -177 1233 -182 1233 -179 b 1251 -185 1239 -179 1245 -182 z m 1862 1298 b 1844 1250 1856 1282 1850 1266 b 1835 1226 1841 1242 1838 1234 b 1825 1202 1831 1218 1828 1210 b 1805 1155 1818 1187 1812 1171 b 1784 1109 1798 1140 1791 1124 b 1762 1063 1777 1093 1769 1078 b 1716 971 1747 1032 1732 1001 b 1667 882 1700 941 1684 911 b 1616 794 1651 852 1634 823 l 1590 750 l 1577 729 b 1563 707 1572 721 1568 714 b 1536 664 1554 693 1545 678 l 1508 621 b 1452 532 1489 592 1470 562 b 1399 442 1434 502 1416 472 b 1331 304 1375 397 1352 351 b 1301 308 1321 306 1311 307 b 1195 324 1265 312 1230 318 l 1169 329 b 1142 334 1160 331 1151 332 b 1115 338 1133 335 1124 337 l 1102 340 b 1088 341 1097 340 1093 341 b 1059 344 1078 342 1069 343 b 1064 350 1060 346 1062 348 l 1083 369 l 1102 388 b 1140 427 1115 401 1127 414 l 1177 466 l 1195 485 b 1214 505 1202 492 1207 499 b 1286 585 1238 532 1262 558 l 1357 666 b 1629 1000 1451 775 1541 887 l 1663 1042 l 1695 1085 b 1761 1170 1717 1113 1739 1142 l 1865 1308 b 1862 1298 1864 1305 1863 1301 z "},"B":{"ha":1899,"x_min":0,"x_max":0,"o":"m 1910 1027 b 1908 1047 1910 1034 1909 1040 b 1907 1056 1908 1050 1908 1053 b 1905 1066 1906 1059 1906 1063 b 1892 1102 1902 1078 1897 1091 b 1871 1134 1886 1113 1879 1124 b 1846 1161 1864 1144 1856 1153 b 1789 1199 1829 1177 1810 1189 b 1758 1211 1779 1204 1769 1208 b 1742 1216 1753 1213 1748 1215 b 1726 1219 1737 1217 1731 1218 b 1692 1219 1715 1221 1704 1221 b 1661 1205 1681 1217 1670 1212 b 1642 1176 1652 1197 1645 1188 b 1639 1144 1639 1166 1638 1155 b 1642 1141 1639 1142 1641 1141 b 1645 1144 1644 1141 1645 1142 l 1645 1144 b 1651 1173 1645 1154 1647 1164 b 1669 1194 1655 1182 1661 1189 b 1695 1204 1677 1199 1686 1203 b 1724 1205 1705 1206 1714 1206 b 1779 1182 1744 1203 1763 1195 b 1814 1136 1794 1170 1806 1154 b 1822 1110 1818 1128 1820 1119 b 1824 1083 1824 1101 1824 1092 b 1818 1033 1824 1067 1822 1050 b 1812 1009 1816 1025 1814 1017 b 1809 997 1811 1005 1810 1001 b 1805 984 1808 993 1806 989 b 1786 931 1799 966 1793 948 b 1763 881 1779 914 1771 897 b 1732 833 1754 864 1744 848 b 1643 757 1708 802 1678 776 b 1615 745 1634 753 1624 748 b 1586 735 1605 741 1596 737 b 1539 725 1570 730 1555 727 b 1533 726 1537 725 1535 725 b 1460 730 1508 728 1484 730 l 1470 758 l 1481 789 l 1503 851 b 1548 973 1517 892 1532 932 b 1596 1094 1563 1014 1579 1054 b 1652 1211 1613 1134 1631 1173 b 1680 1260 1661 1228 1670 1244 b 1704 1262 1688 1261 1696 1262 b 1737 1268 1715 1264 1726 1265 b 1754 1273 1743 1269 1748 1271 b 1770 1279 1759 1275 1765 1277 b 1800 1297 1780 1284 1790 1290 b 1825 1322 1809 1304 1818 1312 b 1840 1356 1833 1332 1838 1343 b 1839 1376 1841 1362 1841 1369 b 1826 1394 1837 1383 1832 1389 b 1816 1399 1823 1396 1820 1398 b 1806 1401 1813 1400 1809 1400 b 1786 1399 1799 1401 1793 1400 b 1752 1385 1774 1396 1763 1391 b 1696 1344 1732 1374 1713 1360 b 1623 1268 1670 1321 1645 1295 b 1504 1254 1583 1264 1544 1260 b 1303 1214 1436 1246 1369 1232 b 1273 1241 1294 1224 1284 1233 b 1211 1271 1254 1254 1233 1264 b 1144 1281 1189 1278 1167 1281 b 1077 1275 1121 1281 1099 1279 b 949 1233 1032 1268 989 1254 b 891 1200 929 1224 910 1212 b 838 1159 872 1187 854 1174 b 747 1060 804 1130 774 1096 b 681 944 721 1024 699 985 b 636 818 663 903 648 861 b 622 752 631 796 626 774 b 612 686 617 731 614 708 b 626 552 609 641 614 596 b 628 547 626 550 627 549 b 634 489 627 527 629 508 b 658 432 639 469 647 450 b 697 385 668 415 681 399 b 803 327 727 357 764 339 b 862 313 822 321 842 316 b 892 309 872 311 882 310 b 922 307 902 308 912 307 b 929 314 926 307 929 310 b 923 321 930 318 927 321 l 923 321 b 891 325 912 322 901 324 b 883 327 888 326 885 326 b 875 329 881 328 878 328 b 860 334 870 331 865 332 b 800 361 839 341 819 350 b 700 443 762 382 728 409 b 642 549 674 474 654 510 b 723 695 645 608 675 661 b 775 718 738 706 756 713 b 828 719 792 722 811 722 b 828 711 828 716 828 713 b 835 642 828 688 830 665 b 860 578 840 620 848 598 b 905 526 871 558 887 540 b 934 508 914 519 923 513 b 965 496 944 503 954 499 b 985 491 972 494 978 493 b 988 435 987 473 988 454 b 976 318 988 396 984 357 b 930 173 967 268 951 219 b 883 196 915 181 899 188 b 822 221 863 205 843 214 b 625 256 759 244 692 256 b 559 248 603 255 581 253 b 497 218 537 242 515 234 b 474 189 488 210 480 200 b 467 173 471 184 469 178 b 465 168 466 171 466 170 b 464 164 465 167 465 165 b 463 154 464 160 463 157 b 472 116 463 141 466 128 b 495 87 478 105 486 95 b 553 48 512 71 531 58 b 616 23 573 38 594 30 b 681 6 637 16 659 10 b 749 -4 704 1 726 -2 b 783 -5 760 -5 772 -5 b 814 -5 793 -5 803 -5 b 737 -78 790 -31 764 -56 b 638 -142 706 -102 673 -124 b 528 -185 603 -161 567 -175 b 412 -200 490 -194 451 -202 b 357 -193 394 -199 375 -197 b 298 -174 336 -189 317 -182 b 71 66 129 -90 79 48 b 43 179 56 102 50 140 b 48 414 28 256 34 336 b 245 820 78 569 146 714 b 424 970 299 877 354 934 b 535 1011 459 989 497 1002 b 593 1018 554 1015 574 1018 b 651 1010 613 1018 632 1016 l 651 1010 b 655 1011 652 1010 654 1010 b 656 1015 656 1012 657 1014 b 653 1019 656 1017 655 1018 b 593 1026 634 1024 613 1027 b 533 1020 573 1026 553 1024 b 420 978 494 1011 456 997 b 230 835 349 942 285 892 b 10 416 118 720 40 573 b 6 177 -6 337 -8 256 b 41 62 13 137 25 98 b 69 8 49 43 58 25 b 102 -42 79 -9 90 -26 b 294 -185 152 -106 218 -156 b 352 -202 312 -192 332 -198 b 412 -209 371 -206 391 -209 b 531 -197 452 -211 492 -207 b 644 -153 570 -187 608 -172 b 745 -88 680 -135 713 -113 b 832 -4 776 -63 805 -35 b 885 2 850 -4 868 -1 b 1015 53 931 11 975 28 b 1072 93 1035 65 1054 79 b 1118 71 1087 86 1103 78 b 1179 45 1138 62 1158 53 b 1242 23 1200 36 1221 29 b 1307 7 1264 16 1285 11 b 1375 2 1330 4 1352 2 b 1443 5 1397 1 1420 3 b 1476 10 1454 6 1465 8 b 1510 17 1488 12 1499 15 b 1576 40 1533 23 1555 31 b 1639 74 1598 49 1619 61 b 1744 173 1680 100 1715 134 b 1807 305 1772 213 1794 258 b 1820 377 1813 329 1818 353 b 1822 450 1823 402 1823 426 b 1809 524 1820 475 1816 500 b 1795 560 1805 536 1800 548 b 1754 624 1785 583 1771 605 b 1727 651 1746 633 1737 642 b 1666 690 1709 666 1688 680 b 1600 714 1645 700 1623 708 b 1581 718 1594 715 1587 717 b 1589 719 1583 718 1586 719 b 1653 731 1611 722 1632 726 b 1716 753 1674 737 1696 744 b 1747 768 1726 757 1737 762 b 1776 786 1757 773 1767 779 b 1870 890 1815 813 1847 849 b 1898 954 1882 910 1891 932 b 1904 971 1900 959 1902 965 b 1908 990 1905 977 1907 983 b 1910 1027 1910 1002 1911 1015 z m 1498 721 b 1462 721 1486 720 1474 720 b 1456 721 1460 721 1458 721 b 1458 725 1457 722 1457 724 b 1466 725 1461 725 1463 725 b 1498 721 1477 724 1487 723 z m 1766 1363 b 1792 1378 1774 1370 1783 1375 b 1805 1381 1796 1380 1801 1381 b 1817 1379 1809 1382 1813 1381 b 1822 1371 1820 1377 1822 1374 b 1823 1358 1824 1367 1824 1362 b 1811 1332 1821 1349 1817 1339 b 1763 1293 1799 1315 1782 1303 b 1748 1287 1758 1291 1753 1289 b 1734 1282 1744 1285 1739 1283 b 1702 1276 1723 1280 1712 1278 b 1689 1274 1698 1275 1693 1275 b 1722 1319 1699 1290 1710 1305 b 1766 1363 1735 1336 1750 1350 z m 987 555 b 934 664 977 594 960 632 b 890 706 922 680 907 694 b 856 725 879 714 868 720 b 865 772 858 741 861 757 b 884 833 870 793 876 814 b 945 946 900 873 920 911 b 1031 1042 969 982 998 1014 b 1250 1181 1096 1098 1169 1147 b 1298 1200 1266 1188 1282 1194 b 1310 1185 1302 1195 1306 1190 b 1340 1128 1323 1167 1333 1148 b 1356 1065 1347 1108 1353 1087 b 1357 935 1362 1022 1363 978 b 1347 870 1355 913 1352 891 b 1330 806 1342 849 1337 827 b 1280 685 1317 764 1301 724 b 1203 578 1259 646 1234 610 b 1154 535 1188 562 1172 548 b 1096 505 1136 523 1116 513 b 999 495 1065 494 1032 490 b 998 495 999 495 998 495 b 987 555 996 515 992 535 z m 794 348 b 815 338 801 345 807 341 b 807 340 812 338 810 339 b 706 395 770 352 735 369 b 670 439 692 408 679 423 b 647 492 660 456 652 474 b 645 503 646 496 646 499 b 689 434 657 478 672 455 b 794 348 719 399 754 370 z m 772 731 b 715 706 751 726 732 718 b 640 610 681 683 655 649 b 633 584 637 602 635 593 b 626 685 626 617 624 651 b 635 750 628 707 631 728 b 650 814 639 771 644 793 b 694 938 661 856 676 898 b 759 1052 711 978 733 1016 b 847 1148 784 1087 814 1120 b 899 1188 863 1163 881 1176 b 955 1221 917 1200 936 1211 b 1079 1262 994 1240 1036 1254 b 1144 1267 1100 1265 1122 1267 b 1207 1258 1165 1267 1187 1264 b 1265 1230 1228 1251 1247 1242 b 1288 1210 1273 1224 1281 1217 b 1244 1196 1274 1206 1259 1201 b 1121 1143 1202 1182 1161 1164 b 1063 1108 1101 1132 1082 1120 b 1049 1098 1058 1105 1054 1101 b 1035 1088 1044 1095 1040 1091 b 1022 1078 1031 1085 1026 1081 b 1009 1067 1018 1074 1013 1070 b 917 966 974 1037 944 1003 b 853 845 891 928 869 888 b 848 829 851 840 850 834 b 843 812 846 823 845 818 b 835 779 840 801 837 790 b 830 745 833 768 831 756 b 829 732 830 741 829 736 b 772 731 810 736 790 735 z m 967 503 b 938 516 957 506 947 510 b 911 534 928 521 919 527 b 890 558 903 541 896 549 b 873 585 883 566 878 575 b 856 646 864 604 858 625 b 854 709 853 667 852 688 b 854 711 854 710 854 710 b 882 695 864 707 874 701 b 924 656 898 684 912 671 b 974 551 948 625 964 589 b 984 498 979 534 982 516 b 967 503 979 499 973 501 z m 989 315 b 1001 435 997 355 1001 395 b 999 489 1002 453 1001 471 b 1032 488 1010 488 1021 487 b 1097 500 1054 488 1076 493 b 1157 531 1118 508 1138 518 b 1208 574 1175 544 1192 558 b 1288 681 1240 605 1266 642 b 1342 803 1310 719 1328 760 b 1360 867 1349 824 1355 845 b 1371 933 1365 889 1369 911 b 1369 1067 1376 978 1376 1023 b 1353 1133 1366 1090 1361 1112 b 1321 1193 1345 1154 1334 1175 b 1312 1205 1318 1197 1315 1201 b 1343 1215 1322 1209 1333 1212 b 1375 1223 1354 1218 1364 1221 b 1505 1246 1418 1234 1461 1241 b 1614 1256 1541 1251 1577 1253 b 1603 1243 1610 1252 1607 1247 b 1526 1131 1576 1207 1550 1170 b 1491 1072 1514 1112 1502 1092 b 1459 1013 1480 1053 1469 1033 b 1401 890 1438 973 1419 932 b 1376 828 1393 870 1384 849 b 1364 796 1372 817 1368 807 l 1353 765 b 1307 643 1338 724 1323 683 b 1259 522 1292 602 1275 562 b 1206 403 1242 482 1225 442 b 1178 346 1197 384 1187 365 b 1147 289 1168 326 1157 308 b 1076 183 1126 252 1102 216 b 1024 124 1060 162 1043 142 b 1002 136 1017 128 1009 132 b 942 167 982 146 962 157 b 989 315 963 214 979 264 z m 815 24 b 782 22 804 23 793 22 b 750 22 772 21 761 21 b 686 31 729 24 707 26 b 623 46 665 35 644 40 b 563 70 603 53 583 61 b 511 104 544 79 527 90 b 493 127 504 111 498 119 b 486 153 488 135 486 144 b 487 160 486 155 487 157 b 488 167 487 162 488 165 b 492 181 489 172 490 177 b 507 207 495 191 501 199 b 532 226 514 215 523 221 b 561 239 541 232 551 236 b 626 249 582 245 604 248 b 658 248 637 249 647 249 b 691 245 669 247 680 246 b 756 232 713 242 735 238 b 880 189 799 222 840 207 b 927 167 896 182 912 174 b 891 99 917 143 905 121 b 841 28 876 74 860 50 b 815 24 833 26 824 25 z m 963 75 b 936 59 954 69 945 64 b 907 46 926 54 917 49 b 877 36 897 42 887 38 b 861 31 872 34 866 33 b 902 92 876 51 890 71 b 939 161 916 114 928 137 b 999 130 959 151 979 140 b 1019 120 1006 127 1013 123 b 988 93 1009 110 999 101 b 963 75 980 86 971 80 z m 1645 657 b 1686 612 1661 644 1674 629 b 1700 587 1691 604 1696 596 b 1703 580 1701 585 1702 583 b 1706 574 1704 578 1705 576 b 1708 567 1707 572 1707 569 l 1711 560 b 1726 447 1722 524 1726 486 b 1722 387 1725 427 1724 407 b 1713 329 1720 368 1717 348 b 1673 217 1705 290 1691 253 b 1659 191 1669 209 1664 200 b 1642 166 1653 183 1648 174 b 1602 120 1630 150 1617 134 b 1499 50 1572 91 1537 67 b 1374 19 1459 33 1417 22 b 1245 32 1331 16 1287 21 b 1182 51 1223 37 1202 44 b 1120 76 1161 59 1141 67 b 1077 97 1106 83 1091 90 b 1124 140 1093 111 1109 125 b 1171 191 1140 157 1156 174 b 1214 245 1186 209 1200 227 b 1253 301 1227 263 1240 282 b 1272 330 1259 311 1265 320 b 1289 359 1277 339 1284 349 b 1410 601 1336 437 1375 518 b 1455 716 1426 639 1441 678 b 1525 714 1478 714 1502 714 b 1530 714 1527 714 1529 714 b 1531 714 1530 714 1531 714 b 1645 657 1573 703 1614 684 z "},"C":{"ha":1346,"x_min":0,"x_max":0,"o":"m 1542 1268 b 1522 1299 1537 1280 1530 1290 b 1494 1320 1514 1307 1504 1314 b 1462 1334 1484 1325 1473 1330 b 1395 1348 1440 1341 1418 1346 b 1362 1350 1384 1349 1373 1350 b 1328 1351 1350 1351 1339 1351 b 1261 1347 1306 1351 1283 1349 b 1128 1324 1216 1343 1172 1335 b 875 1225 1040 1302 955 1269 b 816 1190 855 1214 836 1202 l 802 1181 l 795 1176 l 788 1171 l 774 1161 l 760 1151 l 753 1146 l 746 1141 l 732 1130 l 719 1119 b 706 1108 714 1116 710 1112 b 655 1063 688 1093 671 1078 b 542 942 615 1025 577 985 b 535 940 540 941 538 940 l 520 934 l 504 927 b 386 868 464 910 424 890 b 329 833 366 856 347 845 b 274 794 310 820 292 808 b 221 753 256 781 238 767 b 209 742 217 749 213 746 b 196 731 204 738 200 735 l 184 720 b 172 708 180 716 176 712 b 89 600 141 675 113 639 b 31 478 66 562 46 521 b -1 346 15 435 5 391 b -1 210 -7 301 -7 255 b 37 78 5 164 18 120 b 113 -35 57 37 82 -1 b 218 -121 144 -68 179 -97 b 339 -179 256 -145 296 -164 b 468 -212 381 -194 424 -205 b 734 -218 556 -226 646 -226 b 996 -177 822 -210 910 -195 b 1256 -122 1083 -160 1169 -139 b 1321 -112 1277 -118 1299 -115 b 1386 -105 1343 -108 1365 -106 b 1452 -108 1408 -104 1430 -104 b 1483 -116 1463 -109 1473 -112 b 1506 -129 1492 -120 1499 -124 b 1515 -143 1510 -134 1513 -138 b 1518 -174 1519 -153 1520 -164 l 1524 -175 b 1520 -141 1526 -164 1525 -152 b 1514 -130 1519 -137 1516 -133 l 1514 -129 b 1509 -124 1513 -127 1511 -126 b 1499 -115 1506 -121 1502 -118 b 1469 -99 1489 -109 1480 -103 b 1437 -88 1459 -95 1448 -91 b 1372 -76 1416 -83 1394 -79 b 1306 -68 1350 -72 1328 -70 b 1174 -59 1262 -64 1218 -62 b 1042 -49 1130 -56 1086 -54 b 977 -37 1020 -47 998 -43 b 915 -15 956 -32 935 -25 b 863 17 897 -7 879 4 b 998 65 910 27 955 43 b 1056 100 1018 75 1038 87 l 1063 104 l 1070 110 l 1077 115 l 1083 120 l 1090 125 l 1096 131 l 1109 142 b 1191 251 1144 173 1170 211 b 1218 314 1202 271 1211 292 b 1235 380 1226 335 1231 357 b 1240 448 1240 402 1241 425 b 1236 482 1240 459 1239 471 b 1225 514 1234 493 1230 504 b 1216 529 1223 519 1220 524 b 1205 542 1213 534 1209 538 b 1176 561 1197 550 1187 556 b 1144 570 1166 565 1155 568 b 1110 573 1133 572 1122 573 b 1044 559 1088 571 1066 567 b 983 529 1023 551 1003 541 b 880 442 945 506 910 476 b 806 327 849 408 824 369 b 793 295 801 317 797 306 b 784 261 790 284 787 272 b 775 193 779 239 776 216 b 780 124 773 170 775 147 b 806 60 785 101 794 79 b 837 23 815 46 825 34 b 739 18 804 18 772 16 b 613 45 696 20 653 29 b 555 74 593 53 573 63 b 505 113 537 86 520 99 b 434 214 474 142 450 176 b 408 332 418 252 409 292 b 410 392 407 352 408 372 b 420 453 412 413 416 433 b 455 570 429 493 441 532 b 479 628 462 590 470 609 b 505 684 487 647 496 666 b 568 794 524 722 545 758 b 708 983 610 860 657 923 b 761 993 726 987 743 990 b 892 1009 804 1000 848 1005 b 925 1011 903 1009 914 1010 b 958 1012 936 1011 947 1012 b 1024 1016 980 1013 1002 1015 b 1157 1026 1069 1018 1113 1022 b 1288 1045 1201 1031 1245 1036 b 1354 1061 1310 1049 1332 1054 b 1417 1083 1375 1067 1396 1074 b 1476 1117 1438 1092 1457 1104 b 1523 1167 1494 1131 1510 1148 b 1539 1198 1529 1177 1535 1187 b 1547 1233 1544 1209 1546 1221 b 1542 1268 1548 1245 1546 1257 z m 821 68 b 802 128 811 87 805 107 b 800 159 801 138 800 149 b 803 191 801 170 801 180 b 808 222 804 201 806 212 b 816 253 810 232 813 243 b 826 283 819 263 822 273 b 839 312 830 293 834 302 b 905 421 857 351 879 387 b 994 515 930 456 959 488 b 1048 549 1010 528 1029 540 b 1111 566 1068 558 1089 564 b 1174 555 1132 568 1154 564 b 1181 552 1177 554 1179 553 b 1188 548 1184 550 1186 549 b 1200 537 1192 545 1197 541 b 1217 511 1208 530 1213 521 b 1222 496 1219 506 1221 501 b 1225 480 1224 490 1225 485 b 1226 448 1226 469 1227 459 b 1213 385 1224 426 1220 405 b 1162 267 1201 344 1183 304 b 1128 212 1152 248 1140 230 b 1090 161 1117 194 1104 177 l 1085 155 l 1079 150 l 1073 144 l 1067 139 l 1061 133 l 1055 128 l 1049 123 l 1043 118 b 989 80 1026 104 1008 92 b 869 30 952 58 912 41 b 853 26 864 29 858 28 b 838 42 848 31 843 36 b 821 68 832 50 826 59 z m 476 855 b 405 735 450 816 426 776 b 352 606 384 694 366 650 b 324 466 337 560 328 513 b 324 394 323 442 322 418 b 332 322 325 370 328 346 b 386 189 342 275 360 230 b 431 133 399 169 414 150 b 483 87 447 116 464 101 b 543 52 502 74 522 62 b 606 27 563 42 584 34 b 672 12 628 20 650 15 b 739 6 694 8 717 6 b 847 14 775 5 811 8 b 853 9 849 12 851 11 b 911 -24 871 -4 891 -16 b 1041 -55 953 -42 997 -51 b 1306 -73 1129 -63 1218 -66 b 1371 -81 1328 -75 1350 -78 b 1436 -93 1393 -84 1415 -88 b 1467 -104 1447 -96 1457 -100 b 1477 -108 1470 -105 1474 -107 b 1453 -103 1469 -106 1461 -104 b 1386 -100 1431 -99 1408 -99 b 1255 -118 1342 -102 1298 -110 b 1125 -144 1211 -126 1168 -135 b 995 -171 1082 -153 1038 -163 b 733 -209 908 -188 821 -202 b 601 -213 689 -213 645 -214 b 470 -200 557 -212 514 -207 b 344 -165 427 -192 385 -181 b 229 -104 303 -149 265 -129 b 133 -18 193 -80 161 -51 b 66 91 105 15 83 52 b 32 342 32 169 22 257 b 115 585 42 427 72 510 b 192 688 137 622 163 657 l 214 712 b 226 724 218 716 222 720 b 237 736 229 728 233 732 b 285 781 252 751 268 766 b 336 823 301 795 318 809 b 363 842 345 829 354 836 b 376 851 367 845 372 848 l 390 860 b 448 892 409 871 428 882 b 477 907 458 897 468 902 l 492 913 b 508 920 497 916 502 918 l 523 926 l 532 930 b 476 855 513 906 494 881 z m 1531 1234 b 1509 1176 1530 1214 1521 1194 b 1465 1131 1497 1159 1482 1144 b 1410 1098 1448 1118 1430 1107 b 1286 1059 1371 1080 1328 1068 b 1155 1038 1243 1050 1199 1043 b 1024 1025 1112 1033 1068 1029 b 958 1021 1002 1024 980 1022 l 925 1019 b 891 1016 914 1018 902 1017 b 760 1000 847 1013 803 1007 b 716 992 745 997 730 995 b 721 998 718 994 719 996 b 765 1046 736 1014 750 1030 b 787 1069 772 1054 780 1061 l 798 1080 l 804 1085 l 810 1091 l 822 1102 l 834 1112 l 840 1117 l 846 1123 l 858 1133 b 909 1172 874 1146 891 1160 b 1138 1291 979 1222 1056 1262 b 1264 1322 1179 1305 1221 1315 b 1329 1330 1285 1326 1307 1328 b 1361 1331 1340 1331 1350 1331 b 1394 1330 1372 1331 1383 1331 b 1457 1318 1415 1329 1436 1325 b 1511 1287 1477 1312 1496 1302 b 1527 1263 1518 1280 1523 1272 b 1531 1234 1530 1253 1532 1243 z "},"Ç":{"ha":1346,"x_min":0,"x_max":0,"o":"m 1542 1268 b 1522 1299 1537 1280 1530 1290 b 1494 1320 1514 1307 1504 1314 b 1462 1334 1484 1325 1473 1330 b 1395 1348 1440 1341 1418 1346 b 1362 1350 1384 1349 1373 1350 b 1328 1351 1350 1351 1339 1351 b 1261 1347 1306 1351 1283 1349 b 1128 1324 1216 1343 1172 1335 b 875 1225 1040 1302 955 1269 b 816 1190 855 1214 836 1202 l 802 1181 l 795 1176 l 788 1171 l 774 1161 l 760 1151 l 753 1146 l 746 1141 l 732 1130 l 719 1119 b 706 1108 714 1116 710 1112 b 655 1063 688 1093 671 1078 b 542 942 615 1025 577 985 b 535 940 540 941 538 940 l 520 934 l 504 927 b 386 868 464 910 424 890 b 329 833 366 856 347 845 b 274 794 310 820 292 808 b 221 753 256 781 238 767 b 209 742 217 749 213 746 b 196 731 204 738 200 735 l 184 720 b 172 708 180 716 176 712 b 89 600 141 675 113 639 b 31 478 66 562 46 521 b -1 346 15 435 5 391 b -1 210 -7 301 -7 255 b 37 78 5 164 18 120 b 113 -35 57 37 82 -1 b 218 -121 144 -68 179 -97 b 339 -179 256 -145 296 -164 b 468 -212 381 -194 424 -205 b 734 -218 556 -226 646 -226 b 996 -177 822 -210 910 -195 b 1256 -122 1083 -160 1169 -139 b 1321 -112 1277 -118 1299 -115 b 1386 -105 1343 -108 1365 -106 b 1452 -108 1408 -104 1430 -104 b 1483 -116 1463 -109 1473 -112 b 1506 -129 1492 -120 1499 -124 b 1515 -143 1510 -134 1513 -138 b 1518 -174 1519 -153 1520 -164 l 1524 -175 b 1520 -141 1526 -164 1525 -152 b 1514 -130 1519 -137 1516 -133 l 1514 -129 b 1509 -124 1513 -127 1511 -126 b 1499 -115 1506 -121 1502 -118 b 1469 -99 1489 -109 1480 -103 b 1437 -88 1459 -95 1448 -91 b 1372 -76 1416 -83 1394 -79 b 1306 -68 1350 -72 1328 -70 b 1174 -59 1262 -64 1218 -62 b 1042 -49 1130 -56 1086 -54 b 977 -37 1020 -47 998 -43 b 915 -15 956 -32 935 -25 b 863 17 897 -7 879 4 b 998 65 910 27 955 43 b 1056 100 1018 75 1038 87 l 1063 104 l 1070 110 l 1077 115 l 1083 120 l 1090 125 l 1096 131 l 1109 142 b 1191 251 1144 173 1170 211 b 1218 314 1202 271 1211 292 b 1235 380 1226 335 1231 357 b 1240 448 1240 402 1241 425 b 1236 482 1240 459 1239 471 b 1225 514 1234 493 1230 504 b 1216 529 1223 519 1220 524 b 1205 542 1213 534 1209 538 b 1176 561 1197 550 1187 556 b 1144 570 1166 565 1155 568 b 1110 573 1133 572 1122 573 b 1044 559 1088 571 1066 567 b 983 529 1023 551 1003 541 b 880 442 945 506 910 476 b 806 327 849 408 824 369 b 793 295 801 317 797 306 b 784 261 790 284 787 272 b 775 193 779 239 776 216 b 780 124 773 170 775 147 b 806 60 785 101 794 79 b 837 23 815 46 825 34 b 739 18 804 18 772 16 b 613 45 696 20 653 29 b 555 74 593 53 573 63 b 505 113 537 86 520 99 b 434 214 474 142 450 176 b 408 332 418 252 409 292 b 410 392 407 352 408 372 b 420 453 412 413 416 433 b 455 570 429 493 441 532 b 479 628 462 590 470 609 b 505 684 487 647 496 666 b 568 794 524 722 545 758 b 708 983 610 860 657 923 b 761 993 726 987 743 990 b 892 1009 804 1000 848 1005 b 925 1011 903 1009 914 1010 b 958 1012 936 1011 947 1012 b 1024 1016 980 1013 1002 1015 b 1157 1026 1069 1018 1113 1022 b 1288 1045 1201 1031 1245 1036 b 1354 1061 1310 1049 1332 1054 b 1417 1083 1375 1067 1396 1074 b 1476 1117 1438 1092 1457 1104 b 1523 1167 1494 1131 1510 1148 b 1539 1198 1529 1177 1535 1187 b 1547 1233 1544 1209 1546 1221 b 1542 1268 1548 1245 1546 1257 z m 821 68 b 802 128 811 87 805 107 b 800 159 801 138 800 149 b 803 191 801 170 801 180 b 808 222 804 201 806 212 b 816 253 810 232 813 243 b 826 283 819 263 822 273 b 839 312 830 293 834 302 b 905 421 857 351 879 387 b 994 515 930 456 959 488 b 1048 549 1010 528 1029 540 b 1111 566 1068 558 1089 564 b 1174 555 1132 568 1154 564 b 1181 552 1177 554 1179 553 b 1188 548 1184 550 1186 549 b 1200 537 1192 545 1197 541 b 1217 511 1208 530 1213 521 b 1222 496 1219 506 1221 501 b 1225 480 1224 490 1225 485 b 1226 448 1226 469 1227 459 b 1213 385 1224 426 1220 405 b 1162 267 1201 344 1183 304 b 1128 212 1152 248 1140 230 b 1090 161 1117 194 1104 177 l 1085 155 l 1079 150 l 1073 144 l 1067 139 l 1061 133 l 1055 128 l 1049 123 l 1043 118 b 989 80 1026 104 1008 92 b 869 30 952 58 912 41 b 853 26 864 29 858 28 b 838 42 848 31 843 36 b 821 68 832 50 826 59 z m 476 855 b 405 735 450 816 426 776 b 352 606 384 694 366 650 b 324 466 337 560 328 513 b 324 394 323 442 322 418 b 332 322 325 370 328 346 b 386 189 342 275 360 230 b 431 133 399 169 414 150 b 483 87 447 116 464 101 b 543 52 502 74 522 62 b 606 27 563 42 584 34 b 672 12 628 20 650 15 b 739 6 694 8 717 6 b 847 14 775 5 811 8 b 853 9 849 12 851 11 b 911 -24 871 -4 891 -16 b 1041 -55 953 -42 997 -51 b 1306 -73 1129 -63 1218 -66 b 1371 -81 1328 -75 1350 -78 b 1436 -93 1393 -84 1415 -88 b 1467 -104 1447 -96 1457 -100 b 1477 -108 1470 -105 1474 -107 b 1453 -103 1469 -106 1461 -104 b 1386 -100 1431 -99 1408 -99 b 1255 -118 1342 -102 1298 -110 b 1125 -144 1211 -126 1168 -135 b 995 -171 1082 -153 1038 -163 b 733 -209 908 -188 821 -202 b 601 -213 689 -213 645 -214 b 470 -200 557 -212 514 -207 b 344 -165 427 -192 385 -181 b 229 -104 303 -149 265 -129 b 133 -18 193 -80 161 -51 b 66 91 105 15 83 52 b 32 342 32 169 22 257 b 115 585 42 427 72 510 b 192 688 137 622 163 657 l 214 712 b 226 724 218 716 222 720 b 237 736 229 728 233 732 b 285 781 252 751 268 766 b 336 823 301 795 318 809 b 363 842 345 829 354 836 b 376 851 367 845 372 848 l 390 860 b 448 892 409 871 428 882 b 477 907 458 897 468 902 l 492 913 b 508 920 497 916 502 918 l 523 926 l 532 930 b 476 855 513 906 494 881 z m 1531 1234 b 1509 1176 1530 1214 1521 1194 b 1465 1131 1497 1159 1482 1144 b 1410 1098 1448 1118 1430 1107 b 1286 1059 1371 1080 1328 1068 b 1155 1038 1243 1050 1199 1043 b 1024 1025 1112 1033 1068 1029 b 958 1021 1002 1024 980 1022 l 925 1019 b 891 1016 914 1018 902 1017 b 760 1000 847 1013 803 1007 b 716 992 745 997 730 995 b 721 998 718 994 719 996 b 765 1046 736 1014 750 1030 b 787 1069 772 1054 780 1061 l 798 1080 l 804 1085 l 810 1091 l 822 1102 l 834 1112 l 840 1117 l 846 1123 l 858 1133 b 909 1172 874 1146 891 1160 b 1138 1291 979 1222 1056 1262 b 1264 1322 1179 1305 1221 1315 b 1329 1330 1285 1326 1307 1328 b 1361 1331 1340 1331 1350 1331 b 1394 1330 1372 1331 1383 1331 b 1457 1318 1415 1329 1436 1325 b 1511 1287 1477 1312 1496 1302 b 1527 1263 1518 1280 1523 1272 b 1531 1234 1530 1253 1532 1243 z "},"D":{"ha":1719,"x_min":0,"x_max":0,"o":"m 2169 -130 b 2139 -149 2160 -137 2149 -144 b 2105 -163 2128 -155 2116 -159 b 2035 -183 2082 -172 2058 -178 b 1889 -205 1987 -194 1938 -201 b 1595 -210 1791 -214 1693 -215 b 1449 -198 1546 -207 1497 -203 b 1303 -176 1400 -192 1351 -185 b 1018 -105 1207 -159 1112 -135 b 749 10 925 -75 834 -37 b 735 18 745 13 740 16 b 776 68 749 34 763 51 b 788 61 780 65 784 63 b 891 24 821 45 856 32 b 999 8 927 15 963 10 b 1218 39 1074 5 1148 15 b 1416 146 1290 63 1357 99 b 1567 315 1475 194 1526 251 b 1663 520 1608 379 1640 448 b 1707 740 1686 591 1701 665 b 1707 853 1710 778 1710 816 b 1689 966 1704 891 1698 929 b 1649 1073 1679 1003 1666 1039 b 1589 1169 1633 1107 1613 1140 b 1509 1248 1565 1198 1538 1225 b 1463 1279 1494 1259 1479 1269 b 1417 1302 1448 1287 1433 1295 b 1430 1311 1421 1305 1425 1308 b 1461 1328 1440 1318 1450 1323 b 1494 1339 1471 1333 1483 1337 b 1512 1342 1500 1341 1506 1341 b 1530 1340 1518 1342 1524 1342 b 1493 1349 1519 1346 1506 1349 b 1455 1345 1481 1349 1468 1348 b 1418 1334 1442 1342 1430 1339 b 1383 1317 1406 1329 1394 1323 b 1382 1316 1383 1317 1383 1317 b 1362 1323 1376 1319 1369 1321 b 1350 1328 1358 1325 1354 1326 b 1337 1332 1345 1329 1341 1330 b 1323 1336 1332 1333 1328 1334 b 1310 1339 1319 1337 1315 1338 b 1204 1359 1275 1348 1240 1355 b 989 1341 1132 1365 1059 1360 b 938 1326 972 1337 955 1332 b 887 1306 921 1320 904 1313 b 816 1269 863 1295 839 1283 b 812 1271 815 1270 814 1271 b 786 1279 804 1275 795 1277 b 731 1280 768 1282 749 1282 b 704 1274 722 1278 713 1277 l 698 1273 l 691 1271 b 678 1267 687 1270 683 1268 b 628 1246 661 1261 645 1254 b 539 1185 596 1229 566 1209 b 463 1108 511 1162 486 1136 b 353 920 416 1052 379 988 b 312 706 327 852 313 779 b 322 597 311 669 314 633 b 335 544 325 579 330 561 b 345 518 338 535 341 526 b 350 505 346 514 348 509 b 356 492 352 501 353 496 b 386 446 364 475 374 460 b 406 426 393 439 399 432 b 428 408 413 419 420 414 b 531 371 459 388 494 375 b 639 383 567 367 604 371 b 731 438 673 394 705 413 b 751 457 738 444 744 450 b 768 478 757 463 762 470 b 796 523 779 492 788 507 b 832 625 813 555 825 589 l 826 626 b 792 526 820 591 808 557 b 727 442 776 494 754 466 b 636 390 701 419 670 401 b 532 382 603 380 567 377 b 438 422 498 387 465 401 b 401 458 424 432 412 444 b 375 501 391 471 382 486 b 371 513 374 505 372 509 l 367 526 b 359 551 364 534 361 542 b 348 602 355 567 351 584 b 342 706 343 636 341 671 b 381 910 344 775 357 844 b 422 1007 392 943 406 976 b 477 1097 438 1038 456 1068 b 547 1176 498 1125 521 1152 b 633 1237 573 1200 602 1220 b 732 1271 664 1254 697 1265 b 784 1271 750 1274 767 1274 b 808 1265 793 1270 801 1268 b 792 1254 803 1261 798 1258 b 707 1187 762 1235 733 1212 b 670 1147 694 1174 681 1161 b 636 1104 658 1133 647 1119 b 576 1014 614 1075 594 1045 b 528 916 558 982 542 950 b 494 812 514 882 503 848 b 485 758 490 794 487 776 b 482 703 482 740 481 721 b 488 648 482 684 484 666 b 509 596 492 629 499 612 b 548 555 518 579 532 565 b 603 543 565 546 584 542 b 656 556 621 544 639 549 b 704 582 673 563 689 571 b 780 658 734 603 759 629 b 836 750 802 687 820 718 b 875 850 851 782 865 816 b 901 955 886 884 895 919 b 910 1062 907 990 910 1026 b 895 1168 910 1097 906 1134 b 873 1218 890 1186 883 1202 b 836 1258 864 1234 851 1247 b 831 1261 835 1259 833 1260 b 1306 1324 973 1351 1146 1374 b 1360 1303 1324 1318 1343 1311 b 1264 1219 1325 1279 1293 1250 b 1170 1100 1230 1182 1199 1142 b 1092 970 1142 1058 1116 1014 b 967 698 1044 882 1003 790 b 941 628 958 675 949 651 b 928 594 936 617 932 605 b 915 560 923 583 919 571 b 862 425 898 515 880 470 b 806 292 844 380 826 336 b 791 259 801 281 796 270 b 776 226 786 248 781 237 b 745 161 766 204 756 183 b 724 123 738 148 731 136 b 706 133 718 126 712 130 b 607 178 674 151 641 166 b 398 230 540 203 470 220 b 291 239 363 235 327 238 b 184 234 255 240 219 238 b 79 209 148 229 113 222 b 31 183 62 203 46 194 b -5 143 16 173 4 159 l 0 141 b 35 179 8 156 20 169 b 81 204 49 189 65 198 b 184 228 114 217 149 224 b 291 232 220 232 255 233 b 397 221 326 230 362 227 b 501 199 432 216 467 208 b 602 164 535 189 569 178 b 696 117 634 151 666 135 b 715 106 703 114 709 110 b 680 47 704 86 692 66 b 617 76 659 57 638 67 b 476 123 571 96 524 111 b 329 143 428 136 378 142 b 254 137 304 143 279 141 b 217 129 242 135 230 132 b 181 118 205 126 193 122 b 114 81 157 109 135 96 b 86 54 104 73 95 64 b 74 38 82 49 78 44 b 69 29 72 35 70 32 b 64 21 67 27 65 24 b 43 -55 52 -2 44 -28 b 65 -133 42 -83 50 -110 b 91 -163 73 -144 81 -154 b 123 -185 101 -171 112 -179 b 194 -214 145 -198 169 -207 b 267 -227 218 -220 242 -224 b 304 -229 280 -228 292 -229 b 342 -229 317 -230 329 -230 b 486 -189 392 -226 441 -211 b 519 -171 497 -183 508 -177 b 551 -151 530 -165 541 -158 b 612 -105 572 -137 593 -122 b 720 1 651 -73 687 -37 b 724 5 721 2 723 4 b 741 -4 730 2 736 -1 b 1013 -121 827 -53 919 -91 b 1301 -190 1107 -151 1203 -174 b 1595 -221 1398 -206 1496 -216 b 1890 -214 1693 -225 1792 -223 b 2036 -190 1939 -209 1988 -201 b 2107 -169 2060 -185 2084 -178 b 2141 -154 2119 -165 2130 -160 b 2173 -134 2152 -149 2163 -142 z m 868 1214 b 889 1166 877 1199 884 1183 b 904 1062 900 1133 904 1097 b 895 955 904 1026 901 990 b 870 852 889 920 881 886 b 830 753 859 818 846 785 b 775 662 815 721 796 691 b 699 588 753 634 728 608 b 677 575 692 583 685 579 b 653 564 669 571 661 567 b 602 553 637 558 620 554 b 554 565 585 553 569 557 b 535 581 547 570 541 575 b 521 603 530 588 525 595 b 508 651 514 618 510 634 b 506 677 506 660 506 668 b 506 703 505 686 505 694 b 521 806 507 738 512 772 b 555 905 530 839 541 873 b 601 999 569 937 584 969 b 658 1088 619 1030 638 1060 b 690 1131 668 1103 679 1117 b 723 1171 700 1144 711 1158 b 802 1241 747 1196 774 1220 b 825 1257 809 1246 817 1252 b 832 1252 827 1255 830 1254 b 868 1214 846 1242 858 1229 z m 814 120 b 894 247 843 161 870 204 b 963 382 919 291 942 336 b 1020 520 984 427 1003 473 b 1033 556 1024 532 1029 544 b 1045 591 1037 567 1041 579 l 1057 626 l 1069 660 b 1119 796 1085 706 1101 751 b 1174 930 1136 841 1154 886 b 1236 1060 1193 974 1214 1018 b 1309 1183 1258 1103 1282 1144 b 1352 1240 1322 1203 1337 1222 b 1376 1266 1360 1249 1368 1257 b 1396 1285 1382 1273 1389 1279 b 1403 1282 1398 1284 1401 1283 b 1446 1254 1418 1274 1432 1264 b 1486 1221 1460 1244 1473 1233 b 1550 1141 1511 1197 1532 1171 b 1591 1050 1567 1112 1581 1082 b 1612 951 1602 1018 1609 985 b 1616 851 1616 918 1617 885 b 1606 751 1615 818 1612 784 b 1559 553 1596 684 1580 618 b 1523 459 1548 521 1536 489 b 1479 368 1510 428 1495 397 b 1362 205 1447 309 1408 254 b 1199 84 1315 157 1261 115 b 1103 49 1168 69 1136 57 b 1000 35 1069 40 1035 36 b 896 45 965 34 930 37 b 797 79 862 52 829 64 b 788 84 794 81 791 82 b 814 120 797 96 805 108 z m 586 -78 b 534 -128 570 -96 552 -113 b 476 -171 516 -144 496 -158 b 411 -202 456 -183 434 -194 b 341 -219 389 -211 365 -216 b 268 -217 317 -221 292 -220 b 198 -201 244 -214 221 -209 b 134 -168 175 -193 154 -182 b 108 -145 125 -161 116 -154 b 87 -119 100 -137 93 -128 b 71 -56 76 -100 70 -78 b 88 9 71 -34 78 -12 b 92 16 90 11 91 14 b 96 24 94 19 95 21 b 106 38 99 28 103 33 b 129 63 113 47 121 55 b 188 103 147 79 167 92 b 221 116 199 108 210 112 b 256 125 233 120 244 123 b 292 130 268 127 280 129 b 329 132 304 131 316 132 b 473 112 377 132 426 124 b 611 62 520 99 566 83 b 671 33 631 53 651 44 b 586 -78 646 -6 617 -43 z "},"E":{"ha":1385,"x_min":0,"x_max":0,"o":"m 1760 -211 b 1676 -198 1732 -205 1704 -200 b 1508 -192 1620 -192 1564 -190 b 1340 -199 1452 -193 1396 -196 b 1173 -211 1285 -203 1229 -207 b 1006 -221 1117 -215 1062 -219 b 839 -224 950 -224 894 -226 b 797 -223 825 -224 811 -223 b 756 -219 784 -222 770 -220 b 714 -215 742 -218 728 -217 b 673 -210 701 -213 687 -212 b 632 -203 659 -207 646 -206 l 611 -199 l 591 -195 b 550 -186 577 -192 564 -189 b 530 -181 544 -184 537 -182 b 510 -175 524 -179 517 -177 l 490 -169 b 470 -163 484 -167 477 -165 l 460 -160 b 451 -156 457 -159 454 -157 l 431 -149 b 354 -118 405 -140 379 -129 b 281 -79 329 -106 305 -93 b 211 -33 257 -65 234 -50 b 157 10 193 -20 174 -5 b 207 -18 173 0 190 -9 b 369 -68 258 -42 313 -59 b 538 -76 425 -77 482 -79 b 622 -67 566 -74 594 -71 b 705 -49 650 -63 678 -57 b 726 -43 712 -47 719 -45 l 746 -36 b 785 -22 759 -32 772 -27 b 805 -14 792 -19 798 -17 l 825 -6 l 844 2 l 845 2 b 882 3 857 2 870 2 b 1048 34 939 5 995 16 b 1126 68 1075 44 1101 55 b 1197 114 1151 81 1175 96 b 1305 245 1242 148 1280 193 b 1321 285 1311 258 1317 271 b 1333 326 1326 298 1330 312 b 1342 411 1340 354 1343 382 b 1326 496 1342 440 1336 469 b 1307 535 1321 510 1314 523 b 1280 569 1299 547 1290 559 b 1213 622 1261 591 1238 608 b 1133 651 1188 635 1161 645 b 966 639 1078 662 1019 659 b 894 594 940 629 915 613 b 865 563 883 585 873 574 b 842 526 856 551 848 539 b 816 443 829 500 820 472 b 822 356 812 414 814 385 b 863 279 831 328 844 302 b 929 222 882 257 904 237 b 949 212 936 219 942 215 b 960 208 952 211 956 209 b 970 205 963 207 967 206 b 1014 198 984 201 999 199 b 1058 200 1028 197 1043 197 b 1100 213 1072 202 1087 206 b 1138 236 1114 219 1127 227 b 1142 240 1140 237 1141 239 b 1125 215 1137 231 1131 223 b 1002 105 1091 172 1048 136 b 856 26 956 75 907 48 l 848 22 b 724 57 805 27 763 39 b 613 142 682 77 644 106 b 641 141 623 142 632 141 b 725 142 669 141 697 141 b 809 149 753 144 781 146 l 808 155 b 725 147 780 151 752 149 b 641 146 697 146 669 146 b 609 148 630 147 619 147 b 604 154 607 150 605 152 b 565 217 589 173 576 194 b 550 250 559 228 555 239 l 544 268 l 543 272 l 541 277 l 538 285 b 523 357 531 309 526 333 b 522 366 522 360 522 363 l 521 375 b 520 393 520 381 520 387 l 519 402 b 519 411 519 405 519 408 b 520 430 519 418 519 424 b 626 705 523 527 563 623 b 738 814 658 747 696 783 b 883 880 782 844 831 868 b 892 882 886 880 889 881 b 906 872 897 878 902 875 b 948 849 920 863 934 855 b 992 836 962 842 977 838 b 1036 840 1007 834 1022 834 b 1046 846 1040 841 1043 843 b 1053 856 1049 848 1051 852 b 1053 868 1054 860 1055 864 b 1047 879 1052 872 1050 876 b 1028 893 1042 885 1036 890 b 1008 901 1022 896 1015 899 b 965 909 994 904 980 907 b 942 911 958 910 950 911 b 938 924 941 916 939 920 b 937 928 937 926 937 927 b 935 932 936 929 936 931 b 933 940 935 935 934 937 b 930 972 931 950 930 961 b 937 1039 930 995 932 1017 b 954 1108 941 1063 946 1086 b 982 1175 961 1131 971 1153 b 1017 1230 992 1194 1004 1212 b 1053 1218 1029 1226 1041 1222 b 1134 1194 1080 1209 1107 1201 b 1217 1181 1161 1186 1189 1182 b 1259 1184 1231 1181 1245 1182 b 1280 1187 1266 1185 1273 1186 b 1301 1194 1287 1189 1294 1191 b 1334 1222 1314 1201 1325 1210 b 1349 1263 1343 1234 1349 1248 b 1345 1286 1349 1271 1348 1279 b 1333 1306 1342 1293 1338 1300 b 1300 1335 1324 1317 1313 1328 b 1260 1356 1287 1343 1274 1350 b 1239 1364 1253 1359 1246 1361 l 1229 1368 b 1224 1369 1227 1368 1225 1369 l 1218 1371 b 1034 1354 1157 1386 1092 1380 b 954 1302 1005 1340 978 1323 b 916 1263 940 1290 928 1277 b 894 1269 909 1265 901 1267 b 730 1304 840 1283 785 1295 b 688 1311 716 1307 702 1309 b 646 1315 674 1313 660 1314 b 604 1317 632 1316 618 1317 b 583 1316 597 1317 590 1317 b 562 1315 576 1316 569 1316 b 479 1303 534 1313 506 1309 b 398 1280 451 1297 424 1289 b 249 1201 345 1260 295 1234 b 231 1189 243 1197 237 1193 b 215 1176 226 1185 220 1180 b 183 1148 204 1167 193 1157 b 39 938 120 1089 71 1017 b 13 856 29 911 20 884 b -2 772 6 828 1 800 b -5 729 -3 757 -4 743 b -5 686 -6 714 -6 700 b 7 600 -3 657 0 628 b 67 440 19 544 39 490 b 115 369 81 415 97 391 b 173 306 133 347 152 326 b 314 212 215 268 262 236 b 474 159 365 188 418 170 b 494 155 480 158 487 156 b 515 131 500 147 507 139 b 549 99 525 119 537 109 b 627 50 573 79 599 63 b 711 19 654 37 682 26 b 805 4 741 11 773 6 l 799 2 b 779 -6 792 -1 786 -4 b 740 -20 766 -11 753 -16 l 720 -27 b 701 -33 714 -29 707 -31 b 620 -50 674 -40 647 -46 b 537 -59 592 -54 565 -57 b 372 -51 482 -62 427 -60 b 215 -3 317 -43 264 -26 b 83 94 165 21 120 54 b 56 126 73 105 65 115 b 50 134 54 129 52 131 b 44 142 48 137 46 140 l 38 151 l 38 151 l 38 152 b 23 143 39 154 41 156 l 23 143 b 24 142 21 142 22 142 l 24 141 l 27 137 b 77 68 42 113 59 90 b 201 -47 114 25 156 -14 b 272 -93 224 -64 248 -79 b 347 -133 297 -108 322 -121 b 425 -165 373 -145 399 -155 l 445 -172 b 455 -176 448 -173 452 -175 l 465 -179 b 485 -185 472 -181 479 -183 l 506 -191 b 526 -197 512 -193 519 -195 b 546 -202 533 -199 539 -200 b 587 -211 560 -205 574 -209 l 608 -216 l 629 -219 b 671 -226 643 -222 657 -224 b 712 -232 684 -228 698 -230 b 754 -236 726 -233 740 -235 b 796 -239 768 -237 782 -239 b 838 -241 810 -240 824 -241 b 923 -241 867 -242 895 -242 b 1007 -238 951 -240 979 -239 b 1174 -226 1063 -235 1118 -230 b 1509 -204 1286 -217 1397 -207 b 1592 -203 1536 -203 1564 -202 b 1676 -206 1620 -203 1648 -204 b 1758 -218 1703 -208 1731 -212 b 1835 -247 1785 -224 1812 -233 l 1838 -242 b 1760 -211 1814 -227 1787 -218 z m 1012 91 b 1138 204 1059 122 1103 159 b 1162 240 1147 216 1155 227 b 1181 279 1170 252 1176 265 b 1193 321 1187 292 1191 306 b 1195 332 1194 324 1194 328 b 1195 343 1195 335 1195 339 l 1195 346 b 1196 352 1195 348 1196 350 l 1196 355 l 1196 355 l 1196 355 l 1196 355 b 1196 360 1196 357 1196 358 b 1179 357 1164 362 1184 358 b 1179 357 1179 359 1179 358 b 1179 357 1179 357 1179 357 b 1178 354 1178 356 1178 355 b 1178 351 1178 353 1178 352 l 1178 349 b 1152 280 1175 325 1166 301 b 1125 251 1145 269 1136 260 b 1092 231 1115 243 1104 236 b 1015 219 1068 221 1041 217 b 976 226 1002 220 989 222 b 967 228 973 227 969 227 b 958 232 964 229 961 231 b 940 241 952 235 946 238 b 879 293 917 255 897 272 b 841 362 862 313 849 337 b 835 441 834 388 832 415 b 857 519 838 468 846 494 b 876 554 862 531 869 543 b 902 586 884 566 892 576 b 933 612 911 596 922 604 b 969 632 945 620 957 626 b 1049 651 995 643 1022 649 b 1132 645 1077 653 1105 651 b 1208 614 1159 638 1184 628 b 1270 560 1232 600 1253 582 b 1293 527 1279 550 1286 539 b 1309 490 1299 515 1305 503 b 1323 411 1318 465 1323 438 b 1314 330 1323 384 1320 357 b 1303 291 1311 317 1307 304 b 1289 252 1299 278 1294 265 b 1190 123 1266 202 1232 158 b 1045 43 1147 88 1098 61 b 883 19 993 26 938 18 b 1012 91 928 40 971 64 z m 1004 884 b 1024 881 1011 884 1017 882 b 1040 872 1030 879 1035 876 b 1046 858 1045 869 1048 863 b 1042 851 1045 855 1044 853 b 1034 846 1039 848 1036 847 b 1014 843 1027 843 1021 842 b 995 848 1008 844 1001 845 b 964 872 983 853 973 861 b 953 888 960 877 956 882 b 964 888 956 888 960 888 b 1004 884 977 888 991 887 z m 1022 1236 b 1073 1287 1036 1255 1054 1272 b 1137 1321 1092 1302 1114 1313 b 1212 1330 1161 1328 1186 1332 b 1222 1330 1215 1330 1218 1330 b 1232 1329 1225 1329 1228 1329 b 1252 1327 1238 1329 1245 1328 b 1290 1317 1265 1325 1278 1322 b 1323 1296 1302 1312 1313 1305 b 1339 1263 1332 1288 1338 1276 b 1328 1226 1340 1250 1336 1237 b 1298 1200 1320 1215 1310 1206 b 1279 1194 1292 1197 1285 1195 b 1259 1190 1272 1192 1265 1191 b 1217 1187 1245 1188 1231 1187 b 1135 1198 1189 1188 1162 1191 b 1054 1221 1108 1205 1081 1213 b 1019 1233 1043 1225 1031 1229 b 1022 1236 1020 1234 1021 1235 z m 502 694 b 477 656 493 682 485 669 b 454 616 469 643 461 630 b 422 528 441 588 430 558 b 407 435 414 498 409 466 b 413 340 406 403 408 371 b 439 250 418 309 427 279 b 449 228 442 242 445 235 b 459 207 452 221 455 214 b 484 167 467 193 475 180 b 487 164 485 166 486 165 b 475 166 483 165 479 166 b 319 223 421 178 369 197 b 249 267 295 236 271 250 b 186 320 227 283 206 301 b 133 383 167 340 149 361 b 90 453 117 405 103 428 b 36 606 65 501 47 553 b 26 687 31 633 27 660 b 26 728 25 701 25 714 b 29 769 26 741 27 755 b 41 849 31 796 35 823 b 65 928 47 876 55 902 b 142 1072 84 979 110 1028 b 563 1310 241 1208 395 1295 b 583 1312 570 1311 577 1311 b 604 1312 590 1312 597 1312 b 646 1311 618 1313 632 1312 b 729 1301 674 1310 702 1306 b 893 1267 784 1293 839 1281 b 915 1261 900 1265 907 1263 b 891 1230 906 1251 898 1241 b 848 1145 873 1203 859 1175 b 828 1051 837 1115 830 1083 b 843 951 826 1017 831 983 b 854 928 846 943 850 935 b 865 910 858 921 861 915 b 709 864 811 903 759 888 b 562 763 655 838 606 804 b 502 694 540 742 520 719 z m 1196 355 b 1196 355 1197 355 1197 355 z "},"È":{"ha":1385,"x_min":0,"x_max":0,"o":"m 1760 -211 b 1676 -198 1732 -205 1704 -200 b 1508 -192 1620 -192 1564 -190 b 1340 -199 1452 -193 1396 -196 b 1173 -211 1285 -203 1229 -207 b 1006 -221 1117 -215 1062 -219 b 839 -224 950 -224 894 -226 b 797 -223 825 -224 811 -223 b 756 -219 784 -222 770 -220 b 714 -215 742 -218 728 -217 b 673 -210 701 -213 687 -212 b 632 -203 659 -207 646 -206 l 611 -199 l 591 -195 b 550 -186 577 -192 564 -189 b 530 -181 544 -184 537 -182 b 510 -175 524 -179 517 -177 l 490 -169 b 470 -163 484 -167 477 -165 l 460 -160 b 451 -156 457 -159 454 -157 l 431 -149 b 354 -118 405 -140 379 -129 b 281 -79 329 -106 305 -93 b 211 -33 257 -65 234 -50 b 157 10 193 -20 174 -5 b 207 -18 173 0 190 -9 b 369 -68 258 -42 313 -59 b 538 -76 425 -77 482 -79 b 622 -67 566 -74 594 -71 b 705 -49 650 -63 678 -57 b 726 -43 712 -47 719 -45 l 746 -36 b 785 -22 759 -32 772 -27 b 805 -14 792 -19 798 -17 l 825 -6 l 844 2 l 845 2 b 882 3 857 2 870 2 b 1048 34 939 5 995 16 b 1126 68 1075 44 1101 55 b 1197 114 1151 81 1175 96 b 1305 245 1242 148 1280 193 b 1321 285 1311 258 1317 271 b 1333 326 1326 298 1330 312 b 1342 411 1340 354 1343 382 b 1326 496 1342 440 1336 469 b 1307 535 1321 510 1314 523 b 1280 569 1299 547 1290 559 b 1213 622 1261 591 1238 608 b 1133 651 1188 635 1161 645 b 966 639 1078 662 1019 659 b 894 594 940 629 915 613 b 865 563 883 585 873 574 b 842 526 856 551 848 539 b 816 443 829 500 820 472 b 822 356 812 414 814 385 b 863 279 831 328 844 302 b 929 222 882 257 904 237 b 949 212 936 219 942 215 b 960 208 952 211 956 209 b 970 205 963 207 967 206 b 1014 198 984 201 999 199 b 1058 200 1028 197 1043 197 b 1100 213 1072 202 1087 206 b 1138 236 1114 219 1127 227 b 1142 240 1140 237 1141 239 b 1125 215 1137 231 1131 223 b 1002 105 1091 172 1048 136 b 856 26 956 75 907 48 l 848 22 b 724 57 805 27 763 39 b 613 142 682 77 644 106 b 641 141 623 142 632 141 b 725 142 669 141 697 141 b 809 149 753 144 781 146 l 808 155 b 725 147 780 151 752 149 b 641 146 697 146 669 146 b 609 148 630 147 619 147 b 604 154 607 150 605 152 b 565 217 589 173 576 194 b 550 250 559 228 555 239 l 544 268 l 543 272 l 541 277 l 538 285 b 523 357 531 309 526 333 b 522 366 522 360 522 363 l 521 375 b 520 393 520 381 520 387 l 519 402 b 519 411 519 405 519 408 b 520 430 519 418 519 424 b 626 705 523 527 563 623 b 738 814 658 747 696 783 b 883 880 782 844 831 868 b 892 882 886 880 889 881 b 906 872 897 878 902 875 b 948 849 920 863 934 855 b 992 836 962 842 977 838 b 1036 840 1007 834 1022 834 b 1046 846 1040 841 1043 843 b 1053 856 1049 848 1051 852 b 1053 868 1054 860 1055 864 b 1047 879 1052 872 1050 876 b 1028 893 1042 885 1036 890 b 1008 901 1022 896 1015 899 b 965 909 994 904 980 907 b 942 911 958 910 950 911 b 938 924 941 916 939 920 b 937 928 937 926 937 927 b 935 932 936 929 936 931 b 933 940 935 935 934 937 b 930 972 931 950 930 961 b 937 1039 930 995 932 1017 b 954 1108 941 1063 946 1086 b 982 1175 961 1131 971 1153 b 1017 1230 992 1194 1004 1212 b 1053 1218 1029 1226 1041 1222 b 1134 1194 1080 1209 1107 1201 b 1217 1181 1161 1186 1189 1182 b 1259 1184 1231 1181 1245 1182 b 1280 1187 1266 1185 1273 1186 b 1301 1194 1287 1189 1294 1191 b 1334 1222 1314 1201 1325 1210 b 1349 1263 1343 1234 1349 1248 b 1345 1286 1349 1271 1348 1279 b 1333 1306 1342 1293 1338 1300 b 1300 1335 1324 1317 1313 1328 b 1260 1356 1287 1343 1274 1350 b 1239 1364 1253 1359 1246 1361 l 1229 1368 b 1224 1369 1227 1368 1225 1369 l 1218 1371 b 1034 1354 1157 1386 1092 1380 b 954 1302 1005 1340 978 1323 b 916 1263 940 1290 928 1277 b 894 1269 909 1265 901 1267 b 730 1304 840 1283 785 1295 b 688 1311 716 1307 702 1309 b 646 1315 674 1313 660 1314 b 604 1317 632 1316 618 1317 b 583 1316 597 1317 590 1317 b 562 1315 576 1316 569 1316 b 479 1303 534 1313 506 1309 b 398 1280 451 1297 424 1289 b 249 1201 345 1260 295 1234 b 231 1189 243 1197 237 1193 b 215 1176 226 1185 220 1180 b 183 1148 204 1167 193 1157 b 39 938 120 1089 71 1017 b 13 856 29 911 20 884 b -2 772 6 828 1 800 b -5 729 -3 757 -4 743 b -5 686 -6 714 -6 700 b 7 600 -3 657 0 628 b 67 440 19 544 39 490 b 115 369 81 415 97 391 b 173 306 133 347 152 326 b 314 212 215 268 262 236 b 474 159 365 188 418 170 b 494 155 480 158 487 156 b 515 131 500 147 507 139 b 549 99 525 119 537 109 b 627 50 573 79 599 63 b 711 19 654 37 682 26 b 805 4 741 11 773 6 l 799 2 b 779 -6 792 -1 786 -4 b 740 -20 766 -11 753 -16 l 720 -27 b 701 -33 714 -29 707 -31 b 620 -50 674 -40 647 -46 b 537 -59 592 -54 565 -57 b 372 -51 482 -62 427 -60 b 215 -3 317 -43 264 -26 b 83 94 165 21 120 54 b 56 126 73 105 65 115 b 50 134 54 129 52 131 b 44 142 48 137 46 140 l 38 151 l 38 151 l 38 152 b 23 143 39 154 41 156 l 23 143 b 24 142 21 142 22 142 l 24 141 l 27 137 b 77 68 42 113 59 90 b 201 -47 114 25 156 -14 b 272 -93 224 -64 248 -79 b 347 -133 297 -108 322 -121 b 425 -165 373 -145 399 -155 l 445 -172 b 455 -176 448 -173 452 -175 l 465 -179 b 485 -185 472 -181 479 -183 l 506 -191 b 526 -197 512 -193 519 -195 b 546 -202 533 -199 539 -200 b 587 -211 560 -205 574 -209 l 608 -216 l 629 -219 b 671 -226 643 -222 657 -224 b 712 -232 684 -228 698 -230 b 754 -236 726 -233 740 -235 b 796 -239 768 -237 782 -239 b 838 -241 810 -240 824 -241 b 923 -241 867 -242 895 -242 b 1007 -238 951 -240 979 -239 b 1174 -226 1063 -235 1118 -230 b 1509 -204 1286 -217 1397 -207 b 1592 -203 1536 -203 1564 -202 b 1676 -206 1620 -203 1648 -204 b 1758 -218 1703 -208 1731 -212 b 1835 -247 1785 -224 1812 -233 l 1838 -242 b 1760 -211 1814 -227 1787 -218 z m 1012 91 b 1138 204 1059 122 1103 159 b 1162 240 1147 216 1155 227 b 1181 279 1170 252 1176 265 b 1193 321 1187 292 1191 306 b 1195 332 1194 324 1194 328 b 1195 343 1195 335 1195 339 l 1195 346 b 1196 352 1195 348 1196 350 l 1196 355 l 1196 355 l 1196 355 l 1196 355 b 1196 360 1196 357 1196 358 b 1179 357 1164 362 1184 358 b 1179 357 1179 359 1179 358 b 1179 357 1179 357 1179 357 b 1178 354 1178 356 1178 355 b 1178 351 1178 353 1178 352 l 1178 349 b 1152 280 1175 325 1166 301 b 1125 251 1145 269 1136 260 b 1092 231 1115 243 1104 236 b 1015 219 1068 221 1041 217 b 976 226 1002 220 989 222 b 967 228 973 227 969 227 b 958 232 964 229 961 231 b 940 241 952 235 946 238 b 879 293 917 255 897 272 b 841 362 862 313 849 337 b 835 441 834 388 832 415 b 857 519 838 468 846 494 b 876 554 862 531 869 543 b 902 586 884 566 892 576 b 933 612 911 596 922 604 b 969 632 945 620 957 626 b 1049 651 995 643 1022 649 b 1132 645 1077 653 1105 651 b 1208 614 1159 638 1184 628 b 1270 560 1232 600 1253 582 b 1293 527 1279 550 1286 539 b 1309 490 1299 515 1305 503 b 1323 411 1318 465 1323 438 b 1314 330 1323 384 1320 357 b 1303 291 1311 317 1307 304 b 1289 252 1299 278 1294 265 b 1190 123 1266 202 1232 158 b 1045 43 1147 88 1098 61 b 883 19 993 26 938 18 b 1012 91 928 40 971 64 z m 1004 884 b 1024 881 1011 884 1017 882 b 1040 872 1030 879 1035 876 b 1046 858 1045 869 1048 863 b 1042 851 1045 855 1044 853 b 1034 846 1039 848 1036 847 b 1014 843 1027 843 1021 842 b 995 848 1008 844 1001 845 b 964 872 983 853 973 861 b 953 888 960 877 956 882 b 964 888 956 888 960 888 b 1004 884 977 888 991 887 z m 1022 1236 b 1073 1287 1036 1255 1054 1272 b 1137 1321 1092 1302 1114 1313 b 1212 1330 1161 1328 1186 1332 b 1222 1330 1215 1330 1218 1330 b 1232 1329 1225 1329 1228 1329 b 1252 1327 1238 1329 1245 1328 b 1290 1317 1265 1325 1278 1322 b 1323 1296 1302 1312 1313 1305 b 1339 1263 1332 1288 1338 1276 b 1328 1226 1340 1250 1336 1237 b 1298 1200 1320 1215 1310 1206 b 1279 1194 1292 1197 1285 1195 b 1259 1190 1272 1192 1265 1191 b 1217 1187 1245 1188 1231 1187 b 1135 1198 1189 1188 1162 1191 b 1054 1221 1108 1205 1081 1213 b 1019 1233 1043 1225 1031 1229 b 1022 1236 1020 1234 1021 1235 z m 502 694 b 477 656 493 682 485 669 b 454 616 469 643 461 630 b 422 528 441 588 430 558 b 407 435 414 498 409 466 b 413 340 406 403 408 371 b 439 250 418 309 427 279 b 449 228 442 242 445 235 b 459 207 452 221 455 214 b 484 167 467 193 475 180 b 487 164 485 166 486 165 b 475 166 483 165 479 166 b 319 223 421 178 369 197 b 249 267 295 236 271 250 b 186 320 227 283 206 301 b 133 383 167 340 149 361 b 90 453 117 405 103 428 b 36 606 65 501 47 553 b 26 687 31 633 27 660 b 26 728 25 701 25 714 b 29 769 26 741 27 755 b 41 849 31 796 35 823 b 65 928 47 876 55 902 b 142 1072 84 979 110 1028 b 563 1310 241 1208 395 1295 b 583 1312 570 1311 577 1311 b 604 1312 590 1312 597 1312 b 646 1311 618 1313 632 1312 b 729 1301 674 1310 702 1306 b 893 1267 784 1293 839 1281 b 915 1261 900 1265 907 1263 b 891 1230 906 1251 898 1241 b 848 1145 873 1203 859 1175 b 828 1051 837 1115 830 1083 b 843 951 826 1017 831 983 b 854 928 846 943 850 935 b 865 910 858 921 861 915 b 709 864 811 903 759 888 b 562 763 655 838 606 804 b 502 694 540 742 520 719 z m 1196 355 b 1196 355 1197 355 1197 355 z "},"É":{"ha":1385,"x_min":0,"x_max":0,"o":"m 1760 -211 b 1676 -198 1732 -205 1704 -200 b 1508 -192 1620 -192 1564 -190 b 1340 -199 1452 -193 1396 -196 b 1173 -211 1285 -203 1229 -207 b 1006 -221 1117 -215 1062 -219 b 839 -224 950 -224 894 -226 b 797 -223 825 -224 811 -223 b 756 -219 784 -222 770 -220 b 714 -215 742 -218 728 -217 b 673 -210 701 -213 687 -212 b 632 -203 659 -207 646 -206 l 611 -199 l 591 -195 b 550 -186 577 -192 564 -189 b 530 -181 544 -184 537 -182 b 510 -175 524 -179 517 -177 l 490 -169 b 470 -163 484 -167 477 -165 l 460 -160 b 451 -156 457 -159 454 -157 l 431 -149 b 354 -118 405 -140 379 -129 b 281 -79 329 -106 305 -93 b 211 -33 257 -65 234 -50 b 157 10 193 -20 174 -5 b 207 -18 173 0 190 -9 b 369 -68 258 -42 313 -59 b 538 -76 425 -77 482 -79 b 622 -67 566 -74 594 -71 b 705 -49 650 -63 678 -57 b 726 -43 712 -47 719 -45 l 746 -36 b 785 -22 759 -32 772 -27 b 805 -14 792 -19 798 -17 l 825 -6 l 844 2 l 845 2 b 882 3 857 2 870 2 b 1048 34 939 5 995 16 b 1126 68 1075 44 1101 55 b 1197 114 1151 81 1175 96 b 1305 245 1242 148 1280 193 b 1321 285 1311 258 1317 271 b 1333 326 1326 298 1330 312 b 1342 411 1340 354 1343 382 b 1326 496 1342 440 1336 469 b 1307 535 1321 510 1314 523 b 1280 569 1299 547 1290 559 b 1213 622 1261 591 1238 608 b 1133 651 1188 635 1161 645 b 966 639 1078 662 1019 659 b 894 594 940 629 915 613 b 865 563 883 585 873 574 b 842 526 856 551 848 539 b 816 443 829 500 820 472 b 822 356 812 414 814 385 b 863 279 831 328 844 302 b 929 222 882 257 904 237 b 949 212 936 219 942 215 b 960 208 952 211 956 209 b 970 205 963 207 967 206 b 1014 198 984 201 999 199 b 1058 200 1028 197 1043 197 b 1100 213 1072 202 1087 206 b 1138 236 1114 219 1127 227 b 1142 240 1140 237 1141 239 b 1125 215 1137 231 1131 223 b 1002 105 1091 172 1048 136 b 856 26 956 75 907 48 l 848 22 b 724 57 805 27 763 39 b 613 142 682 77 644 106 b 641 141 623 142 632 141 b 725 142 669 141 697 141 b 809 149 753 144 781 146 l 808 155 b 725 147 780 151 752 149 b 641 146 697 146 669 146 b 609 148 630 147 619 147 b 604 154 607 150 605 152 b 565 217 589 173 576 194 b 550 250 559 228 555 239 l 544 268 l 543 272 l 541 277 l 538 285 b 523 357 531 309 526 333 b 522 366 522 360 522 363 l 521 375 b 520 393 520 381 520 387 l 519 402 b 519 411 519 405 519 408 b 520 430 519 418 519 424 b 626 705 523 527 563 623 b 738 814 658 747 696 783 b 883 880 782 844 831 868 b 892 882 886 880 889 881 b 906 872 897 878 902 875 b 948 849 920 863 934 855 b 992 836 962 842 977 838 b 1036 840 1007 834 1022 834 b 1046 846 1040 841 1043 843 b 1053 856 1049 848 1051 852 b 1053 868 1054 860 1055 864 b 1047 879 1052 872 1050 876 b 1028 893 1042 885 1036 890 b 1008 901 1022 896 1015 899 b 965 909 994 904 980 907 b 942 911 958 910 950 911 b 938 924 941 916 939 920 b 937 928 937 926 937 927 b 935 932 936 929 936 931 b 933 940 935 935 934 937 b 930 972 931 950 930 961 b 937 1039 930 995 932 1017 b 954 1108 941 1063 946 1086 b 982 1175 961 1131 971 1153 b 1017 1230 992 1194 1004 1212 b 1053 1218 1029 1226 1041 1222 b 1134 1194 1080 1209 1107 1201 b 1217 1181 1161 1186 1189 1182 b 1259 1184 1231 1181 1245 1182 b 1280 1187 1266 1185 1273 1186 b 1301 1194 1287 1189 1294 1191 b 1334 1222 1314 1201 1325 1210 b 1349 1263 1343 1234 1349 1248 b 1345 1286 1349 1271 1348 1279 b 1333 1306 1342 1293 1338 1300 b 1300 1335 1324 1317 1313 1328 b 1260 1356 1287 1343 1274 1350 b 1239 1364 1253 1359 1246 1361 l 1229 1368 b 1224 1369 1227 1368 1225 1369 l 1218 1371 b 1034 1354 1157 1386 1092 1380 b 954 1302 1005 1340 978 1323 b 916 1263 940 1290 928 1277 b 894 1269 909 1265 901 1267 b 730 1304 840 1283 785 1295 b 688 1311 716 1307 702 1309 b 646 1315 674 1313 660 1314 b 604 1317 632 1316 618 1317 b 583 1316 597 1317 590 1317 b 562 1315 576 1316 569 1316 b 479 1303 534 1313 506 1309 b 398 1280 451 1297 424 1289 b 249 1201 345 1260 295 1234 b 231 1189 243 1197 237 1193 b 215 1176 226 1185 220 1180 b 183 1148 204 1167 193 1157 b 39 938 120 1089 71 1017 b 13 856 29 911 20 884 b -2 772 6 828 1 800 b -5 729 -3 757 -4 743 b -5 686 -6 714 -6 700 b 7 600 -3 657 0 628 b 67 440 19 544 39 490 b 115 369 81 415 97 391 b 173 306 133 347 152 326 b 314 212 215 268 262 236 b 474 159 365 188 418 170 b 494 155 480 158 487 156 b 515 131 500 147 507 139 b 549 99 525 119 537 109 b 627 50 573 79 599 63 b 711 19 654 37 682 26 b 805 4 741 11 773 6 l 799 2 b 779 -6 792 -1 786 -4 b 740 -20 766 -11 753 -16 l 720 -27 b 701 -33 714 -29 707 -31 b 620 -50 674 -40 647 -46 b 537 -59 592 -54 565 -57 b 372 -51 482 -62 427 -60 b 215 -3 317 -43 264 -26 b 83 94 165 21 120 54 b 56 126 73 105 65 115 b 50 134 54 129 52 131 b 44 142 48 137 46 140 l 38 151 l 38 151 l 38 152 b 23 143 39 154 41 156 l 23 143 b 24 142 21 142 22 142 l 24 141 l 27 137 b 77 68 42 113 59 90 b 201 -47 114 25 156 -14 b 272 -93 224 -64 248 -79 b 347 -133 297 -108 322 -121 b 425 -165 373 -145 399 -155 l 445 -172 b 455 -176 448 -173 452 -175 l 465 -179 b 485 -185 472 -181 479 -183 l 506 -191 b 526 -197 512 -193 519 -195 b 546 -202 533 -199 539 -200 b 587 -211 560 -205 574 -209 l 608 -216 l 629 -219 b 671 -226 643 -222 657 -224 b 712 -232 684 -228 698 -230 b 754 -236 726 -233 740 -235 b 796 -239 768 -237 782 -239 b 838 -241 810 -240 824 -241 b 923 -241 867 -242 895 -242 b 1007 -238 951 -240 979 -239 b 1174 -226 1063 -235 1118 -230 b 1509 -204 1286 -217 1397 -207 b 1592 -203 1536 -203 1564 -202 b 1676 -206 1620 -203 1648 -204 b 1758 -218 1703 -208 1731 -212 b 1835 -247 1785 -224 1812 -233 l 1838 -242 b 1760 -211 1814 -227 1787 -218 z m 1012 91 b 1138 204 1059 122 1103 159 b 1162 240 1147 216 1155 227 b 1181 279 1170 252 1176 265 b 1193 321 1187 292 1191 306 b 1195 332 1194 324 1194 328 b 1195 343 1195 335 1195 339 l 1195 346 b 1196 352 1195 348 1196 350 l 1196 355 l 1196 355 l 1196 355 l 1196 355 b 1196 360 1196 357 1196 358 b 1179 357 1164 362 1184 358 b 1179 357 1179 359 1179 358 b 1179 357 1179 357 1179 357 b 1178 354 1178 356 1178 355 b 1178 351 1178 353 1178 352 l 1178 349 b 1152 280 1175 325 1166 301 b 1125 251 1145 269 1136 260 b 1092 231 1115 243 1104 236 b 1015 219 1068 221 1041 217 b 976 226 1002 220 989 222 b 967 228 973 227 969 227 b 958 232 964 229 961 231 b 940 241 952 235 946 238 b 879 293 917 255 897 272 b 841 362 862 313 849 337 b 835 441 834 388 832 415 b 857 519 838 468 846 494 b 876 554 862 531 869 543 b 902 586 884 566 892 576 b 933 612 911 596 922 604 b 969 632 945 620 957 626 b 1049 651 995 643 1022 649 b 1132 645 1077 653 1105 651 b 1208 614 1159 638 1184 628 b 1270 560 1232 600 1253 582 b 1293 527 1279 550 1286 539 b 1309 490 1299 515 1305 503 b 1323 411 1318 465 1323 438 b 1314 330 1323 384 1320 357 b 1303 291 1311 317 1307 304 b 1289 252 1299 278 1294 265 b 1190 123 1266 202 1232 158 b 1045 43 1147 88 1098 61 b 883 19 993 26 938 18 b 1012 91 928 40 971 64 z m 1004 884 b 1024 881 1011 884 1017 882 b 1040 872 1030 879 1035 876 b 1046 858 1045 869 1048 863 b 1042 851 1045 855 1044 853 b 1034 846 1039 848 1036 847 b 1014 843 1027 843 1021 842 b 995 848 1008 844 1001 845 b 964 872 983 853 973 861 b 953 888 960 877 956 882 b 964 888 956 888 960 888 b 1004 884 977 888 991 887 z m 1022 1236 b 1073 1287 1036 1255 1054 1272 b 1137 1321 1092 1302 1114 1313 b 1212 1330 1161 1328 1186 1332 b 1222 1330 1215 1330 1218 1330 b 1232 1329 1225 1329 1228 1329 b 1252 1327 1238 1329 1245 1328 b 1290 1317 1265 1325 1278 1322 b 1323 1296 1302 1312 1313 1305 b 1339 1263 1332 1288 1338 1276 b 1328 1226 1340 1250 1336 1237 b 1298 1200 1320 1215 1310 1206 b 1279 1194 1292 1197 1285 1195 b 1259 1190 1272 1192 1265 1191 b 1217 1187 1245 1188 1231 1187 b 1135 1198 1189 1188 1162 1191 b 1054 1221 1108 1205 1081 1213 b 1019 1233 1043 1225 1031 1229 b 1022 1236 1020 1234 1021 1235 z m 502 694 b 477 656 493 682 485 669 b 454 616 469 643 461 630 b 422 528 441 588 430 558 b 407 435 414 498 409 466 b 413 340 406 403 408 371 b 439 250 418 309 427 279 b 449 228 442 242 445 235 b 459 207 452 221 455 214 b 484 167 467 193 475 180 b 487 164 485 166 486 165 b 475 166 483 165 479 166 b 319 223 421 178 369 197 b 249 267 295 236 271 250 b 186 320 227 283 206 301 b 133 383 167 340 149 361 b 90 453 117 405 103 428 b 36 606 65 501 47 553 b 26 687 31 633 27 660 b 26 728 25 701 25 714 b 29 769 26 741 27 755 b 41 849 31 796 35 823 b 65 928 47 876 55 902 b 142 1072 84 979 110 1028 b 563 1310 241 1208 395 1295 b 583 1312 570 1311 577 1311 b 604 1312 590 1312 597 1312 b 646 1311 618 1313 632 1312 b 729 1301 674 1310 702 1306 b 893 1267 784 1293 839 1281 b 915 1261 900 1265 907 1263 b 891 1230 906 1251 898 1241 b 848 1145 873 1203 859 1175 b 828 1051 837 1115 830 1083 b 843 951 826 1017 831 983 b 854 928 846 943 850 935 b 865 910 858 921 861 915 b 709 864 811 903 759 888 b 562 763 655 838 606 804 b 502 694 540 742 520 719 z m 1196 355 b 1196 355 1197 355 1197 355 z "},"Ê":{"ha":1385,"x_min":0,"x_max":0,"o":"m 1760 -211 b 1676 -198 1732 -205 1704 -200 b 1508 -192 1620 -192 1564 -190 b 1340 -199 1452 -193 1396 -196 b 1173 -211 1285 -203 1229 -207 b 1006 -221 1117 -215 1062 -219 b 839 -224 950 -224 894 -226 b 797 -223 825 -224 811 -223 b 756 -219 784 -222 770 -220 b 714 -215 742 -218 728 -217 b 673 -210 701 -213 687 -212 b 632 -203 659 -207 646 -206 l 611 -199 l 591 -195 b 550 -186 577 -192 564 -189 b 530 -181 544 -184 537 -182 b 510 -175 524 -179 517 -177 l 490 -169 b 470 -163 484 -167 477 -165 l 460 -160 b 451 -156 457 -159 454 -157 l 431 -149 b 354 -118 405 -140 379 -129 b 281 -79 329 -106 305 -93 b 211 -33 257 -65 234 -50 b 157 10 193 -20 174 -5 b 207 -18 173 0 190 -9 b 369 -68 258 -42 313 -59 b 538 -76 425 -77 482 -79 b 622 -67 566 -74 594 -71 b 705 -49 650 -63 678 -57 b 726 -43 712 -47 719 -45 l 746 -36 b 785 -22 759 -32 772 -27 b 805 -14 792 -19 798 -17 l 825 -6 l 844 2 l 845 2 b 882 3 857 2 870 2 b 1048 34 939 5 995 16 b 1126 68 1075 44 1101 55 b 1197 114 1151 81 1175 96 b 1305 245 1242 148 1280 193 b 1321 285 1311 258 1317 271 b 1333 326 1326 298 1330 312 b 1342 411 1340 354 1343 382 b 1326 496 1342 440 1336 469 b 1307 535 1321 510 1314 523 b 1280 569 1299 547 1290 559 b 1213 622 1261 591 1238 608 b 1133 651 1188 635 1161 645 b 966 639 1078 662 1019 659 b 894 594 940 629 915 613 b 865 563 883 585 873 574 b 842 526 856 551 848 539 b 816 443 829 500 820 472 b 822 356 812 414 814 385 b 863 279 831 328 844 302 b 929 222 882 257 904 237 b 949 212 936 219 942 215 b 960 208 952 211 956 209 b 970 205 963 207 967 206 b 1014 198 984 201 999 199 b 1058 200 1028 197 1043 197 b 1100 213 1072 202 1087 206 b 1138 236 1114 219 1127 227 b 1142 240 1140 237 1141 239 b 1125 215 1137 231 1131 223 b 1002 105 1091 172 1048 136 b 856 26 956 75 907 48 l 848 22 b 724 57 805 27 763 39 b 613 142 682 77 644 106 b 641 141 623 142 632 141 b 725 142 669 141 697 141 b 809 149 753 144 781 146 l 808 155 b 725 147 780 151 752 149 b 641 146 697 146 669 146 b 609 148 630 147 619 147 b 604 154 607 150 605 152 b 565 217 589 173 576 194 b 550 250 559 228 555 239 l 544 268 l 543 272 l 541 277 l 538 285 b 523 357 531 309 526 333 b 522 366 522 360 522 363 l 521 375 b 520 393 520 381 520 387 l 519 402 b 519 411 519 405 519 408 b 520 430 519 418 519 424 b 626 705 523 527 563 623 b 738 814 658 747 696 783 b 883 880 782 844 831 868 b 892 882 886 880 889 881 b 906 872 897 878 902 875 b 948 849 920 863 934 855 b 992 836 962 842 977 838 b 1036 840 1007 834 1022 834 b 1046 846 1040 841 1043 843 b 1053 856 1049 848 1051 852 b 1053 868 1054 860 1055 864 b 1047 879 1052 872 1050 876 b 1028 893 1042 885 1036 890 b 1008 901 1022 896 1015 899 b 965 909 994 904 980 907 b 942 911 958 910 950 911 b 938 924 941 916 939 920 b 937 928 937 926 937 927 b 935 932 936 929 936 931 b 933 940 935 935 934 937 b 930 972 931 950 930 961 b 937 1039 930 995 932 1017 b 954 1108 941 1063 946 1086 b 982 1175 961 1131 971 1153 b 1017 1230 992 1194 1004 1212 b 1053 1218 1029 1226 1041 1222 b 1134 1194 1080 1209 1107 1201 b 1217 1181 1161 1186 1189 1182 b 1259 1184 1231 1181 1245 1182 b 1280 1187 1266 1185 1273 1186 b 1301 1194 1287 1189 1294 1191 b 1334 1222 1314 1201 1325 1210 b 1349 1263 1343 1234 1349 1248 b 1345 1286 1349 1271 1348 1279 b 1333 1306 1342 1293 1338 1300 b 1300 1335 1324 1317 1313 1328 b 1260 1356 1287 1343 1274 1350 b 1239 1364 1253 1359 1246 1361 l 1229 1368 b 1224 1369 1227 1368 1225 1369 l 1218 1371 b 1034 1354 1157 1386 1092 1380 b 954 1302 1005 1340 978 1323 b 916 1263 940 1290 928 1277 b 894 1269 909 1265 901 1267 b 730 1304 840 1283 785 1295 b 688 1311 716 1307 702 1309 b 646 1315 674 1313 660 1314 b 604 1317 632 1316 618 1317 b 583 1316 597 1317 590 1317 b 562 1315 576 1316 569 1316 b 479 1303 534 1313 506 1309 b 398 1280 451 1297 424 1289 b 249 1201 345 1260 295 1234 b 231 1189 243 1197 237 1193 b 215 1176 226 1185 220 1180 b 183 1148 204 1167 193 1157 b 39 938 120 1089 71 1017 b 13 856 29 911 20 884 b -2 772 6 828 1 800 b -5 729 -3 757 -4 743 b -5 686 -6 714 -6 700 b 7 600 -3 657 0 628 b 67 440 19 544 39 490 b 115 369 81 415 97 391 b 173 306 133 347 152 326 b 314 212 215 268 262 236 b 474 159 365 188 418 170 b 494 155 480 158 487 156 b 515 131 500 147 507 139 b 549 99 525 119 537 109 b 627 50 573 79 599 63 b 711 19 654 37 682 26 b 805 4 741 11 773 6 l 799 2 b 779 -6 792 -1 786 -4 b 740 -20 766 -11 753 -16 l 720 -27 b 701 -33 714 -29 707 -31 b 620 -50 674 -40 647 -46 b 537 -59 592 -54 565 -57 b 372 -51 482 -62 427 -60 b 215 -3 317 -43 264 -26 b 83 94 165 21 120 54 b 56 126 73 105 65 115 b 50 134 54 129 52 131 b 44 142 48 137 46 140 l 38 151 l 38 151 l 38 152 b 23 143 39 154 41 156 l 23 143 b 24 142 21 142 22 142 l 24 141 l 27 137 b 77 68 42 113 59 90 b 201 -47 114 25 156 -14 b 272 -93 224 -64 248 -79 b 347 -133 297 -108 322 -121 b 425 -165 373 -145 399 -155 l 445 -172 b 455 -176 448 -173 452 -175 l 465 -179 b 485 -185 472 -181 479 -183 l 506 -191 b 526 -197 512 -193 519 -195 b 546 -202 533 -199 539 -200 b 587 -211 560 -205 574 -209 l 608 -216 l 629 -219 b 671 -226 643 -222 657 -224 b 712 -232 684 -228 698 -230 b 754 -236 726 -233 740 -235 b 796 -239 768 -237 782 -239 b 838 -241 810 -240 824 -241 b 923 -241 867 -242 895 -242 b 1007 -238 951 -240 979 -239 b 1174 -226 1063 -235 1118 -230 b 1509 -204 1286 -217 1397 -207 b 1592 -203 1536 -203 1564 -202 b 1676 -206 1620 -203 1648 -204 b 1758 -218 1703 -208 1731 -212 b 1835 -247 1785 -224 1812 -233 l 1838 -242 b 1760 -211 1814 -227 1787 -218 z m 1012 91 b 1138 204 1059 122 1103 159 b 1162 240 1147 216 1155 227 b 1181 279 1170 252 1176 265 b 1193 321 1187 292 1191 306 b 1195 332 1194 324 1194 328 b 1195 343 1195 335 1195 339 l 1195 346 b 1196 352 1195 348 1196 350 l 1196 355 l 1196 355 l 1196 355 l 1196 355 b 1196 360 1196 357 1196 358 b 1179 357 1164 362 1184 358 b 1179 357 1179 359 1179 358 b 1179 357 1179 357 1179 357 b 1178 354 1178 356 1178 355 b 1178 351 1178 353 1178 352 l 1178 349 b 1152 280 1175 325 1166 301 b 1125 251 1145 269 1136 260 b 1092 231 1115 243 1104 236 b 1015 219 1068 221 1041 217 b 976 226 1002 220 989 222 b 967 228 973 227 969 227 b 958 232 964 229 961 231 b 940 241 952 235 946 238 b 879 293 917 255 897 272 b 841 362 862 313 849 337 b 835 441 834 388 832 415 b 857 519 838 468 846 494 b 876 554 862 531 869 543 b 902 586 884 566 892 576 b 933 612 911 596 922 604 b 969 632 945 620 957 626 b 1049 651 995 643 1022 649 b 1132 645 1077 653 1105 651 b 1208 614 1159 638 1184 628 b 1270 560 1232 600 1253 582 b 1293 527 1279 550 1286 539 b 1309 490 1299 515 1305 503 b 1323 411 1318 465 1323 438 b 1314 330 1323 384 1320 357 b 1303 291 1311 317 1307 304 b 1289 252 1299 278 1294 265 b 1190 123 1266 202 1232 158 b 1045 43 1147 88 1098 61 b 883 19 993 26 938 18 b 1012 91 928 40 971 64 z m 1004 884 b 1024 881 1011 884 1017 882 b 1040 872 1030 879 1035 876 b 1046 858 1045 869 1048 863 b 1042 851 1045 855 1044 853 b 1034 846 1039 848 1036 847 b 1014 843 1027 843 1021 842 b 995 848 1008 844 1001 845 b 964 872 983 853 973 861 b 953 888 960 877 956 882 b 964 888 956 888 960 888 b 1004 884 977 888 991 887 z m 1022 1236 b 1073 1287 1036 1255 1054 1272 b 1137 1321 1092 1302 1114 1313 b 1212 1330 1161 1328 1186 1332 b 1222 1330 1215 1330 1218 1330 b 1232 1329 1225 1329 1228 1329 b 1252 1327 1238 1329 1245 1328 b 1290 1317 1265 1325 1278 1322 b 1323 1296 1302 1312 1313 1305 b 1339 1263 1332 1288 1338 1276 b 1328 1226 1340 1250 1336 1237 b 1298 1200 1320 1215 1310 1206 b 1279 1194 1292 1197 1285 1195 b 1259 1190 1272 1192 1265 1191 b 1217 1187 1245 1188 1231 1187 b 1135 1198 1189 1188 1162 1191 b 1054 1221 1108 1205 1081 1213 b 1019 1233 1043 1225 1031 1229 b 1022 1236 1020 1234 1021 1235 z m 502 694 b 477 656 493 682 485 669 b 454 616 469 643 461 630 b 422 528 441 588 430 558 b 407 435 414 498 409 466 b 413 340 406 403 408 371 b 439 250 418 309 427 279 b 449 228 442 242 445 235 b 459 207 452 221 455 214 b 484 167 467 193 475 180 b 487 164 485 166 486 165 b 475 166 483 165 479 166 b 319 223 421 178 369 197 b 249 267 295 236 271 250 b 186 320 227 283 206 301 b 133 383 167 340 149 361 b 90 453 117 405 103 428 b 36 606 65 501 47 553 b 26 687 31 633 27 660 b 26 728 25 701 25 714 b 29 769 26 741 27 755 b 41 849 31 796 35 823 b 65 928 47 876 55 902 b 142 1072 84 979 110 1028 b 563 1310 241 1208 395 1295 b 583 1312 570 1311 577 1311 b 604 1312 590 1312 597 1312 b 646 1311 618 1313 632 1312 b 729 1301 674 1310 702 1306 b 893 1267 784 1293 839 1281 b 915 1261 900 1265 907 1263 b 891 1230 906 1251 898 1241 b 848 1145 873 1203 859 1175 b 828 1051 837 1115 830 1083 b 843 951 826 1017 831 983 b 854 928 846 943 850 935 b 865 910 858 921 861 915 b 709 864 811 903 759 888 b 562 763 655 838 606 804 b 502 694 540 742 520 719 z m 1196 355 b 1196 355 1197 355 1197 355 z "},"Ë":{"ha":1385,"x_min":0,"x_max":0,"o":"m 1760 -211 b 1676 -198 1732 -205 1704 -200 b 1508 -192 1620 -192 1564 -190 b 1340 -199 1452 -193 1396 -196 b 1173 -211 1285 -203 1229 -207 b 1006 -221 1117 -215 1062 -219 b 839 -224 950 -224 894 -226 b 797 -223 825 -224 811 -223 b 756 -219 784 -222 770 -220 b 714 -215 742 -218 728 -217 b 673 -210 701 -213 687 -212 b 632 -203 659 -207 646 -206 l 611 -199 l 591 -195 b 550 -186 577 -192 564 -189 b 530 -181 544 -184 537 -182 b 510 -175 524 -179 517 -177 l 490 -169 b 470 -163 484 -167 477 -165 l 460 -160 b 451 -156 457 -159 454 -157 l 431 -149 b 354 -118 405 -140 379 -129 b 281 -79 329 -106 305 -93 b 211 -33 257 -65 234 -50 b 157 10 193 -20 174 -5 b 207 -18 173 0 190 -9 b 369 -68 258 -42 313 -59 b 538 -76 425 -77 482 -79 b 622 -67 566 -74 594 -71 b 705 -49 650 -63 678 -57 b 726 -43 712 -47 719 -45 l 746 -36 b 785 -22 759 -32 772 -27 b 805 -14 792 -19 798 -17 l 825 -6 l 844 2 l 845 2 b 882 3 857 2 870 2 b 1048 34 939 5 995 16 b 1126 68 1075 44 1101 55 b 1197 114 1151 81 1175 96 b 1305 245 1242 148 1280 193 b 1321 285 1311 258 1317 271 b 1333 326 1326 298 1330 312 b 1342 411 1340 354 1343 382 b 1326 496 1342 440 1336 469 b 1307 535 1321 510 1314 523 b 1280 569 1299 547 1290 559 b 1213 622 1261 591 1238 608 b 1133 651 1188 635 1161 645 b 966 639 1078 662 1019 659 b 894 594 940 629 915 613 b 865 563 883 585 873 574 b 842 526 856 551 848 539 b 816 443 829 500 820 472 b 822 356 812 414 814 385 b 863 279 831 328 844 302 b 929 222 882 257 904 237 b 949 212 936 219 942 215 b 960 208 952 211 956 209 b 970 205 963 207 967 206 b 1014 198 984 201 999 199 b 1058 200 1028 197 1043 197 b 1100 213 1072 202 1087 206 b 1138 236 1114 219 1127 227 b 1142 240 1140 237 1141 239 b 1125 215 1137 231 1131 223 b 1002 105 1091 172 1048 136 b 856 26 956 75 907 48 l 848 22 b 724 57 805 27 763 39 b 613 142 682 77 644 106 b 641 141 623 142 632 141 b 725 142 669 141 697 141 b 809 149 753 144 781 146 l 808 155 b 725 147 780 151 752 149 b 641 146 697 146 669 146 b 609 148 630 147 619 147 b 604 154 607 150 605 152 b 565 217 589 173 576 194 b 550 250 559 228 555 239 l 544 268 l 543 272 l 541 277 l 538 285 b 523 357 531 309 526 333 b 522 366 522 360 522 363 l 521 375 b 520 393 520 381 520 387 l 519 402 b 519 411 519 405 519 408 b 520 430 519 418 519 424 b 626 705 523 527 563 623 b 738 814 658 747 696 783 b 883 880 782 844 831 868 b 892 882 886 880 889 881 b 906 872 897 878 902 875 b 948 849 920 863 934 855 b 992 836 962 842 977 838 b 1036 840 1007 834 1022 834 b 1046 846 1040 841 1043 843 b 1053 856 1049 848 1051 852 b 1053 868 1054 860 1055 864 b 1047 879 1052 872 1050 876 b 1028 893 1042 885 1036 890 b 1008 901 1022 896 1015 899 b 965 909 994 904 980 907 b 942 911 958 910 950 911 b 938 924 941 916 939 920 b 937 928 937 926 937 927 b 935 932 936 929 936 931 b 933 940 935 935 934 937 b 930 972 931 950 930 961 b 937 1039 930 995 932 1017 b 954 1108 941 1063 946 1086 b 982 1175 961 1131 971 1153 b 1017 1230 992 1194 1004 1212 b 1053 1218 1029 1226 1041 1222 b 1134 1194 1080 1209 1107 1201 b 1217 1181 1161 1186 1189 1182 b 1259 1184 1231 1181 1245 1182 b 1280 1187 1266 1185 1273 1186 b 1301 1194 1287 1189 1294 1191 b 1334 1222 1314 1201 1325 1210 b 1349 1263 1343 1234 1349 1248 b 1345 1286 1349 1271 1348 1279 b 1333 1306 1342 1293 1338 1300 b 1300 1335 1324 1317 1313 1328 b 1260 1356 1287 1343 1274 1350 b 1239 1364 1253 1359 1246 1361 l 1229 1368 b 1224 1369 1227 1368 1225 1369 l 1218 1371 b 1034 1354 1157 1386 1092 1380 b 954 1302 1005 1340 978 1323 b 916 1263 940 1290 928 1277 b 894 1269 909 1265 901 1267 b 730 1304 840 1283 785 1295 b 688 1311 716 1307 702 1309 b 646 1315 674 1313 660 1314 b 604 1317 632 1316 618 1317 b 583 1316 597 1317 590 1317 b 562 1315 576 1316 569 1316 b 479 1303 534 1313 506 1309 b 398 1280 451 1297 424 1289 b 249 1201 345 1260 295 1234 b 231 1189 243 1197 237 1193 b 215 1176 226 1185 220 1180 b 183 1148 204 1167 193 1157 b 39 938 120 1089 71 1017 b 13 856 29 911 20 884 b -2 772 6 828 1 800 b -5 729 -3 757 -4 743 b -5 686 -6 714 -6 700 b 7 600 -3 657 0 628 b 67 440 19 544 39 490 b 115 369 81 415 97 391 b 173 306 133 347 152 326 b 314 212 215 268 262 236 b 474 159 365 188 418 170 b 494 155 480 158 487 156 b 515 131 500 147 507 139 b 549 99 525 119 537 109 b 627 50 573 79 599 63 b 711 19 654 37 682 26 b 805 4 741 11 773 6 l 799 2 b 779 -6 792 -1 786 -4 b 740 -20 766 -11 753 -16 l 720 -27 b 701 -33 714 -29 707 -31 b 620 -50 674 -40 647 -46 b 537 -59 592 -54 565 -57 b 372 -51 482 -62 427 -60 b 215 -3 317 -43 264 -26 b 83 94 165 21 120 54 b 56 126 73 105 65 115 b 50 134 54 129 52 131 b 44 142 48 137 46 140 l 38 151 l 38 151 l 38 152 b 23 143 39 154 41 156 l 23 143 b 24 142 21 142 22 142 l 24 141 l 27 137 b 77 68 42 113 59 90 b 201 -47 114 25 156 -14 b 272 -93 224 -64 248 -79 b 347 -133 297 -108 322 -121 b 425 -165 373 -145 399 -155 l 445 -172 b 455 -176 448 -173 452 -175 l 465 -179 b 485 -185 472 -181 479 -183 l 506 -191 b 526 -197 512 -193 519 -195 b 546 -202 533 -199 539 -200 b 587 -211 560 -205 574 -209 l 608 -216 l 629 -219 b 671 -226 643 -222 657 -224 b 712 -232 684 -228 698 -230 b 754 -236 726 -233 740 -235 b 796 -239 768 -237 782 -239 b 838 -241 810 -240 824 -241 b 923 -241 867 -242 895 -242 b 1007 -238 951 -240 979 -239 b 1174 -226 1063 -235 1118 -230 b 1509 -204 1286 -217 1397 -207 b 1592 -203 1536 -203 1564 -202 b 1676 -206 1620 -203 1648 -204 b 1758 -218 1703 -208 1731 -212 b 1835 -247 1785 -224 1812 -233 l 1838 -242 b 1760 -211 1814 -227 1787 -218 z m 1012 91 b 1138 204 1059 122 1103 159 b 1162 240 1147 216 1155 227 b 1181 279 1170 252 1176 265 b 1193 321 1187 292 1191 306 b 1195 332 1194 324 1194 328 b 1195 343 1195 335 1195 339 l 1195 346 b 1196 352 1195 348 1196 350 l 1196 355 l 1196 355 l 1196 355 l 1196 355 b 1196 360 1196 357 1196 358 b 1179 357 1164 362 1184 358 b 1179 357 1179 359 1179 358 b 1179 357 1179 357 1179 357 b 1178 354 1178 356 1178 355 b 1178 351 1178 353 1178 352 l 1178 349 b 1152 280 1175 325 1166 301 b 1125 251 1145 269 1136 260 b 1092 231 1115 243 1104 236 b 1015 219 1068 221 1041 217 b 976 226 1002 220 989 222 b 967 228 973 227 969 227 b 958 232 964 229 961 231 b 940 241 952 235 946 238 b 879 293 917 255 897 272 b 841 362 862 313 849 337 b 835 441 834 388 832 415 b 857 519 838 468 846 494 b 876 554 862 531 869 543 b 902 586 884 566 892 576 b 933 612 911 596 922 604 b 969 632 945 620 957 626 b 1049 651 995 643 1022 649 b 1132 645 1077 653 1105 651 b 1208 614 1159 638 1184 628 b 1270 560 1232 600 1253 582 b 1293 527 1279 550 1286 539 b 1309 490 1299 515 1305 503 b 1323 411 1318 465 1323 438 b 1314 330 1323 384 1320 357 b 1303 291 1311 317 1307 304 b 1289 252 1299 278 1294 265 b 1190 123 1266 202 1232 158 b 1045 43 1147 88 1098 61 b 883 19 993 26 938 18 b 1012 91 928 40 971 64 z m 1004 884 b 1024 881 1011 884 1017 882 b 1040 872 1030 879 1035 876 b 1046 858 1045 869 1048 863 b 1042 851 1045 855 1044 853 b 1034 846 1039 848 1036 847 b 1014 843 1027 843 1021 842 b 995 848 1008 844 1001 845 b 964 872 983 853 973 861 b 953 888 960 877 956 882 b 964 888 956 888 960 888 b 1004 884 977 888 991 887 z m 1022 1236 b 1073 1287 1036 1255 1054 1272 b 1137 1321 1092 1302 1114 1313 b 1212 1330 1161 1328 1186 1332 b 1222 1330 1215 1330 1218 1330 b 1232 1329 1225 1329 1228 1329 b 1252 1327 1238 1329 1245 1328 b 1290 1317 1265 1325 1278 1322 b 1323 1296 1302 1312 1313 1305 b 1339 1263 1332 1288 1338 1276 b 1328 1226 1340 1250 1336 1237 b 1298 1200 1320 1215 1310 1206 b 1279 1194 1292 1197 1285 1195 b 1259 1190 1272 1192 1265 1191 b 1217 1187 1245 1188 1231 1187 b 1135 1198 1189 1188 1162 1191 b 1054 1221 1108 1205 1081 1213 b 1019 1233 1043 1225 1031 1229 b 1022 1236 1020 1234 1021 1235 z m 502 694 b 477 656 493 682 485 669 b 454 616 469 643 461 630 b 422 528 441 588 430 558 b 407 435 414 498 409 466 b 413 340 406 403 408 371 b 439 250 418 309 427 279 b 449 228 442 242 445 235 b 459 207 452 221 455 214 b 484 167 467 193 475 180 b 487 164 485 166 486 165 b 475 166 483 165 479 166 b 319 223 421 178 369 197 b 249 267 295 236 271 250 b 186 320 227 283 206 301 b 133 383 167 340 149 361 b 90 453 117 405 103 428 b 36 606 65 501 47 553 b 26 687 31 633 27 660 b 26 728 25 701 25 714 b 29 769 26 741 27 755 b 41 849 31 796 35 823 b 65 928 47 876 55 902 b 142 1072 84 979 110 1028 b 563 1310 241 1208 395 1295 b 583 1312 570 1311 577 1311 b 604 1312 590 1312 597 1312 b 646 1311 618 1313 632 1312 b 729 1301 674 1310 702 1306 b 893 1267 784 1293 839 1281 b 915 1261 900 1265 907 1263 b 891 1230 906 1251 898 1241 b 848 1145 873 1203 859 1175 b 828 1051 837 1115 830 1083 b 843 951 826 1017 831 983 b 854 928 846 943 850 935 b 865 910 858 921 861 915 b 709 864 811 903 759 888 b 562 763 655 838 606 804 b 502 694 540 742 520 719 z m 1196 355 b 1196 355 1197 355 1197 355 z "},"F":{"ha":1482,"x_min":0,"x_max":0,"o":"m 1846 -231 b 1774 -197 1823 -218 1799 -207 b 1698 -171 1749 -187 1724 -178 b 1541 -144 1647 -157 1594 -148 b 1381 -147 1487 -141 1434 -142 b 1223 -167 1328 -151 1275 -159 b 910 -221 1118 -185 1014 -207 b 753 -235 858 -228 806 -233 b 597 -228 701 -237 649 -234 b 519 -216 571 -225 545 -221 b 444 -196 494 -210 469 -204 b 371 -169 419 -189 395 -179 b 302 -133 347 -158 324 -146 b 182 -35 258 -106 217 -73 b 91 91 146 3 116 45 b 35 236 67 137 48 186 b 22 313 29 261 25 287 b 17 390 18 338 17 364 b 41 543 18 442 26 494 b 55 580 45 556 50 568 b 63 597 57 586 60 591 b 64 598 63 597 63 598 b 55 570 60 589 57 579 b 47 528 52 556 49 542 b 46 443 43 500 43 472 b 64 360 49 415 55 387 b 98 282 73 333 84 307 b 120 246 105 270 112 258 b 146 212 128 235 137 223 b 174 180 155 201 164 191 b 204 151 183 170 194 160 b 237 124 215 141 226 132 b 254 111 242 119 248 115 b 271 99 260 107 265 103 b 424 28 319 68 370 44 b 465 17 437 24 451 20 b 506 9 478 14 492 11 b 548 4 520 7 534 5 b 590 2 562 3 576 2 b 757 21 646 1 702 7 b 915 83 812 36 865 56 b 1059 175 966 109 1014 140 b 1186 293 1105 211 1147 250 b 1242 359 1206 314 1224 336 b 1292 430 1259 382 1276 406 b 1336 505 1308 454 1322 479 b 1356 543 1343 517 1349 530 l 1374 580 b 1401 636 1383 599 1392 618 b 1434 642 1412 638 1423 640 b 1453 645 1440 643 1447 644 b 1472 648 1459 646 1466 647 b 1509 649 1484 649 1497 650 b 1527 647 1515 649 1521 648 b 1539 640 1531 646 1535 644 b 1540 625 1541 637 1542 631 b 1534 607 1539 619 1537 612 b 1541 614 1536 609 1539 611 b 1547 622 1543 616 1546 619 b 1552 633 1549 625 1551 629 b 1551 646 1553 637 1553 641 b 1544 657 1550 650 1547 654 b 1534 664 1541 660 1538 662 b 1513 673 1528 668 1521 671 b 1471 679 1499 676 1485 678 b 1450 679 1464 679 1457 679 b 1430 679 1444 679 1437 679 b 1421 678 1427 679 1424 678 b 1446 729 1429 695 1438 712 b 1518 878 1470 779 1493 829 b 1554 951 1530 903 1542 927 b 1593 1022 1567 975 1580 999 b 1615 1056 1600 1034 1607 1045 b 1639 1086 1622 1067 1630 1077 b 1652 1096 1643 1090 1647 1093 b 1666 1100 1656 1099 1661 1100 b 1680 1091 1671 1099 1676 1096 b 1685 1083 1682 1089 1684 1086 b 1690 1073 1687 1080 1689 1077 b 1688 1095 1690 1081 1690 1088 b 1682 1106 1686 1099 1685 1103 b 1673 1116 1680 1110 1677 1113 b 1659 1120 1669 1118 1664 1120 b 1645 1120 1654 1121 1650 1121 b 1621 1112 1637 1119 1629 1116 b 1601 1100 1614 1109 1607 1105 b 1583 1087 1594 1096 1588 1092 b 1549 1057 1571 1078 1560 1068 b 1492 992 1529 1037 1510 1015 b 1440 923 1474 970 1457 947 b 1351 779 1408 877 1378 828 b 1285 654 1327 738 1306 696 b 1272 652 1281 654 1276 653 b 1234 646 1259 650 1246 648 b 1195 642 1221 644 1208 643 b 1118 639 1170 639 1144 638 b 1081 644 1106 640 1093 642 b 1046 655 1069 646 1057 650 b 1018 678 1035 661 1026 668 b 1004 714 1011 689 1006 701 b 1009 673 1002 700 1004 686 b 1036 640 1015 660 1024 648 b 1074 620 1048 631 1061 624 b 1115 609 1087 615 1101 611 b 1197 604 1142 605 1170 603 b 1238 606 1211 604 1225 605 b 1263 609 1246 607 1255 608 l 1254 592 b 1237 555 1249 579 1243 567 b 1201 483 1225 531 1214 507 b 1122 342 1177 435 1151 388 b 1025 212 1093 296 1061 253 b 967 154 1007 192 987 172 b 935 128 957 145 946 137 b 919 116 930 124 924 120 b 902 104 913 112 908 108 b 590 11 810 42 701 10 b 549 13 576 11 562 12 b 508 18 535 14 521 16 b 467 27 494 21 480 24 b 427 38 454 30 440 34 b 280 112 375 56 325 80 b 215 163 257 127 235 144 b 159 223 195 181 176 201 b 78 365 124 265 96 313 b 59 527 60 417 54 472 b 77 607 62 554 68 581 b 93 645 82 620 87 633 l 95 649 l 99 654 l 105 661 b 111 669 107 664 109 666 l 114 672 l 115 673 b 115 675 115 674 115 674 b 115 676 115 675 115 676 b 115 676 115 675 115 675 b 115 676 115 676 115 676 b 111 679 113 677 112 678 l 112 680 b 109 681 112 679 113 679 b 104 686 108 683 106 684 b 104 686 104 686 104 686 b 104 686 103 687 103 687 b 103 687 103 687 103 687 b 101 687 102 687 101 687 l 100 686 l 96 682 b 90 675 94 680 92 677 l 83 667 l 77 659 b 54 624 68 648 61 636 b 44 606 51 619 48 612 b 36 588 42 600 38 594 b 21 550 30 576 25 563 b 2 471 13 524 6 498 b -5 391 -2 445 -5 418 b -1 310 -5 364 -4 337 b 13 230 2 283 7 257 b 70 80 26 178 45 127 b 289 -154 121 -17 196 -97 b 436 -220 335 -182 385 -204 b 514 -241 462 -228 488 -235 b 594 -254 540 -246 567 -250 b 754 -260 647 -260 700 -262 b 913 -245 807 -258 860 -253 b 1226 -189 1019 -230 1122 -208 b 1382 -166 1278 -179 1330 -171 b 1540 -160 1435 -160 1487 -158 b 1695 -182 1592 -162 1644 -169 b 1771 -205 1721 -188 1746 -196 b 1843 -236 1795 -214 1820 -224 l 1843 -236 b 1847 -235 1845 -236 1847 -236 b 1846 -231 1848 -233 1847 -231 z m 2032 1300 b 2028 1286 2031 1295 2030 1290 b 2020 1274 2026 1282 2023 1277 b 1997 1259 2014 1267 2006 1262 b 1971 1252 1989 1255 1980 1253 b 1942 1250 1961 1251 1952 1250 b 1913 1252 1933 1251 1923 1251 b 1885 1256 1904 1253 1894 1255 b 1827 1268 1865 1259 1846 1263 b 1713 1303 1788 1277 1751 1290 b 1599 1341 1675 1316 1637 1329 b 1570 1350 1589 1344 1580 1347 b 1555 1355 1566 1351 1560 1353 b 1540 1359 1550 1356 1545 1358 b 1524 1364 1535 1361 1529 1362 b 1509 1368 1519 1365 1514 1366 b 1477 1375 1498 1370 1488 1372 b 1349 1388 1435 1383 1392 1387 b 1222 1379 1307 1388 1264 1386 b 1099 1353 1180 1373 1139 1365 b 981 1312 1059 1342 1019 1328 b 869 1256 942 1296 905 1278 b 818 1221 852 1245 834 1234 b 793 1201 809 1215 801 1208 b 782 1191 789 1198 786 1194 b 770 1180 778 1187 774 1184 b 728 1134 756 1165 741 1150 b 691 1084 715 1118 702 1102 b 636 973 668 1050 650 1012 b 626 941 632 963 629 952 b 571 943 608 943 590 943 b 450 924 530 942 490 935 b 340 871 411 912 374 894 b 253 785 307 847 277 818 b 199 675 229 752 211 715 b 206 434 176 597 179 511 b 262 326 219 395 238 359 b 348 239 286 292 315 263 b 457 184 381 215 418 196 b 579 164 497 171 538 165 b 582 167 580 164 581 166 b 579 170 582 168 581 170 l 579 170 b 463 201 539 176 500 186 b 255 391 373 237 299 305 b 209 555 228 442 213 498 b 220 669 207 593 211 632 b 239 724 225 688 231 706 b 267 775 247 742 256 759 b 303 821 278 791 290 807 b 313 832 306 825 310 828 b 324 842 317 835 321 839 b 347 862 331 849 339 855 b 452 918 377 888 413 907 b 571 932 491 929 531 934 b 601 929 581 932 591 930 b 616 927 606 929 611 928 b 622 926 618 927 620 926 b 613 852 617 901 614 877 b 630 729 611 810 617 768 b 656 673 636 709 645 690 b 695 624 667 655 680 639 b 747 590 711 610 728 599 b 862 609 785 569 832 577 b 893 661 876 623 887 641 b 898 722 898 681 900 702 b 880 780 895 742 890 762 b 846 831 871 799 860 816 b 801 872 832 846 817 860 b 749 905 784 885 767 896 b 692 928 731 915 712 923 b 635 940 674 934 655 938 b 645 970 638 950 641 960 b 702 1077 659 1008 678 1044 b 782 1168 725 1110 752 1141 b 793 1178 786 1171 790 1175 b 805 1187 797 1181 801 1184 b 829 1205 813 1194 821 1200 b 880 1237 846 1217 863 1227 b 1344 1320 1022 1314 1185 1343 b 1458 1296 1383 1314 1421 1306 b 1486 1288 1468 1293 1477 1291 b 1500 1283 1491 1286 1496 1285 b 1514 1278 1505 1282 1509 1280 b 1528 1274 1519 1277 1523 1275 b 1542 1268 1532 1272 1537 1270 b 1571 1258 1551 1264 1561 1261 b 1692 1224 1610 1243 1651 1232 b 1818 1207 1733 1216 1775 1210 b 1882 1206 1839 1206 1860 1206 b 1914 1209 1893 1207 1903 1208 b 1947 1214 1925 1210 1936 1212 b 1978 1224 1957 1217 1968 1220 b 2008 1241 1989 1229 1999 1234 b 2029 1268 2017 1249 2024 1258 b 2033 1284 2031 1274 2033 1279 b 2032 1300 2034 1290 2033 1295 z m 686 907 b 736 881 704 900 720 891 l 748 873 b 760 865 752 870 756 867 b 782 847 767 859 775 853 b 848 765 810 823 834 795 b 862 718 855 750 860 734 b 862 694 863 710 863 702 b 858 672 861 687 860 679 b 853 649 857 664 855 657 b 851 644 852 648 852 646 b 849 638 850 642 850 640 b 844 627 848 634 846 631 b 829 605 840 619 835 612 b 806 590 823 599 815 593 b 799 588 804 589 802 589 b 792 586 797 587 795 587 b 778 586 787 586 783 586 b 763 589 773 587 768 588 b 756 592 761 590 758 591 l 749 595 b 699 629 731 603 714 615 b 661 676 685 643 672 658 b 636 731 651 693 642 712 b 628 760 633 741 630 750 b 623 790 626 770 624 780 b 620 821 621 800 621 811 b 620 851 620 831 620 841 b 631 924 622 876 625 900 b 686 907 650 920 668 914 z "},"G":{"ha":1072,"x_min":0,"x_max":0,"o":"m 1996 -226 b 1993 -226 1995 -226 1994 -226 b 1951 -253 1981 -238 1966 -247 b 1901 -266 1935 -259 1918 -263 b 1850 -270 1884 -268 1867 -270 b 1799 -268 1833 -270 1816 -269 b 1698 -253 1765 -265 1731 -260 b 1597 -230 1664 -247 1631 -239 b 1401 -168 1531 -212 1466 -191 b 1353 -150 1385 -162 1369 -156 b 1304 -132 1337 -144 1321 -138 b 1204 -102 1272 -120 1238 -110 b 1102 -84 1171 -93 1136 -87 b 996 -86 1067 -80 1031 -79 b 946 -105 978 -89 961 -95 b 925 -124 938 -110 931 -116 b 918 -136 922 -127 920 -132 b 913 -149 916 -140 914 -145 b 912 -160 912 -153 912 -156 b 883 -160 902 -160 893 -160 b 780 -168 849 -162 814 -165 b 576 -194 712 -175 644 -184 b 629 -155 594 -182 612 -169 b 771 -2 684 -111 730 -57 b 881 173 812 54 848 113 b 1053 542 947 293 1003 417 b 1090 637 1066 574 1078 605 b 1107 684 1096 653 1102 669 l 1124 732 b 1157 825 1135 763 1146 794 l 1174 872 b 1192 918 1180 887 1186 903 b 1230 1010 1204 949 1216 980 b 1273 1099 1243 1040 1257 1070 b 1325 1182 1288 1128 1305 1155 b 1392 1250 1344 1208 1366 1232 b 1420 1265 1400 1256 1410 1261 b 1433 1261 1425 1264 1429 1263 b 1438 1259 1435 1260 1437 1260 b 1444 1256 1440 1258 1442 1257 b 1459 1251 1449 1253 1454 1252 b 1464 1252 1461 1251 1462 1251 b 1470 1255 1466 1252 1468 1253 b 1474 1262 1472 1257 1474 1259 b 1472 1269 1474 1265 1473 1267 b 1467 1277 1471 1272 1469 1274 b 1460 1282 1465 1279 1463 1280 b 1431 1288 1451 1286 1441 1289 b 1403 1284 1422 1288 1412 1287 b 1378 1273 1394 1281 1386 1278 b 1335 1245 1362 1265 1348 1256 b 1319 1231 1329 1240 1324 1236 b 1318 1230 1319 1231 1319 1231 b 1295 1208 1310 1223 1302 1216 b 1227 1128 1271 1183 1248 1156 b 1115 955 1186 1073 1149 1015 b 1067 864 1098 925 1082 895 b 1014 768 1049 832 1031 800 l 965 679 b 911 596 950 650 931 622 b 843 524 891 570 868 546 b 761 471 818 503 790 485 b 669 447 732 457 700 448 b 584 475 637 446 606 455 b 569 491 578 480 573 485 b 562 500 566 494 564 497 b 557 511 561 504 559 507 b 545 556 551 526 547 541 b 548 649 541 587 544 619 b 565 741 553 680 559 710 b 590 832 572 771 580 802 b 623 921 600 862 611 892 b 663 1009 636 951 649 980 b 763 1173 692 1066 725 1122 l 771 1183 l 779 1192 b 794 1210 784 1198 789 1204 b 828 1245 805 1222 816 1234 b 899 1306 850 1267 874 1288 b 919 1318 906 1310 912 1314 b 939 1328 925 1322 932 1325 b 980 1342 952 1335 966 1340 b 1023 1344 994 1345 1009 1346 b 1063 1328 1037 1341 1051 1336 b 1121 1256 1088 1312 1108 1285 b 1140 1160 1133 1225 1140 1193 b 1134 1110 1140 1143 1138 1126 b 1121 1063 1130 1094 1125 1078 b 1081 973 1111 1031 1098 1001 b 1019 897 1064 945 1043 919 b 937 839 994 874 967 855 b 937 837 936 839 936 838 b 939 836 937 836 938 835 b 1026 888 970 849 1000 866 b 1095 964 1053 910 1076 935 b 1138 1057 1114 993 1128 1024 b 1144 1083 1141 1066 1143 1074 b 1147 1108 1146 1091 1146 1100 b 1149 1159 1148 1125 1149 1142 b 1138 1262 1150 1193 1148 1228 b 1117 1311 1133 1279 1126 1295 b 1083 1353 1108 1327 1096 1341 b 1033 1382 1068 1366 1051 1376 b 975 1390 1014 1388 995 1391 b 919 1380 956 1389 937 1386 b 868 1359 902 1374 884 1367 b 821 1331 852 1351 836 1341 b 779 1298 807 1321 792 1310 b 740 1263 765 1287 752 1275 b 721 1244 733 1256 727 1250 l 712 1234 l 703 1225 b 635 1144 679 1199 656 1172 b 577 1056 614 1115 595 1086 b 492 862 541 995 512 930 b 468 758 481 828 474 793 b 502 542 457 684 469 609 b 530 495 510 526 519 510 b 538 484 532 492 535 488 l 542 479 b 546 473 543 477 545 475 b 615 428 564 451 588 435 b 669 422 633 423 651 421 b 770 451 705 424 739 435 b 856 510 801 467 830 486 b 892 546 868 521 881 533 b 925 585 904 558 914 572 b 979 672 945 612 964 641 b 996 703 985 682 990 693 b 985 677 992 695 989 686 b 949 583 973 646 961 614 b 877 396 925 521 901 458 b 802 212 853 334 828 273 b 715 35 776 151 747 92 b 662 -48 699 6 681 -21 b 600 -122 643 -74 622 -99 b 525 -185 577 -145 552 -166 b 502 -199 517 -190 510 -195 b 473 -199 492 -199 483 -199 b 373 -183 439 -197 406 -192 b 325 -167 357 -179 341 -174 b 279 -146 309 -161 294 -154 b 199 -88 250 -131 223 -111 b 166 -51 187 -77 176 -64 b 109 84 136 -11 116 35 b 106 184 104 117 103 151 b 115 230 108 199 111 215 b 149 257 126 240 137 249 b 192 283 163 267 177 275 b 214 294 199 287 206 291 b 237 302 222 297 229 300 b 261 309 245 305 253 307 b 286 314 269 311 278 313 b 335 317 302 317 319 318 b 432 297 369 317 401 310 b 510 237 463 284 489 264 b 533 194 520 224 528 210 b 544 146 539 179 542 162 l 544 146 l 544 146 b 544 146 544 146 544 146 l 544 146 b 548 142 544 144 546 142 b 551 146 550 143 551 144 l 551 146 l 551 147 b 551 153 551 149 551 151 b 552 159 551 155 551 157 b 553 171 552 163 553 167 b 554 198 554 180 555 189 b 522 296 553 233 542 267 b 486 334 512 310 500 323 b 394 383 459 356 428 373 b 290 395 361 393 325 398 b 188 366 254 393 219 383 b 145 333 172 357 158 346 b 111 290 132 320 120 306 b 83 215 97 266 88 241 b 67 197 77 209 72 203 b -3 7 23 143 -2 76 b 12 -95 -4 -28 1 -62 b 146 -248 35 -162 83 -217 b 244 -277 177 -263 210 -273 b 347 -277 278 -281 313 -281 b 447 -254 381 -273 415 -265 b 471 -245 455 -251 463 -248 l 484 -241 b 496 -236 488 -239 492 -238 b 543 -213 512 -229 527 -222 l 543 -213 b 577 -208 554 -212 565 -210 b 781 -179 645 -198 713 -187 b 884 -170 815 -175 849 -172 b 911 -169 893 -170 902 -169 b 912 -177 911 -172 911 -174 b 918 -204 913 -186 915 -195 b 930 -228 920 -212 925 -221 b 951 -246 936 -235 943 -241 b 975 -257 958 -251 966 -254 b 1001 -260 984 -259 993 -261 b 1028 -254 1011 -260 1020 -258 b 1047 -235 1036 -250 1043 -243 b 1051 -221 1049 -231 1050 -226 b 1051 -208 1052 -217 1052 -212 b 1046 -194 1050 -203 1049 -198 b 1037 -183 1044 -190 1041 -186 b 1013 -171 1030 -178 1022 -173 b 987 -164 1005 -168 996 -166 b 935 -160 970 -162 953 -160 b 924 -160 932 -160 928 -160 b 926 -152 925 -157 925 -155 b 929 -142 926 -149 928 -145 b 936 -132 931 -138 933 -135 b 953 -117 941 -126 946 -121 b 999 -100 967 -108 983 -103 b 1100 -100 1032 -95 1066 -96 b 1200 -119 1134 -104 1167 -110 b 1298 -148 1233 -127 1266 -137 b 1347 -166 1314 -154 1330 -160 b 1395 -184 1363 -172 1379 -178 b 1594 -244 1461 -207 1527 -227 b 1799 -278 1661 -261 1729 -274 b 1851 -279 1816 -279 1833 -280 b 1903 -273 1868 -278 1885 -276 b 1953 -258 1920 -270 1937 -265 b 1996 -229 1969 -251 1984 -241 b 1996 -226 1997 -228 1997 -227 z m 1461 1265 b 1460 1265 1461 1265 1460 1265 b 1461 1265 1461 1265 1461 1265 z m 134 277 b 199 348 149 306 172 330 b 292 381 227 366 259 377 b 392 375 325 386 359 384 b 483 330 425 367 456 351 b 541 247 509 308 529 280 b 550 197 546 231 549 214 b 549 172 550 189 550 180 b 548 168 549 170 548 169 b 540 197 546 178 544 187 b 516 242 534 213 526 228 b 435 304 495 269 467 291 b 336 325 404 317 370 324 b 235 311 301 325 267 321 b 187 292 219 306 203 299 b 143 266 172 284 157 276 b 122 250 136 261 129 256 b 134 277 125 259 129 268 z m 461 -221 b 439 -231 454 -224 446 -227 b 344 -259 408 -243 377 -253 b 246 -264 312 -265 279 -267 b 152 -236 213 -261 181 -252 b 77 -174 123 -221 97 -200 b 14 7 36 -123 13 -59 b 31 103 14 39 20 72 b 77 189 41 134 57 163 b 79 191 78 190 78 191 b 78 187 79 190 79 188 b 81 80 75 151 75 115 b 115 -22 87 44 99 10 b 145 -67 124 -38 134 -53 b 181 -107 156 -81 168 -94 b 269 -167 207 -131 237 -151 b 368 -203 300 -183 334 -195 b 470 -216 402 -211 436 -215 z m 935 -169 b 986 -173 952 -169 969 -170 b 1011 -178 994 -174 1003 -176 b 1032 -189 1018 -181 1026 -184 b 1044 -209 1038 -194 1042 -201 b 1041 -232 1045 -217 1044 -225 b 1025 -249 1038 -239 1032 -245 b 1001 -255 1018 -252 1009 -254 b 938 -222 976 -256 952 -244 b 932 -212 936 -219 934 -215 b 929 -200 931 -208 930 -204 b 924 -176 926 -192 925 -184 b 924 -169 924 -174 924 -171 b 935 -169 927 -169 931 -169 z "},"H":{"ha":1972,"x_min":0,"x_max":0,"o":"m 2737 -279 l 2737 -279 b 2723 -247 2736 -267 2730 -256 b 2698 -223 2716 -238 2707 -230 b 2638 -190 2680 -209 2660 -198 b 2574 -168 2617 -181 2596 -174 b 2508 -153 2552 -162 2530 -157 b 2374 -138 2464 -145 2419 -140 b 2239 -136 2329 -135 2284 -135 b 2105 -147 2194 -138 2149 -142 b 1971 -170 2060 -153 2016 -161 b 1709 -234 1883 -189 1797 -213 b 1579 -265 1666 -245 1622 -256 b 1447 -289 1535 -275 1491 -283 b 1316 -294 1403 -294 1359 -298 b 1253 -282 1294 -292 1273 -288 b 1224 -271 1243 -279 1233 -275 b 1200 -255 1215 -267 1207 -261 b 1189 -236 1194 -250 1191 -243 b 1206 -232 1195 -234 1200 -233 b 1336 -193 1250 -221 1293 -208 b 1399 -167 1357 -185 1378 -177 b 1459 -135 1419 -158 1440 -147 b 1487 -115 1469 -129 1478 -122 b 1500 -103 1492 -111 1496 -107 b 1511 -88 1505 -99 1508 -93 b 1513 -83 1512 -86 1513 -85 b 1514 -78 1514 -82 1514 -80 b 1516 -68 1515 -75 1516 -72 b 1513 -57 1516 -64 1515 -61 b 1506 -48 1511 -54 1509 -51 b 1487 -41 1500 -44 1494 -42 b 1469 -40 1481 -40 1475 -40 b 1434 -45 1457 -41 1446 -42 b 1401 -53 1423 -47 1412 -50 b 1368 -64 1390 -56 1379 -60 b 1337 -76 1358 -68 1347 -72 b 1275 -106 1316 -85 1295 -95 b 1216 -143 1254 -117 1235 -129 b 1190 -167 1207 -151 1198 -159 b 1167 -197 1181 -176 1174 -186 b 1160 -216 1164 -203 1162 -210 b 1158 -227 1159 -220 1158 -223 b 937 -251 1085 -242 1011 -250 b 790 -245 888 -252 839 -250 b 857 -208 813 -234 836 -222 b 1041 -54 925 -165 986 -111 b 1120 37 1069 -25 1095 6 b 1192 133 1145 68 1169 100 b 1226 183 1204 149 1215 166 b 1258 233 1237 199 1248 216 b 1318 337 1279 267 1299 302 b 1372 443 1337 372 1355 407 b 1421 552 1389 479 1406 515 b 1461 649 1435 584 1449 616 b 1504 646 1476 648 1490 647 b 1606 646 1538 644 1572 644 b 1806 680 1674 650 1741 661 b 1851 694 1821 684 1836 689 b 1841 670 1848 686 1844 678 b 1805 576 1829 639 1817 608 b 1739 388 1782 514 1762 450 b 1704 295 1728 356 1716 326 b 1665 204 1692 264 1679 234 b 1645 161 1659 189 1652 175 b 1634 140 1641 154 1637 146 b 1622 119 1630 133 1626 126 b 1596 83 1614 106 1606 94 b 1591 78 1594 81 1593 79 b 1579 75 1587 77 1583 76 b 1553 67 1570 73 1561 70 b 1540 62 1548 65 1544 64 l 1534 59 b 1532 58 1533 59 1533 59 b 1530 57 1531 58 1530 58 b 1524 54 1528 56 1526 55 b 1518 48 1522 52 1520 50 b 1512 35 1515 44 1513 39 b 1513 24 1512 31 1512 28 b 1517 15 1513 21 1515 18 b 1523 8 1518 12 1521 10 b 1528 5 1525 7 1526 6 b 1538 2 1531 3 1534 2 l 1543 2 b 1547 2 1544 2 1545 2 b 1555 2 1549 2 1552 2 b 1586 10 1565 3 1576 6 b 1637 42 1605 17 1622 28 b 1647 51 1640 45 1643 48 b 1681 49 1658 51 1670 51 b 1775 22 1713 44 1744 33 b 1825 8 1791 16 1807 11 b 1852 9 1834 7 1843 7 b 1874 23 1860 11 1868 16 b 1874 27 1875 24 1875 26 b 1870 27 1873 29 1871 29 b 1850 17 1864 22 1857 18 b 1827 18 1842 16 1834 16 b 1781 36 1811 22 1796 29 b 1735 57 1766 43 1751 50 b 1686 74 1719 64 1703 69 b 1670 77 1681 75 1675 76 b 1674 83 1671 79 1673 81 b 1730 172 1696 112 1714 142 b 1819 355 1763 232 1791 293 b 1903 538 1848 416 1877 476 b 1940 631 1916 569 1928 600 l 1977 724 b 1990 758 1981 735 1986 746 b 2154 881 2050 792 2105 833 b 2280 1039 2203 927 2245 981 b 2346 1229 2313 1097 2338 1161 b 2348 1255 2347 1237 2348 1246 b 2346 1281 2348 1263 2347 1272 b 2335 1307 2344 1290 2340 1299 b 2307 1321 2328 1316 2318 1321 b 2279 1316 2298 1321 2288 1320 b 2255 1304 2271 1313 2263 1309 b 2233 1290 2248 1300 2240 1295 l 2212 1275 l 2201 1267 l 2196 1263 l 2191 1259 l 2180 1251 l 2170 1242 b 2161 1234 2167 1240 2164 1237 b 2151 1225 2157 1231 2154 1228 b 2132 1206 2145 1219 2138 1213 b 2068 1125 2108 1181 2087 1154 b 1879 763 1991 1010 1932 888 b 1863 724 1874 750 1868 737 b 1800 705 1842 717 1821 710 b 1752 694 1784 701 1768 697 b 1703 685 1735 690 1719 688 b 1605 676 1670 680 1638 677 b 1506 677 1572 675 1539 675 b 1473 679 1495 678 1484 678 b 1507 773 1485 710 1496 742 b 1584 993 1532 846 1556 920 b 1628 1101 1597 1029 1612 1065 b 1681 1203 1643 1136 1661 1170 b 1710 1244 1690 1217 1699 1231 b 1751 1234 1724 1241 1737 1237 b 1780 1226 1761 1231 1770 1228 b 1810 1220 1789 1223 1799 1221 b 1825 1221 1815 1219 1820 1220 b 1841 1228 1831 1222 1836 1225 b 1850 1243 1845 1232 1849 1237 b 1851 1260 1851 1249 1852 1254 b 1837 1289 1849 1270 1844 1280 b 1811 1307 1830 1297 1821 1303 b 1795 1309 1806 1309 1800 1309 b 1779 1309 1790 1309 1785 1309 b 1749 1301 1769 1308 1758 1305 b 1698 1265 1730 1292 1713 1279 b 1691 1258 1696 1263 1693 1260 b 1639 1268 1673 1262 1656 1265 b 1405 1297 1561 1283 1483 1292 b 1169 1290 1326 1301 1247 1299 b 939 1231 1090 1280 1012 1263 b 835 1173 902 1216 867 1196 b 746 1091 802 1150 772 1122 b 745 1090 746 1091 745 1091 b 703 1086 731 1090 717 1088 b 647 1067 684 1081 665 1075 b 620 1054 638 1063 629 1059 b 595 1038 611 1049 603 1044 b 550 999 578 1027 564 1013 b 515 951 537 984 525 968 b 488 897 504 933 495 916 b 455 782 472 860 462 821 b 450 752 453 772 452 762 b 447 722 449 742 448 732 b 445 663 446 703 445 683 b 453 543 445 623 448 583 b 463 485 456 524 459 504 b 477 426 467 465 472 446 b 514 313 487 388 499 350 b 568 207 529 276 547 241 b 603 158 579 189 590 173 b 623 135 609 150 616 142 b 645 114 630 128 637 121 b 696 82 661 101 678 90 b 725 73 705 78 715 75 b 755 69 735 70 745 69 b 758 72 756 69 758 71 b 755 75 758 74 757 75 l 755 75 b 727 80 745 76 736 77 b 701 91 718 83 709 87 b 655 125 684 100 669 112 b 636 146 648 132 642 139 b 618 169 629 154 624 161 b 587 217 607 185 596 201 b 539 323 568 251 552 286 b 505 434 525 359 514 396 b 475 663 487 509 477 586 b 479 778 474 702 475 740 b 503 891 483 817 491 855 b 525 944 509 910 517 927 b 557 993 534 962 545 978 b 599 1033 569 1008 583 1021 b 623 1049 606 1039 615 1044 b 649 1062 631 1053 640 1058 b 704 1080 667 1070 685 1076 b 733 1083 714 1082 723 1083 b 740 1083 735 1083 737 1083 b 681 989 716 1054 697 1023 b 643 874 664 952 651 914 b 628 755 634 835 629 795 b 628 695 627 735 627 715 b 634 635 629 675 631 654 l 636 627 l 637 620 b 641 605 638 615 640 610 b 651 576 644 595 647 585 b 678 521 658 556 667 538 b 719 476 689 504 703 489 b 745 459 727 470 736 464 b 773 449 754 455 763 451 b 803 445 783 446 793 445 b 833 447 813 444 823 445 b 885 476 853 452 871 462 b 906 499 893 483 900 491 b 922 524 912 507 918 515 b 947 579 932 541 940 560 b 961 638 953 598 957 618 b 965 668 963 648 964 658 b 967 698 966 678 967 688 b 968 728 968 708 968 718 b 967 758 968 738 968 748 b 962 817 966 778 964 797 b 951 877 959 837 956 857 b 944 906 949 886 946 896 b 934 935 941 915 937 925 b 907 989 927 954 918 972 b 870 1038 897 1007 885 1023 b 821 1074 856 1053 839 1065 b 792 1084 812 1078 802 1082 b 778 1087 788 1086 783 1087 b 849 1154 799 1112 823 1134 b 947 1214 879 1178 912 1198 b 1170 1278 1017 1247 1093 1267 b 1404 1288 1248 1289 1326 1292 b 1637 1260 1482 1284 1560 1275 b 1683 1250 1652 1257 1668 1253 b 1657 1221 1674 1241 1665 1231 b 1620 1173 1644 1205 1632 1189 b 1586 1124 1608 1157 1597 1140 b 1523 1022 1564 1090 1543 1056 b 1413 810 1483 953 1446 882 b 1319 596 1381 739 1350 667 l 1272 490 b 1224 384 1256 454 1240 419 b 1175 279 1208 349 1192 314 b 1150 227 1167 261 1158 244 b 1123 175 1141 209 1132 192 b 1004 -23 1088 107 1049 40 b 845 -189 959 -85 907 -143 b 757 -241 818 -209 788 -227 b 672 -225 729 -237 700 -231 b 426 -125 585 -204 501 -171 b 215 39 350 -78 278 -25 b 130 141 184 70 155 105 b 66 257 104 177 83 216 b 30 385 48 298 36 341 b 27 406 29 392 28 399 b 28 431 27 414 27 422 b 41 544 28 469 33 507 b 85 649 50 582 64 618 b 102 672 90 657 96 665 b 122 692 108 679 115 686 b 171 722 137 705 153 715 b 171 722 171 722 171 722 l 171 722 l 171 722 b 174 725 173 722 174 724 b 171 728 174 727 172 728 b 137 719 159 727 148 724 b 109 699 127 713 117 707 b 78 667 97 690 87 679 b 72 659 76 664 74 661 b 40 607 59 643 49 625 b 19 550 32 589 24 570 b -1 432 8 512 1 472 b 3 312 -3 392 -2 352 b 68 81 13 232 34 154 b 129 -22 85 45 105 10 b 206 -114 151 -55 177 -86 b 298 -189 234 -142 265 -167 b 402 -246 331 -211 365 -231 b 515 -282 438 -262 476 -274 b 634 -288 554 -289 594 -291 b 750 -261 674 -284 713 -275 b 760 -258 754 -260 757 -259 b 938 -267 819 -265 878 -269 b 1159 -242 1012 -265 1086 -257 b 1165 -260 1160 -248 1162 -254 b 1178 -277 1169 -266 1173 -272 b 1210 -298 1188 -285 1199 -293 b 1244 -311 1221 -303 1232 -308 b 1313 -323 1267 -318 1290 -322 b 1451 -314 1360 -326 1406 -321 b 1583 -286 1496 -307 1540 -297 b 1714 -250 1627 -275 1670 -262 l 1778 -231 l 1843 -213 b 1973 -179 1886 -201 1930 -189 b 2106 -154 2017 -169 2061 -160 b 2239 -143 2150 -149 2195 -144 b 2374 -143 2284 -140 2329 -141 b 2507 -159 2419 -145 2463 -151 b 2636 -196 2551 -167 2595 -178 b 2694 -229 2656 -204 2676 -215 b 2717 -252 2702 -235 2710 -243 b 2729 -280 2723 -260 2728 -270 b 2729 -280 2729 -280 2729 -280 b 2732 -284 2729 -282 2730 -283 b 2736 -283 2733 -284 2735 -284 b 2738 -279 2737 -282 2738 -281 z m 2134 1085 b 2181 1170 2150 1113 2165 1142 b 2233 1252 2196 1198 2213 1227 l 2241 1261 b 2245 1266 2242 1263 2244 1264 b 2249 1270 2247 1267 2248 1269 b 2267 1286 2255 1276 2261 1281 b 2287 1299 2273 1291 2280 1295 b 2307 1305 2293 1302 2300 1304 b 2323 1298 2313 1305 2319 1303 b 2331 1278 2327 1292 2330 1285 b 2333 1230 2334 1262 2335 1246 b 2325 1182 2332 1214 2329 1198 b 2312 1134 2322 1166 2317 1150 b 2270 1044 2301 1103 2287 1073 b 2145 891 2236 987 2194 935 b 2068 828 2121 868 2095 847 b 2027 801 2054 819 2041 810 b 2002 786 2018 796 2010 791 b 2052 907 2018 827 2035 867 b 2134 1085 2077 967 2104 1027 z m 790 1075 b 815 1063 799 1072 807 1068 b 858 1026 831 1053 846 1041 b 888 979 870 1012 880 996 b 908 926 896 962 903 944 b 922 870 914 908 919 889 b 931 814 926 852 929 833 b 936 756 934 794 935 775 b 938 698 937 737 938 718 b 929 584 938 660 937 621 b 911 530 925 565 919 547 b 898 504 907 521 903 512 b 880 482 893 496 887 489 b 832 453 867 468 850 458 b 803 450 822 451 813 450 b 775 455 794 451 784 453 b 727 484 757 461 740 471 b 694 530 713 498 702 513 b 675 583 686 547 679 565 b 669 611 672 592 671 602 b 667 625 668 616 668 620 l 666 632 l 665 639 b 661 696 663 658 662 677 b 662 754 661 715 661 734 b 675 868 663 792 667 830 b 709 976 682 905 694 941 b 735 1027 717 994 725 1011 b 767 1074 745 1043 756 1059 b 772 1080 769 1076 770 1078 b 790 1075 778 1079 784 1077 z m 1756 1287 b 1781 1297 1764 1292 1772 1295 b 1795 1298 1786 1298 1790 1298 b 1808 1297 1799 1299 1804 1298 b 1840 1258 1824 1291 1837 1275 b 1834 1236 1842 1250 1840 1241 b 1810 1230 1828 1231 1819 1229 b 1782 1235 1801 1230 1791 1232 b 1754 1243 1773 1238 1763 1240 b 1716 1252 1741 1246 1729 1249 b 1756 1287 1727 1266 1741 1277 z m 633 -275 b 517 -270 594 -278 555 -277 b 406 -236 479 -263 442 -252 b 305 -179 370 -221 336 -202 b 220 -100 274 -156 245 -129 b 98 95 169 -42 129 25 b 41 277 73 153 54 214 b 51 251 44 268 47 260 b 116 132 68 209 90 169 b 203 27 142 94 171 59 b 305 -63 235 -5 269 -35 b 416 -140 341 -91 378 -116 b 668 -241 494 -187 580 -220 b 728 -253 688 -245 708 -249 b 633 -275 697 -264 665 -271 z m 1194 -211 b 1202 -199 1196 -207 1199 -203 b 1211 -187 1205 -194 1208 -190 b 1234 -164 1218 -179 1226 -171 b 1286 -125 1250 -150 1268 -137 b 1344 -93 1305 -113 1324 -103 b 1374 -80 1354 -88 1364 -84 b 1406 -68 1385 -75 1395 -72 b 1437 -59 1416 -65 1427 -62 b 1469 -55 1448 -57 1459 -55 b 1485 -55 1475 -54 1480 -55 b 1497 -60 1489 -56 1493 -57 b 1502 -69 1500 -62 1502 -65 b 1501 -75 1502 -71 1501 -73 b 1500 -79 1501 -76 1500 -77 b 1499 -82 1499 -80 1499 -81 b 1490 -94 1496 -86 1493 -90 b 1478 -105 1486 -98 1482 -101 b 1452 -124 1470 -111 1461 -118 b 1393 -155 1433 -135 1413 -145 b 1331 -180 1373 -164 1352 -172 b 1203 -218 1289 -195 1246 -207 b 1191 -220 1199 -219 1195 -219 b 1194 -211 1191 -217 1193 -214 z "},"I":{"ha":1143,"x_min":0,"x_max":0,"o":"m 1636 -125 b 1591 -111 1622 -116 1606 -113 b 1546 -110 1576 -109 1561 -109 b 1458 -122 1516 -112 1487 -116 b 1286 -160 1400 -132 1343 -146 b 943 -230 1172 -187 1058 -213 b 856 -240 914 -234 885 -238 b 769 -243 827 -242 798 -243 b 512 -200 681 -242 595 -228 b 431 -167 484 -190 457 -179 b 282 -75 378 -142 328 -111 b 160 49 236 -39 195 2 b 76 201 125 95 97 146 b 37 370 56 255 43 312 b 58 629 29 457 36 544 b 86 711 66 657 75 684 b 173 861 107 765 136 816 b 305 972 209 906 253 945 b 386 1003 330 986 357 997 b 472 1010 414 1010 443 1013 b 497 1007 480 1010 489 1009 b 475 939 488 985 481 962 b 467 884 471 921 468 903 b 467 856 466 875 466 866 l 467 849 l 468 842 b 470 828 469 837 469 833 b 477 801 472 819 474 810 b 487 774 480 791 483 783 b 516 726 494 757 504 741 b 521 721 518 724 519 722 b 526 716 522 719 524 717 b 536 706 529 713 532 709 b 558 691 543 701 550 696 b 610 678 574 682 592 677 b 661 692 628 679 645 684 b 703 721 676 700 691 710 b 726 745 711 729 719 737 b 732 707 728 732 730 720 b 739 620 736 678 738 649 b 738 560 739 600 739 580 b 719 579 732 567 726 573 b 681 603 708 589 695 597 b 639 618 668 610 654 614 b 595 624 625 621 610 623 b 551 624 580 625 565 625 b 528 622 543 623 536 623 b 507 617 521 620 514 619 b 464 604 492 614 478 610 b 315 499 406 582 355 546 b 287 462 305 487 296 475 b 264 421 278 449 271 435 b 246 377 257 407 251 392 b 240 354 244 370 242 362 b 237 343 239 351 238 347 b 234 331 236 339 235 335 b 233 235 228 300 228 267 b 239 212 235 227 236 220 b 246 189 241 204 243 196 b 268 146 252 174 259 160 b 334 80 285 119 307 97 b 421 56 360 64 390 56 b 465 63 436 56 451 59 b 506 80 479 67 493 73 b 575 135 531 95 554 114 b 604 168 585 145 595 156 b 630 203 613 179 622 191 b 674 278 647 226 662 252 b 728 445 699 332 717 388 b 740 542 734 477 738 509 b 742 540 741 541 741 541 b 760 501 749 528 756 515 b 776 415 770 473 775 444 b 772 328 777 386 776 357 b 741 157 767 270 754 213 b 724 110 736 141 730 125 l 707 61 l 705 55 b 703 49 704 53 703 51 b 702 35 702 45 702 40 b 706 20 702 30 704 25 b 708 15 706 18 707 16 b 730 -3 713 4 721 -3 b 775 57 741 -3 760 29 l 787 81 l 794 96 l 833 173 b 924 358 864 235 894 296 b 1098 730 984 481 1041 605 l 1103 742 l 1108 754 l 1118 777 l 1139 824 b 1180 917 1152 855 1166 886 b 1223 1009 1194 948 1208 979 b 1270 1100 1238 1040 1253 1070 b 1321 1187 1286 1130 1303 1159 b 1351 1227 1331 1201 1341 1214 b 1367 1246 1356 1234 1361 1240 b 1384 1263 1373 1252 1378 1258 b 1389 1267 1386 1265 1387 1266 b 1393 1272 1390 1269 1391 1271 b 1402 1280 1396 1275 1399 1278 b 1423 1295 1409 1286 1416 1291 b 1434 1301 1426 1297 1430 1299 b 1445 1302 1437 1301 1441 1302 b 1451 1304 1447 1303 1449 1303 b 1455 1305 1453 1304 1454 1305 b 1457 1306 1456 1305 1456 1306 b 1458 1307 1457 1306 1458 1307 b 1461 1310 1459 1308 1460 1309 b 1457 1317 1461 1313 1460 1316 b 1455 1318 1456 1317 1456 1318 b 1452 1318 1454 1318 1453 1318 b 1449 1317 1451 1318 1450 1317 b 1442 1316 1446 1317 1444 1316 b 1426 1310 1437 1314 1431 1312 b 1418 1309 1424 1310 1421 1309 b 1393 1310 1410 1309 1401 1309 b 1342 1315 1376 1310 1359 1312 b 1292 1325 1325 1318 1309 1321 l 1267 1331 b 1242 1337 1259 1333 1250 1335 b 1217 1342 1234 1339 1225 1340 b 1191 1346 1208 1344 1200 1345 b 1166 1350 1183 1348 1174 1349 l 1140 1353 b 1115 1355 1132 1353 1123 1354 l 1102 1355 l 1095 1356 l 1089 1356 b 1063 1356 1080 1356 1071 1356 l 1050 1356 l 1037 1356 b 933 1345 1002 1355 968 1351 l 920 1342 b 908 1340 916 1342 912 1340 b 895 1337 903 1339 899 1338 l 882 1333 b 857 1326 874 1331 865 1328 b 832 1318 848 1323 840 1321 b 735 1273 798 1306 766 1291 b 647 1212 704 1255 675 1235 b 627 1194 640 1206 633 1200 b 608 1175 620 1188 614 1182 b 572 1134 595 1162 583 1149 b 513 1042 549 1106 530 1075 b 500 1012 508 1033 504 1023 b 472 1016 491 1014 481 1015 b 384 1011 443 1018 413 1016 b 341 1000 369 1008 355 1004 l 330 996 b 319 992 326 995 323 993 b 309 988 316 991 312 990 b 299 984 305 987 302 985 b 258 964 285 978 271 971 b 219 940 245 956 232 948 b 183 912 207 931 195 921 b 150 880 171 902 160 891 b 49 726 107 835 73 783 b 20 639 38 698 28 669 b -5 458 5 580 -4 519 b -5 412 -6 442 -6 427 b -1 366 -4 397 -3 381 b 5 321 1 351 3 336 b 16 276 8 306 12 291 b 29 232 20 261 24 246 b 37 210 31 225 34 217 l 41 200 l 46 189 b 142 35 70 133 103 82 b 275 -85 181 -10 226 -51 b 428 -173 322 -120 374 -150 b 468 -190 441 -179 455 -185 b 489 -198 475 -193 482 -195 b 510 -205 496 -200 503 -202 b 595 -228 538 -214 566 -222 b 769 -250 652 -241 710 -248 b 857 -249 798 -251 828 -250 b 944 -240 886 -247 915 -244 b 1290 -175 1061 -224 1175 -200 l 1375 -156 b 1461 -139 1404 -150 1432 -144 b 1547 -128 1489 -133 1518 -130 b 1589 -128 1561 -127 1575 -127 b 1627 -139 1603 -130 1616 -133 l 1627 -139 b 1639 -136 1631 -142 1637 -140 b 1636 -125 1641 -132 1640 -127 z m 671 280 b 628 204 659 253 644 228 b 601 170 619 193 610 181 b 572 137 592 159 582 148 b 503 85 552 117 528 99 b 463 68 491 78 477 72 b 421 62 450 64 435 62 b 341 89 392 63 364 72 b 310 119 329 98 319 108 b 287 156 301 130 293 143 b 272 196 281 168 276 182 b 264 239 268 210 265 224 b 268 325 261 267 262 297 b 336 483 279 382 302 436 b 468 594 371 530 416 569 b 551 617 495 606 523 614 b 573 619 559 618 566 619 b 595 618 580 619 587 619 b 637 612 609 617 623 615 b 714 573 665 605 692 592 b 737 547 723 565 730 557 b 724 446 735 513 730 479 b 671 280 714 389 696 333 z m 600 1113 b 937 1331 685 1219 804 1299 b 1038 1347 970 1339 1004 1344 b 1140 1347 1072 1349 1106 1349 b 1241 1332 1174 1344 1208 1339 b 1266 1326 1249 1330 1258 1328 b 1291 1320 1274 1324 1282 1322 b 1341 1308 1307 1315 1324 1311 b 1392 1301 1358 1305 1375 1303 b 1405 1300 1396 1301 1401 1301 b 1393 1295 1401 1299 1397 1297 b 1381 1288 1389 1292 1385 1290 b 1375 1285 1379 1287 1377 1286 b 1369 1282 1373 1284 1371 1283 b 1288 1211 1339 1262 1313 1236 b 1219 1130 1264 1185 1241 1158 b 1155 1046 1197 1102 1175 1074 b 1125 1002 1144 1031 1134 1017 l 1117 991 l 1110 980 l 1096 958 b 1042 867 1077 928 1059 898 b 1018 821 1034 852 1026 836 l 1006 797 l 1003 791 l 1002 788 l 1001 786 b 1001 787 1000 786 1001 787 l 1001 786 l 995 775 b 832 399 937 651 882 526 b 779 261 814 353 796 307 b 787 326 783 283 785 304 b 787 416 789 356 789 386 b 769 504 786 446 780 476 b 741 555 763 522 753 539 b 743 620 743 577 743 598 b 737 708 743 649 741 679 b 730 750 735 722 733 736 b 763 805 743 767 755 785 b 778 854 770 821 775 837 b 776 906 780 871 780 889 b 774 907 776 907 775 907 b 773 905 773 907 773 906 l 773 905 b 774 855 776 889 777 872 b 759 807 771 838 766 822 b 729 757 751 789 741 772 b 719 794 726 769 723 782 b 712 815 717 801 715 808 b 708 825 711 818 710 822 b 704 835 707 829 706 832 b 685 875 698 849 692 862 b 631 945 670 901 652 924 b 558 994 609 965 585 982 b 535 1003 550 998 543 1001 b 600 1113 552 1042 574 1079 z m 502 880 b 511 931 504 897 507 914 b 533 998 516 954 524 976 b 555 989 541 996 548 993 b 627 941 582 977 606 961 b 680 872 648 921 666 898 b 699 833 687 860 694 847 b 703 823 701 830 702 827 b 707 813 705 820 706 817 b 714 792 710 806 712 799 b 724 752 718 779 722 765 b 699 726 717 743 708 734 b 658 698 687 715 673 706 b 610 687 643 691 626 687 b 563 699 593 686 577 691 b 529 734 549 708 538 720 b 509 780 520 748 513 764 b 501 830 504 796 502 813 b 502 880 500 847 500 864 z "},"Ì":{"ha":1143,"x_min":0,"x_max":0,"o":"m 1636 -125 b 1591 -111 1622 -116 1606 -113 b 1546 -110 1576 -109 1561 -109 b 1458 -122 1516 -112 1487 -116 b 1286 -160 1400 -132 1343 -146 b 943 -230 1172 -187 1058 -213 b 856 -240 914 -234 885 -238 b 769 -243 827 -242 798 -243 b 512 -200 681 -242 595 -228 b 431 -167 484 -190 457 -179 b 282 -75 378 -142 328 -111 b 160 49 236 -39 195 2 b 76 201 125 95 97 146 b 37 370 56 255 43 312 b 58 629 29 457 36 544 b 86 711 66 657 75 684 b 173 861 107 765 136 816 b 305 972 209 906 253 945 b 386 1003 330 986 357 997 b 472 1010 414 1010 443 1013 b 497 1007 480 1010 489 1009 b 475 939 488 985 481 962 b 467 884 471 921 468 903 b 467 856 466 875 466 866 l 467 849 l 468 842 b 470 828 469 837 469 833 b 477 801 472 819 474 810 b 487 774 480 791 483 783 b 516 726 494 757 504 741 b 521 721 518 724 519 722 b 526 716 522 719 524 717 b 536 706 529 713 532 709 b 558 691 543 701 550 696 b 610 678 574 682 592 677 b 661 692 628 679 645 684 b 703 721 676 700 691 710 b 726 745 711 729 719 737 b 732 707 728 732 730 720 b 739 620 736 678 738 649 b 738 560 739 600 739 580 b 719 579 732 567 726 573 b 681 603 708 589 695 597 b 639 618 668 610 654 614 b 595 624 625 621 610 623 b 551 624 580 625 565 625 b 528 622 543 623 536 623 b 507 617 521 620 514 619 b 464 604 492 614 478 610 b 315 499 406 582 355 546 b 287 462 305 487 296 475 b 264 421 278 449 271 435 b 246 377 257 407 251 392 b 240 354 244 370 242 362 b 237 343 239 351 238 347 b 234 331 236 339 235 335 b 233 235 228 300 228 267 b 239 212 235 227 236 220 b 246 189 241 204 243 196 b 268 146 252 174 259 160 b 334 80 285 119 307 97 b 421 56 360 64 390 56 b 465 63 436 56 451 59 b 506 80 479 67 493 73 b 575 135 531 95 554 114 b 604 168 585 145 595 156 b 630 203 613 179 622 191 b 674 278 647 226 662 252 b 728 445 699 332 717 388 b 740 542 734 477 738 509 b 742 540 741 541 741 541 b 760 501 749 528 756 515 b 776 415 770 473 775 444 b 772 328 777 386 776 357 b 741 157 767 270 754 213 b 724 110 736 141 730 125 l 707 61 l 705 55 b 703 49 704 53 703 51 b 702 35 702 45 702 40 b 706 20 702 30 704 25 b 708 15 706 18 707 16 b 730 -3 713 4 721 -3 b 775 57 741 -3 760 29 l 787 81 l 794 96 l 833 173 b 924 358 864 235 894 296 b 1098 730 984 481 1041 605 l 1103 742 l 1108 754 l 1118 777 l 1139 824 b 1180 917 1152 855 1166 886 b 1223 1009 1194 948 1208 979 b 1270 1100 1238 1040 1253 1070 b 1321 1187 1286 1130 1303 1159 b 1351 1227 1331 1201 1341 1214 b 1367 1246 1356 1234 1361 1240 b 1384 1263 1373 1252 1378 1258 b 1389 1267 1386 1265 1387 1266 b 1393 1272 1390 1269 1391 1271 b 1402 1280 1396 1275 1399 1278 b 1423 1295 1409 1286 1416 1291 b 1434 1301 1426 1297 1430 1299 b 1445 1302 1437 1301 1441 1302 b 1451 1304 1447 1303 1449 1303 b 1455 1305 1453 1304 1454 1305 b 1457 1306 1456 1305 1456 1306 b 1458 1307 1457 1306 1458 1307 b 1461 1310 1459 1308 1460 1309 b 1457 1317 1461 1313 1460 1316 b 1455 1318 1456 1317 1456 1318 b 1452 1318 1454 1318 1453 1318 b 1449 1317 1451 1318 1450 1317 b 1442 1316 1446 1317 1444 1316 b 1426 1310 1437 1314 1431 1312 b 1418 1309 1424 1310 1421 1309 b 1393 1310 1410 1309 1401 1309 b 1342 1315 1376 1310 1359 1312 b 1292 1325 1325 1318 1309 1321 l 1267 1331 b 1242 1337 1259 1333 1250 1335 b 1217 1342 1234 1339 1225 1340 b 1191 1346 1208 1344 1200 1345 b 1166 1350 1183 1348 1174 1349 l 1140 1353 b 1115 1355 1132 1353 1123 1354 l 1102 1355 l 1095 1356 l 1089 1356 b 1063 1356 1080 1356 1071 1356 l 1050 1356 l 1037 1356 b 933 1345 1002 1355 968 1351 l 920 1342 b 908 1340 916 1342 912 1340 b 895 1337 903 1339 899 1338 l 882 1333 b 857 1326 874 1331 865 1328 b 832 1318 848 1323 840 1321 b 735 1273 798 1306 766 1291 b 647 1212 704 1255 675 1235 b 627 1194 640 1206 633 1200 b 608 1175 620 1188 614 1182 b 572 1134 595 1162 583 1149 b 513 1042 549 1106 530 1075 b 500 1012 508 1033 504 1023 b 472 1016 491 1014 481 1015 b 384 1011 443 1018 413 1016 b 341 1000 369 1008 355 1004 l 330 996 b 319 992 326 995 323 993 b 309 988 316 991 312 990 b 299 984 305 987 302 985 b 258 964 285 978 271 971 b 219 940 245 956 232 948 b 183 912 207 931 195 921 b 150 880 171 902 160 891 b 49 726 107 835 73 783 b 20 639 38 698 28 669 b -5 458 5 580 -4 519 b -5 412 -6 442 -6 427 b -1 366 -4 397 -3 381 b 5 321 1 351 3 336 b 16 276 8 306 12 291 b 29 232 20 261 24 246 b 37 210 31 225 34 217 l 41 200 l 46 189 b 142 35 70 133 103 82 b 275 -85 181 -10 226 -51 b 428 -173 322 -120 374 -150 b 468 -190 441 -179 455 -185 b 489 -198 475 -193 482 -195 b 510 -205 496 -200 503 -202 b 595 -228 538 -214 566 -222 b 769 -250 652 -241 710 -248 b 857 -249 798 -251 828 -250 b 944 -240 886 -247 915 -244 b 1290 -175 1061 -224 1175 -200 l 1375 -156 b 1461 -139 1404 -150 1432 -144 b 1547 -128 1489 -133 1518 -130 b 1589 -128 1561 -127 1575 -127 b 1627 -139 1603 -130 1616 -133 l 1627 -139 b 1639 -136 1631 -142 1637 -140 b 1636 -125 1641 -132 1640 -127 z m 671 280 b 628 204 659 253 644 228 b 601 170 619 193 610 181 b 572 137 592 159 582 148 b 503 85 552 117 528 99 b 463 68 491 78 477 72 b 421 62 450 64 435 62 b 341 89 392 63 364 72 b 310 119 329 98 319 108 b 287 156 301 130 293 143 b 272 196 281 168 276 182 b 264 239 268 210 265 224 b 268 325 261 267 262 297 b 336 483 279 382 302 436 b 468 594 371 530 416 569 b 551 617 495 606 523 614 b 573 619 559 618 566 619 b 595 618 580 619 587 619 b 637 612 609 617 623 615 b 714 573 665 605 692 592 b 737 547 723 565 730 557 b 724 446 735 513 730 479 b 671 280 714 389 696 333 z m 600 1113 b 937 1331 685 1219 804 1299 b 1038 1347 970 1339 1004 1344 b 1140 1347 1072 1349 1106 1349 b 1241 1332 1174 1344 1208 1339 b 1266 1326 1249 1330 1258 1328 b 1291 1320 1274 1324 1282 1322 b 1341 1308 1307 1315 1324 1311 b 1392 1301 1358 1305 1375 1303 b 1405 1300 1396 1301 1401 1301 b 1393 1295 1401 1299 1397 1297 b 1381 1288 1389 1292 1385 1290 b 1375 1285 1379 1287 1377 1286 b 1369 1282 1373 1284 1371 1283 b 1288 1211 1339 1262 1313 1236 b 1219 1130 1264 1185 1241 1158 b 1155 1046 1197 1102 1175 1074 b 1125 1002 1144 1031 1134 1017 l 1117 991 l 1110 980 l 1096 958 b 1042 867 1077 928 1059 898 b 1018 821 1034 852 1026 836 l 1006 797 l 1003 791 l 1002 788 l 1001 786 b 1001 787 1000 786 1001 787 l 1001 786 l 995 775 b 832 399 937 651 882 526 b 779 261 814 353 796 307 b 787 326 783 283 785 304 b 787 416 789 356 789 386 b 769 504 786 446 780 476 b 741 555 763 522 753 539 b 743 620 743 577 743 598 b 737 708 743 649 741 679 b 730 750 735 722 733 736 b 763 805 743 767 755 785 b 778 854 770 821 775 837 b 776 906 780 871 780 889 b 774 907 776 907 775 907 b 773 905 773 907 773 906 l 773 905 b 774 855 776 889 777 872 b 759 807 771 838 766 822 b 729 757 751 789 741 772 b 719 794 726 769 723 782 b 712 815 717 801 715 808 b 708 825 711 818 710 822 b 704 835 707 829 706 832 b 685 875 698 849 692 862 b 631 945 670 901 652 924 b 558 994 609 965 585 982 b 535 1003 550 998 543 1001 b 600 1113 552 1042 574 1079 z m 502 880 b 511 931 504 897 507 914 b 533 998 516 954 524 976 b 555 989 541 996 548 993 b 627 941 582 977 606 961 b 680 872 648 921 666 898 b 699 833 687 860 694 847 b 703 823 701 830 702 827 b 707 813 705 820 706 817 b 714 792 710 806 712 799 b 724 752 718 779 722 765 b 699 726 717 743 708 734 b 658 698 687 715 673 706 b 610 687 643 691 626 687 b 563 699 593 686 577 691 b 529 734 549 708 538 720 b 509 780 520 748 513 764 b 501 830 504 796 502 813 b 502 880 500 847 500 864 z "}}}
